<svg width="500" height="500" viewBox="0 0 500 500" fill="none" xmlns="http://www.w3.org/2000/svg">
<path fill-rule="evenodd" clip-rule="evenodd" d="M44.7759 272.388V500H272.388H499.999V303.707C499.999 195.745 499.638 93.3203 499.196 76.095L498.392 44.7761H271.584H44.7759V272.388Z" fill="black"/>
<path fill-rule="evenodd" clip-rule="evenodd" d="M0 231.965V463.93H232.587H465.174V263.883C465.174 153.857 464.804 49.4726 464.353 31.9179L463.531 0H231.766H0V231.965Z" fill="white"/>
<path fill-rule="evenodd" clip-rule="evenodd" d="M0 231.965V463.93H232.587H465.174V263.883C465.174 153.857 464.804 49.4726 464.353 31.9179L463.531 0H231.766H0V231.965ZM457.711 231.965V457.711H231.965H6.2189V231.965V6.2189H231.965H457.711V231.965ZM123.93 128.795C114.107 130.747 101.953 136.116 96.0435 141.113C87.8358 148.055 81.1952 161.203 79.2126 174.44L78.5149 179.104H97.5559H116.597L117.359 174.342C119.652 160 133.438 153.341 156.159 155.597C165.705 156.545 170.165 158.705 173.883 164.179C176.313 167.759 176.745 169.695 176.313 175.072C175.348 187.094 168.877 190.479 142.413 192.802C118.126 194.934 105.471 197.996 92.6616 204.842C68.8868 217.547 64.342 254.601 84.1654 274.111C94.3097 284.094 107.691 288.557 127.487 288.557C147.766 288.557 161.543 283.796 172.254 273.084L177.623 267.715L178.47 273.358C180.288 285.49 179.022 284.826 200.351 284.826C217.783 284.826 219.107 284.665 218.287 282.649C217.801 281.453 216.793 278.793 216.05 276.741C215.193 274.378 214.441 252.479 214.002 217.01L213.308 161.01L209.21 152.688C202.786 139.644 191.597 132.153 173.315 128.655C161.693 126.432 135.449 126.506 123.93 128.795ZM176.617 221.167C176.617 239.295 170.83 250.169 157.417 257.249C151.688 260.272 149.874 260.572 137.341 260.572C124.073 260.572 123.388 260.439 118.863 256.987C111.193 251.137 108.621 241.205 112.422 232.111C115.863 223.873 125.602 219.965 148.632 217.579C156.157 216.8 165.112 215.174 168.532 213.968C171.953 212.761 175.172 211.699 175.684 211.608C176.196 211.517 176.617 215.818 176.617 221.167ZM244.052 321.818L244.403 336.443H318.408H392.413V322.139V307.836L318.057 307.515L243.701 307.194L244.052 321.818Z" fill="black"/>
</svg>
