<svg width="92" height="24" viewBox="0 0 92 24" fill="none" xmlns="http://www.w3.org/2000/svg">
<g clip-path="url(#clip0)">
<path d="M34.084 17.9888C33.5061 18.3969 32.8561 18.709 32.1579 18.877C31.3874 19.0931 30.617 19.1891 29.8225 19.1891C28.8835 19.2131 27.9686 19.0451 27.126 18.685C26.4037 18.3729 25.7777 17.8927 25.3203 17.2685C24.8388 16.5963 24.5017 15.8521 24.3091 15.0598C24.0924 14.1236 23.9961 13.1392 23.9961 12.1789C23.9961 9.92225 24.5017 8.19371 25.5129 6.96933C26.5241 5.74495 27.9927 5.14476 29.9429 5.14476C30.7374 5.12076 31.5319 5.21679 32.3023 5.38484C32.8561 5.52888 33.4098 5.74495 33.9154 6.00903L33.0968 8.81791C32.7116 8.62585 32.3023 8.4818 31.893 8.36176C31.4356 8.24173 30.9781 8.19371 30.5207 8.19371C29.5577 8.19371 28.8354 8.50581 28.3298 9.13C27.8242 9.7542 27.5834 10.7625 27.5834 12.1549C27.5834 12.6831 27.6316 13.2113 27.776 13.7154C27.8964 14.1716 28.0649 14.5797 28.3298 14.9638C28.5705 15.3239 28.9076 15.612 29.2928 15.8041C29.7262 16.0201 30.2077 16.1162 30.6892 16.1162C31.1948 16.1162 31.7004 16.0442 32.1819 15.8761C32.5672 15.7321 32.9283 15.564 33.2654 15.3479L34.084 17.9888Z" fill="#000000"/>
<path d="M36.1064 6.29714C36.925 5.93702 37.7676 5.69695 38.6343 5.5289C39.6455 5.33684 40.6808 5.24081 41.692 5.24081C42.4865 5.2168 43.2569 5.33684 44.0033 5.57691C45.1349 5.93702 45.9775 6.84931 46.2665 7.97766C46.435 8.60185 46.5072 9.25005 46.4831 9.89826C46.4831 10.6905 46.4591 11.4587 46.4109 12.251C46.3628 13.0432 46.3146 13.8115 46.3146 14.5797C46.3146 15.3479 46.3387 16.0922 46.3868 16.7884C46.435 17.4846 46.5794 18.1568 46.7961 18.829H43.9792L43.4255 16.9805H43.281C42.8958 17.5566 42.3902 18.0368 41.8124 18.3969C41.066 18.829 40.2234 19.0211 39.3807 18.9971C38.8029 18.9971 38.2251 18.9011 37.6954 18.709C36.7323 18.3729 35.9619 17.6287 35.5767 16.6924C35.3841 16.1882 35.2637 15.66 35.2878 15.1079C35.2637 14.3877 35.4563 13.6674 35.8415 13.0432C36.2267 12.4671 36.7805 11.9869 37.4065 11.6748C38.1769 11.2907 39.0196 11.0506 39.8622 10.9546C40.9216 10.8105 41.9809 10.7865 43.0403 10.8345C43.1606 9.85024 43.0884 9.13002 42.8236 8.69788C42.5587 8.26575 41.9568 8.04968 41.042 8.04968C40.2956 8.04968 39.5733 8.1217 38.851 8.26575C38.201 8.36178 37.5509 8.55384 36.949 8.81792L36.1064 6.29714ZM40.5123 16.1882C41.0901 16.2122 41.6679 16.0442 42.1495 15.7321C42.5106 15.468 42.8236 15.1319 43.0643 14.7238V12.9952C42.5347 12.9472 42.005 12.9232 41.4753 12.9712C41.0179 12.9952 40.5604 13.0672 40.1271 13.2113C39.79 13.3073 39.4529 13.4994 39.1881 13.7394C38.9473 13.9795 38.827 14.2916 38.851 14.6277C38.827 15.0599 38.9955 15.468 39.2844 15.7801C39.6215 16.0682 40.0548 16.2122 40.5123 16.1882Z" fill="#000000"/>
<path d="M54.9338 15.1558C54.9338 14.8197 54.7652 14.4836 54.4763 14.3156C54.1152 14.0755 53.754 13.8834 53.3688 13.7394C52.9355 13.5714 52.4299 13.3793 51.9002 13.1872C51.3705 12.9952 50.889 12.7551 50.4316 12.419C49.9741 12.0829 49.5889 11.6508 49.3241 11.1706C48.987 10.5704 48.8425 9.89821 48.8666 9.226C48.8666 7.90559 49.2518 6.92129 50.0463 6.22507C50.8168 5.52885 51.9483 5.19275 53.4411 5.19275C54.3559 5.19275 55.2949 5.28878 56.1857 5.50485C56.8599 5.64889 57.5099 5.91297 58.1118 6.22507L57.3173 8.69784C56.908 8.52979 56.4024 8.36173 55.7764 8.19368C55.1505 8.02563 54.5245 7.9296 53.8744 7.9296C52.8392 7.9296 52.3336 8.33773 52.3336 9.12997C52.3336 9.44207 52.5021 9.75417 52.791 9.89821C53.1521 10.1143 53.5133 10.3063 53.9226 10.4504C54.3559 10.6184 54.8615 10.8105 55.3912 11.0026C55.9209 11.1946 56.4024 11.4347 56.8599 11.7468C57.3173 12.0589 57.7025 12.467 57.9914 12.9472C58.3044 13.5233 58.4729 14.1955 58.4489 14.8678C58.4489 16.2122 58.0155 17.2685 57.1488 18.0367C56.282 18.805 54.9819 19.1891 53.2485 19.1891C52.3576 19.1891 51.4668 19.0691 50.6001 18.829C49.9019 18.6369 49.2278 18.3488 48.5777 17.9887L49.5407 15.3959C50.0463 15.684 50.6001 15.9001 51.1538 16.0681C51.828 16.2842 52.5262 16.4042 53.2244 16.4042C53.6577 16.4282 54.0911 16.3322 54.4523 16.1161C54.7893 15.9241 54.9578 15.54 54.9338 15.1558Z" fill="#000000"/>
<path d="M60.1028 5.52887H61.9326V3.0321L65.3996 2.04779V5.52887H68.6498V8.45778H65.3996V13.5714C65.3996 14.4837 65.4959 15.1559 65.6885 15.564C65.8811 15.9721 66.2904 16.2122 66.7478 16.1642C67.0608 16.1642 67.3738 16.1402 67.6627 16.0681C67.9516 15.9961 68.2405 15.8761 68.5295 15.756L69.1314 18.4209C68.6017 18.661 68.0239 18.877 67.446 18.9971C66.8201 19.1651 66.1459 19.2371 65.4959 19.2371C64.268 19.2371 63.3772 18.925 62.7994 18.3008C62.2215 17.6766 61.9326 16.6443 61.9326 15.2039V8.45778H60.1028V5.52887Z" fill="#000000"/>
<path d="M70.0462 12.179C70.0462 9.92225 70.6 8.19372 71.7075 6.96933C72.815 5.74495 74.3558 5.14477 76.3542 5.14477C77.2931 5.12076 78.2321 5.28881 79.1229 5.64892C79.8693 5.96102 80.5434 6.44117 81.0731 7.06536C81.6027 7.71357 82.012 8.4818 82.2287 9.27405C82.4935 10.2103 82.638 11.1706 82.6139 12.1549C82.6139 14.4116 82.0602 16.1402 80.9767 17.3646C79.8933 18.5889 78.3284 19.1891 76.3542 19.1891C75.4152 19.2131 74.4762 19.0211 73.5854 18.685C72.8391 18.3729 72.1649 17.8687 71.6352 17.2685C71.0815 16.6203 70.6963 15.8521 70.4555 15.0598C70.1666 14.1236 70.0222 13.1393 70.0462 12.179ZM73.6095 12.179C73.6095 12.7311 73.6576 13.2593 73.778 13.8115C73.8743 14.2676 74.0429 14.6997 74.2595 15.1079C74.4521 15.468 74.7411 15.7561 75.1022 15.9721C75.4874 16.1882 75.9208 16.2842 76.3301 16.2842C77.245 16.2842 77.9191 15.9481 78.3525 15.2999C78.7858 14.6517 79.0266 13.5954 79.0266 12.179C79.0266 10.9546 78.8099 9.97027 78.4247 9.22604C78.0154 8.48181 77.3172 8.09769 76.3542 8.09769C75.5596 8.07368 74.8133 8.43379 74.3558 9.05798C73.8502 9.68218 73.6095 10.7145 73.6095 12.179Z" fill="#000000"/>
<path d="M91.5387 8.76988C91.0571 8.57782 90.5515 8.48179 90.0459 8.48179C89.4922 8.45778 88.9384 8.62583 88.481 8.96193C88.0717 9.27403 87.7828 9.73017 87.6383 10.2343V18.829H84.1714V5.52887H86.8679L87.2772 7.28141H87.3735C87.6383 6.68123 88.0717 6.15306 88.6014 5.76894C89.131 5.40883 89.7811 5.21677 90.4071 5.24078C90.9368 5.26479 91.4905 5.36082 91.9961 5.52887L91.5387 8.76988Z" fill="#000000"/>
<path d="M15.1958 9.51412C14.2115 8.38577 13.1071 7.73757 12.819 8.00165C12.5309 8.26573 13.2512 9.17801 13.5633 10.1623C14.8597 14.2196 12.603 18.5649 8.54571 19.8613C6.72114 20.4375 4.75253 20.3175 3.02399 19.5492C2.03969 19.1171 1.48752 18.3489 1.1034 18.661C0.719279 18.9731 1.00737 19.8613 1.99167 20.9897C5.16066 24.6388 10.6824 25.0229 14.3555 21.854C18.0287 18.685 18.3648 13.1633 15.1958 9.51412Z" fill="#000000"/>
<path d="M2.13573 14.5077C3.12004 15.636 4.20037 16.2842 4.51247 16.0201C4.82456 15.756 4.08033 14.8438 3.76824 13.8595C2.47183 9.8022 4.72854 5.45685 8.7858 4.16044C10.6104 3.58426 12.579 3.7043 14.3075 4.47254C15.2918 4.92868 15.844 5.67291 16.2281 5.36082C16.6122 5.04872 16.3241 4.16044 15.3398 3.03209C12.1949 -0.641049 6.67314 -1.02517 3.02401 2.14382C-0.625128 5.3128 -1.03325 10.8585 2.13573 14.5077Z" fill="#000000"/>
<path d="M8.66574 8.72186C7.39334 8.72186 6.36102 10.0663 6.36102 11.7228C6.36102 13.3793 7.39334 14.7237 8.66574 14.7237C9.93813 14.7237 10.9705 13.3793 10.9705 11.7228C10.9705 10.0663 9.93813 8.72186 8.66574 8.72186Z" fill="#000000"/>
</g>
<defs>
<clipPath id="clip0">
<rect width="92" height="24" fill="white"/>
</clipPath>
</defs>
</svg>
