<?xml version="1.0" encoding="UTF-8" standalone="no"?>
<svg
   xmlns:dc="http://purl.org/dc/elements/1.1/"
   xmlns:cc="http://creativecommons.org/ns#"
   xmlns:rdf="http://www.w3.org/1999/02/22-rdf-syntax-ns#"
   xmlns:svg="http://www.w3.org/2000/svg"
   xmlns="http://www.w3.org/2000/svg"
   id="svg14"
   version="1.1"
   height="61.781334"
   width="246.56667"
   viewBox="0 0 246.56667 61.781334">
  <metadata
     id="metadata20">
    <rdf:RDF>
      <cc:Work
         rdf:about="">
        <dc:format>image/svg+xml</dc:format>
        <dc:type
           rdf:resource="http://purl.org/dc/dcmitype/StillImage" />
        <dc:title></dc:title>
      </cc:Work>
    </rdf:RDF>
  </metadata>
  <defs
     id="defs18" />
  <g
     id="text829"
     style="font-style:normal;font-weight:normal;font-size:40px;line-height:1.25;font-family:sans-serif;letter-spacing:0px;word-spacing:0px;fill:#000000;fill-opacity:1;stroke:none"
     aria-label="CMTT">
    <path
       id="path831"
       style="font-style:normal;font-variant:normal;font-weight:bold;font-stretch:normal;font-size:85.33333588px;font-family:Montserrat;-inkscape-font-specification:'Montserrat Bold'"
       d="m 32.341334,61.781336 q -9.130667,0 -16.554667,-3.925334 Q 8.4480003,53.845335 4.1813335,46.848002 3.0517578e-8,39.765335 3.0517578e-8,30.890668 q 0,-8.874667 4.181333469482423,-15.872 Q 8.4480003,7.9360008 15.786667,4.0106673 23.210667,5.1879883e-7 32.426668,5.1879883e-7 q 7.765333,0 13.994667,2.73066678120117 6.314667,2.7306667 10.581333,7.8506667 l -8.874667,8.192 q -6.058666,-6.997333 -15.018667,-6.997333 -5.546666,0 -9.898667,2.474667 -4.352,2.389333 -6.826666,6.741333 -2.389334,4.352 -2.389334,9.898667 0,5.546667 2.389334,9.898667 2.474666,4.352 6.826666,6.826667 4.352001,2.389333 9.898667,2.389333 8.960001,0 15.018667,-7.082667 l 8.874667,8.192001 q -4.266666,5.205333 -10.581333,7.936 -6.314667,2.730667 -14.080001,2.730667 z" />
    <path
       id="path833"
       style="font-style:normal;font-variant:normal;font-weight:bold;font-stretch:normal;font-size:85.33333588px;font-family:Montserrat;-inkscape-font-specification:'Montserrat Bold'"
       d="M 120.612,60.757336 120.52667,24.917335 102.948,54.442669 H 96.718668 L 79.225334,25.685335 V 60.757336 H 66.254667 V 1.0240005 H 77.689334 L 100.04667,38.144002 122.06267,1.0240005 H 133.412 l 0.17067,59.7333355 z" />
    <path
       id="path835"
       style="font-style:normal;font-variant:normal;font-weight:bold;font-stretch:normal;font-size:85.33333588px;font-family:Montserrat;-inkscape-font-specification:'Montserrat Bold'"
       d="M 160.128,12.288001 H 141.01333 V 1.0240005 h 52.05334 V 12.288001 H 173.952 v 48.469335 h -13.824 z" />
    <path
       id="path837"
       style="font-style:normal;font-variant:normal;font-weight:bold;font-stretch:normal;font-size:85.33333588px;font-family:Montserrat;-inkscape-font-specification:'Montserrat Bold'"
       d="M 213.628,12.288001 H 194.51333 V 1.0240005 h 52.05334 V 12.288001 H 227.452 v 48.469335 h -13.824 z" />
  </g>
</svg>
