<svg width="284" height="60" viewBox="0 0 284 60" fill="none" 
  xmlns="http://www.w3.org/2000/svg">
  <path d="M99.2323 48.5689C106.942 48.5689 112.013 44.4294 113.876 37.5993L108.494 36.254C106.683 40.8592 104.148 43.1876 99.2323 43.1876C93.1266 43.1876 88.2628 38.8929 88.2628 30.0448C88.2628 21.1968 93.1266 16.9021 99.2323 16.9021C104.148 16.9021 106.683 19.2305 108.494 23.8357L113.876 22.4904C112.013 15.6603 106.942 11.5208 99.2323 11.5208C90.4877 11.5208 82.4675 17.7817 82.4675 30.0448C82.4675 42.308 90.4877 48.5689 99.2323 48.5689ZM130.033 48.5689C138.105 48.5689 142.866 42.4632 142.866 35.1157C142.866 27.7682 138.105 21.6625 130.033 21.6625C121.961 21.6625 117.201 27.7682 117.201 35.1157C117.201 42.4632 121.961 48.5689 130.033 48.5689ZM130.033 43.8085C125.325 43.8085 122.893 39.5138 122.893 35.1157C122.893 30.7175 125.325 26.4228 130.033 26.4228C134.742 26.4228 137.174 30.7175 137.174 35.1157C137.174 39.5138 134.742 43.8085 130.033 43.8085ZM153.642 48.1549V38.272C153.642 30.5105 156.488 26.4228 159.748 26.4228C162.025 26.4228 163.577 27.8199 163.577 30.6658V48.1549H168.958V37.7028C168.958 30.5105 171.856 26.4228 175.064 26.4228C177.341 26.4228 178.893 27.8199 178.893 30.6658V48.1549H184.274V29.4757C184.274 24.9223 181.584 21.6625 176.823 21.6625C173.46 21.6625 170.51 23.6287 168.699 27.0437C167.923 23.7839 165.026 21.6625 161.507 21.6625C158.351 21.6625 155.764 23.2665 153.642 26.5263V22.0764H148.261V48.1549H153.642ZM196.189 48.1549V38.272C196.189 30.5105 199.035 26.4228 202.295 26.4228C204.571 26.4228 206.124 27.8199 206.124 30.6658V48.1549H211.505V37.7028C211.505 30.5105 214.403 26.4228 217.611 26.4228C219.887 26.4228 221.44 27.8199 221.44 30.6658V48.1549H226.821V29.4757C226.821 24.9223 224.13 21.6625 219.37 21.6625C216.007 21.6625 213.057 23.6287 211.246 27.0437C210.47 23.7839 207.572 21.6625 204.054 21.6625C200.898 21.6625 198.31 23.2665 196.189 26.5263V22.0764H190.808V48.1549H196.189ZM244.686 48.5689C252.758 48.5689 257.519 42.4632 257.519 35.1157C257.519 27.7682 252.758 21.6625 244.686 21.6625C236.614 21.6625 231.854 27.7682 231.854 35.1157C231.854 42.4632 236.614 48.5689 244.686 48.5689ZM244.686 43.8085C239.978 43.8085 237.546 39.5138 237.546 35.1157C237.546 30.7175 239.978 26.4228 244.686 26.4228C249.395 26.4228 251.827 30.7175 251.827 35.1157C251.827 39.5138 249.395 43.8085 244.686 43.8085ZM267.933 48.1549V37.5993C267.933 30.407 271.244 26.4228 274.608 26.4228C277.04 26.4228 278.644 27.6647 278.644 31.1832V48.1549H284.025V29.4757C284.025 24.4048 280.92 21.6625 276.367 21.6625C272.9 21.6625 269.796 23.4217 267.933 26.5263V22.0764H262.552V48.1549H267.933Z" fill="#000000"/>
  <path fill-rule="evenodd" clip-rule="evenodd" d="M30.0918 0.166504L59.9763 30.051L30.0918 59.9354L0.207338 30.051L30.0918 0.166504ZM30.0918 6.65372L6.69456 30.051L30.0918 53.4482L53.489 30.051L30.0918 6.65372Z" fill="#000000"/>
  <path fill-rule="evenodd" clip-rule="evenodd" d="M40.748 10.8228L59.9762 30.051L40.748 49.2791L21.5199 30.051L40.748 10.8228ZM40.748 17.3101L28.0072 30.051L40.748 42.7919L53.4889 30.051L40.748 17.3101Z" fill="#000000"/>
</svg>
