<?xml version="1.0" encoding="UTF-8" standalone="no"?>
<svg
   xmlns:dc="http://purl.org/dc/elements/1.1/"
   xmlns:cc="http://creativecommons.org/ns#"
   xmlns:rdf="http://www.w3.org/1999/02/22-rdf-syntax-ns#"
   xmlns:svg="http://www.w3.org/2000/svg"
   xmlns="http://www.w3.org/2000/svg"
   id="svg8"
   version="1.1"
   viewBox="0 0 422.97844 166.16746"
   height="628.03448"
   width="1598.6587">
  <defs
     id="defs2" />
  <metadata
     id="metadata5">
    <rdf:RDF>
      <cc:Work
         rdf:about="">
        <dc:format>image/svg+xml</dc:format>
        <dc:type
           rdf:resource="http://purl.org/dc/dcmitype/StillImage" />
        <dc:title></dc:title>
      </cc:Work>
    </rdf:RDF>
  </metadata>
  <g
     transform="translate(226.02978,-65.082933)"
     id="layer1">
    <path
       id="path826"
       d="m -125.31877,231.19797 c -1.10931,-0.0892 -2.74294,-0.31356 -3.6518,-0.50147 -8.84255,-1.82817 -15.57342,-7.98191 -18.34577,-16.77273 -1.477,-4.68345 -1.70275,-10.36573 -0.61169,-15.39715 2.19374,-10.11647 9.63815,-17.44182 19.51893,-19.20676 3.84506,-0.68682 7.324,-0.58262 10.88106,0.3259 2.89733,0.74002 5.78753,2.15524 7.87559,3.8564 0.32761,0.2669 0.6466,0.54667 0.70886,0.6217 0.0623,0.075 0.14666,0.13642 0.18752,0.13642 0.0409,0 0.0743,-1.00965 0.0743,-2.24366 v -2.24367 h 8.847667 8.84767 v 25.31533 25.31534 h -8.84767 -8.847667 v -2.58234 c 0,-1.42028 -0.0244,-2.58233 -0.0543,-2.58233 -0.0298,0 -0.42433,0.39053 -0.87665,0.86783 -2.48752,2.62493 -6.13398,4.31027 -10.66843,4.93076 -0.93657,0.12816 -4.16193,0.23087 -5.03767,0.16043 z m 8.15184,-15.9041 c 3.48695,-0.61306 6.1346,-2.47944 7.27059,-5.12516 0.51472,-1.19879 0.54901,-1.57543 0.51692,-5.67729 -0.0319,-4.07295 -0.0323,-4.07711 -0.61966,-5.32228 -1.12422,-2.38348 -3.50738,-4.06499 -6.7524,-4.76435 -1.16709,-0.25154 -3.73202,-0.27012 -5.01129,-0.0363 -3.6345,0.66424 -6.26084,2.64924 -7.59275,5.73866 -1.29757,3.00974 -1.18501,7.17383 0.27067,10.01316 1.80452,3.51978 5.62161,5.50976 10.22309,5.32964 0.57107,-0.0223 1.33375,-0.0926 1.69483,-0.15606 z m 147.719498,15.90426 c -0.232833,-0.0186 -0.918633,-0.0919 -1.524,-0.16279 -7.926781,-0.92828 -14.553523,-5.34036 -18.435227,-12.27417 -3.9748199,-7.10015 -4.4592069,-17.04819 -1.2119779,-24.89122 0.8183969,-1.97666 2.2362329,-4.38169 3.5688269,-6.05367 0.892717,-1.12007 2.926317,-3.09758 4.055711,-3.94383 4.433367,-3.32193 9.386478,-4.94694 15.155334,-4.97213 2.522906,-0.011 4.570358,0.26588 6.837392,0.92469 2.754944,0.8006 5.511314,2.23497 7.442264,3.87282 0.35658,0.30246 0.6709,0.52734 0.6985,0.49974 0.0276,-0.0276 0.0502,-1.03442 0.0502,-2.2374 v -2.18722 h 8.84766 8.84767 v 25.31533 25.31534 h -8.84767 -8.84766 v -2.58234 c 0,-2.23896 -0.0169,-2.58233 -0.127,-2.58233 -0.0699,0 -0.127,0.0301 -0.127,0.0668 0,0.13197 -1.11525,1.28531 -1.75763,1.81766 -2.505652,2.07649 -5.701828,3.38085 -9.591592,3.91432 -0.93229,0.12786 -4.156736,0.23058 -5.033781,0.16036 z m 7.166526,-15.785 c 2.285458,-0.23238 4.11662,-0.9009 5.678507,-2.07312 1.45365,-1.09099 2.37855,-2.38679 2.8714,-4.02292 0.18076,-0.60004 0.19155,-0.80009 0.22365,-4.14414 0.0366,-3.81605 8.5e-4,-4.30343 -0.39857,-5.43219 -0.94354,-2.66634 -3.705197,-4.72859 -7.201846,-5.37794 -1.236514,-0.22963 -3.717129,-0.20858 -4.975259,0.0422 -2.33829,0.46613 -4.103294,1.38352 -5.53985,2.87942 -0.822105,0.85608 -1.198414,1.4006 -1.718047,2.48611 -1.399354,2.92321 -1.417795,7.10447 -0.04427,10.0355 0.896095,1.9122 2.432093,3.47817 4.361096,4.44619 1.916836,0.9619 4.435534,1.3955 6.743192,1.16086 z m 75.764476,15.76077 c -1.53572,-0.48905 -2.2593,-1.85007 -1.78901,-3.36507 0.33245,-1.07098 1.00668,-1.73079 2.70294,-2.64517 1.25468,-0.67633 1.30936,-0.71631 1.54655,-1.13046 0.1971,-0.34415 0.20776,-0.43853 0.23387,-2.07074 l 0.0274,-1.71016 -0.53536,-0.26959 c -2.42726,-1.22235 -3.77843,-3.25078 -3.99964,-6.00443 -0.047,-0.58447 0.05,-2.10257 0.16348,-2.55869 0.04,-0.1607 -0.0604,-0.28502 -0.60012,-0.74331 -1.23075,-1.04506 -2.07332,-2.30953 -2.41828,-3.62917 -0.14378,-0.55005 -0.165,-0.86149 -0.14222,-2.0876 l 0.0268,-1.44112 -0.44487,-0.59088 c -0.56771,-0.75405 -1.1304,-1.84304 -1.39904,-2.70756 -0.34995,-1.12622 -0.42902,-1.98862 -0.36459,-3.97612 0.0478,-1.47566 0.0356,-1.85449 -0.0715,-2.20837 -0.26857,-0.88761 -0.6798,-1.30864 -2.2214,-2.27431 -0.89657,-0.56163 -2.16303,-1.85271 -2.62705,-2.67814 -0.63641,-1.1321 -1.03422,-2.72144 -0.93628,-3.7407 l 0.0404,-0.42054 -0.6959,-0.69058 c -1.07138,-1.06317 -1.31824,-1.64498 -2.03532,-4.79691 -0.23524,-1.03403 -0.39925,-1.28386 -1.79169,-2.72923 -2.10581,-2.18587 -2.90106,-3.20908 -3.49686,-4.49927 -0.65261,-1.41319 -1.08639,-3.11396 -1.27675,-5.00583 -0.0982,-0.97557 -0.0682,-3.51163 0.0559,-4.74133 l 0.0513,-0.508 -0.52744,-0.3803 c -1.19002,-0.85804 -1.98631,-2.10205 -2.41601,-3.77441 -0.38848,-1.51201 -0.26947,-3.73643 0.28733,-5.37029 l 0.15869,-0.46567 -0.2756,-0.55033 c -0.15157,-0.30269 -0.33778,-0.77894 -0.41381,-1.05834 -0.19887,-0.7309 -0.26065,-2.02481 -0.13427,-2.81195 0.18591,-1.15794 0.87775,-3.04777 1.75908,-4.80513 l 0.38068,-0.75907 -0.20051,-0.12516 c -0.42433,-0.26484 -1.07571,-1.01724 -1.33155,-1.53805 -0.39407,-0.80219 -0.5474,-1.6381 -0.48804,-2.66064 0.0565,-0.97335 0.17151,-1.50747 0.6604,-3.06716 l 0.35101,-1.11984 -0.34165,-0.48883 c -1.19811,-1.71422 -1.66369,-3.69609 -1.34946,-5.74438 0.18985,-1.23757 0.56207,-2.29028 1.28507,-3.63445 0.35067,-0.65194 0.80842,-1.54151 1.01723,-1.97684 l 0.37966,-0.79149 -0.29603,-0.40328 c -1.27179,-1.73253 -1.46524,-3.90685 -0.50463,-5.67181 l 0.22416,-0.41186 -0.26257,-0.53703 c -0.47365,-0.96875 -0.51928,-2.31111 -0.12391,-3.64524 0.17981,-0.60672 0.90688,-2.42016 1.21529,-3.03112 l 0.2506,-0.49641 -0.42549,-0.37221 c -0.80465,-0.70389 -1.29332,-1.4832 -1.51614,-2.41787 -0.0946,-0.39679 -0.1293,-0.4457 -0.28804,-0.40586 -0.5811,0.14584 -2.36322,0.23977 -3.65176,0.19245 -2.14585,-0.0788 -3.950029,-0.37892 -5.679839,-0.94486 -1.45931,-0.47744 -2.90678,-1.29966 -3.23588,-1.8381 -0.46323,-0.75788 -0.56722,-2.017454 -0.26123,-3.164104 0.20491,-0.76786 0.207,-0.98013 0.0166,-1.68457 -0.18346,-0.67875 -0.185,-1.61556 -0.003,-1.95909 0.41036,-0.77549 5.30079,-4.60264 7.916369,-6.19518 l 0.44611,-0.27162 -0.16293,-0.31937 c -0.24509,-0.48042 -0.37851,-1.30089 -0.3239,-1.9918 0.0962,-1.21666 0.61961,-2.35443 1.49097,-3.24082 l 0.45074,-0.45852 -0.45389,-0.39356 c -0.24963,-0.21646 -1.10158,-1.04596 -1.89322,-1.84334 -2.00337,-2.01792 -2.873269,-3.2785 -2.980699,-4.31941 -0.0405,-0.3925 -0.0156,-0.51491 0.16909,-0.83001 0.64243,-1.09623 2.729389,-1.29288 5.704159,-0.53751 0.45504,0.11555 0.83572,0.20171 0.84596,0.19147 0.0102,-0.0102 -0.17208,-0.49406 -0.40514,-1.07516 -0.5656,-1.41021 -0.8357,-2.47409 -0.8357,-3.2917 0,-1.86926 1.02479,-3.40853 2.71202,-4.07358 2.00335,-0.78965 4.93291,-0.0126 7.4844,1.98512 0.76487,0.59887 2.14425,1.99262 2.58892,2.6159 0.25188,0.35302 0.32472,0.40412 0.53263,0.3736 0.36609,-0.0537 1.13586,0.0907 1.51531,0.28425 1.77647,0.90629 3.20887,4.15682 3.58247,8.1297 l 0.0527,0.56052 0.6678,0.526 c 1.29706,1.02166 2.77381,2.6975 3.71675,4.21783 2.37451,3.8285 4.10012,10.25347 5.33145,19.850544 l 0.24686,1.92407 0.37879,0.4466 c 0.99394,1.17186 1.53936,2.28215 1.8009,3.66602 0.11613,0.61451 0.13597,1.09201 0.10366,2.49558 l -0.0399,1.73566 0.67318,0.50801 c 0.86979,0.65636 1.66025,1.49711 2.2315,2.37348 1.09206,1.67538 1.54632,3.26417 2.06334,7.21664 0.42644,3.26008 0.72306,4.49099 1.32322,5.49133 0.66134,1.10231 1.26856,1.45671 2.95436,1.72433 1.44973,0.23013 2.85291,0.60159 3.61607,0.95726 1.06598,0.4968 1.71899,1.08915 2.72167,2.46881 0.11772,0.16199 0.13506,0.16247 0.74373,0.0202 1.96314,-0.45869 4.47459,-0.40751 6.9143,0.14087 l 0.84831,0.19068 0.6213,-0.3194 c 0.7811,-0.40154 1.94837,-0.78507 2.80558,-0.92181 1.38326,-0.22065 3.59647,0.0117 5.60504,0.58838 l 0.59267,0.17017 0.67733,-0.3295 c 1.45818,-0.70938 2.7789,-0.9758 4.48734,-0.90525 1.77058,0.0731 3.66472,0.52863 5.90502,1.42008 l 0.82501,0.32828 0.52965,-0.13037 c 0.85024,-0.20929 2.50526,-0.25069 3.44734,-0.0862 1.9457,0.33965 3.82119,1.24615 5.71831,2.7639 l 0.67733,0.54189 1.651,0.009 c 1.18378,0.006 1.84532,0.049 2.33766,0.15063 2.83524,0.5852 4.85364,2.09407 6.12563,4.57925 l 0.30156,0.58919 0.76108,0.10936 c 2.6993,0.38784 4.2575,1.20924 5.2917,2.78947 0.32584,0.49788 0.92491,1.7381 1.12459,2.32816 0.0257,0.0759 0.28778,0.28225 0.58242,0.45847 2.1177,1.26659 3.11223,2.48466 3.59371,4.40146 0.13447,0.53533 0.18616,0.61386 0.76729,1.16588 0.76518,0.72684 1.29149,1.55449 1.62592,2.55679 0.5868,1.75869 0.553,3.89185 -0.0975,6.15497 l -0.27568,0.95909 0.14569,0.53988 c 0.34818,1.29011 0.38792,2.84098 0.11013,4.29707 -0.42858,2.24646 -1.92568,4.96098 -3.8789,7.0332 l -0.41682,0.4422 0.14147,0.35357 c 0.27023,0.67538 0.56224,2.0688 0.60997,2.91069 0.0648,1.14279 -0.0879,1.81854 -0.674,2.98352 -0.92851,1.84547 -0.94848,2.1368 -0.28147,4.1055 0.62476,1.84406 0.76535,2.62316 0.70694,3.91764 -0.0574,1.27287 -0.32196,2.22565 -0.92847,3.34434 -0.95654,1.76431 -1.08059,2.11679 -1.09468,3.11062 -0.009,0.61358 0.076,0.88401 0.6966,2.22338 0.58832,1.26978 0.74887,1.82835 0.81522,2.83633 0.0652,0.99093 -0.0807,1.57437 -0.70356,2.81396 -0.44306,0.88168 -0.47775,0.99318 -0.47417,1.524 0.003,0.40851 0.068,0.73982 0.22768,1.1556 0.32871,0.85609 0.47077,1.64743 0.4701,2.61881 -0.002,2.18605 -1.00775,4.19903 -2.74354,5.48842 l -0.72499,0.53854 -0.002,5.67267 c -0.002,4.70801 -0.0237,5.76311 -0.12774,6.2045 -0.31229,1.32458 -1.08321,2.11824 -2.31044,2.37863 -0.28254,0.06 -1.52749,0.0952 -3.36233,0.0952 -2.76032,0 -2.93945,-0.009 -3.40367,-0.17986 -0.93402,-0.34285 -1.71767,-1.38609 -1.71767,-2.28667 0,-0.39985 0.18136,-1.11386 0.38628,-1.5208 0.39221,-0.77884 1.08243,-1.34529 2.67559,-2.19583 1.05439,-0.5629 1.36956,-0.84078 1.50443,-1.32649 0.1276,-0.45952 0.12351,-6.62968 -0.004,-6.62968 -0.0521,0 -0.32377,-0.13912 -0.60367,-0.30914 -1.83966,-1.11754 -2.97419,-2.82827 -3.30713,-4.98673 l -0.10078,-0.65335 -0.27748,0.42885 c -0.4933,0.76238 -1.54768,1.55477 -2.3142,1.73917 -0.19685,0.0474 -0.22723,0.10605 -0.27788,0.53695 -0.0697,0.59279 -0.46222,1.78627 -0.82263,2.50109 -0.65184,1.29281 -1.59035,2.3564 -2.74334,3.10892 l -0.67647,0.44152 -0.0454,4.29019 c -0.0435,4.11801 -0.0528,4.31229 -0.2298,4.84053 -0.35454,1.05788 -0.83939,1.61072 -1.73068,1.97335 -0.42739,0.1739 -0.60285,0.18428 -3.56807,0.21109 -2.72044,0.0246 -3.17552,0.0103 -3.56469,-0.11211 -0.68243,-0.21466 -1.22395,-0.67106 -1.55779,-1.31295 -0.2679,-0.5151 -0.2828,-0.58805 -0.25019,-1.22505 0.0767,-1.49711 0.83066,-2.37058 3.07257,-3.55937 1.50463,-0.79784 1.51252,-0.81464 1.55132,-3.30311 l 0.0304,-1.95182 -0.64662,-0.31957 c -1.99414,-0.98556 -3.22961,-3.21364 -3.53318,-6.37185 -0.0941,-0.97932 -0.10952,-1.03407 -0.32669,-1.16235 -0.41575,-0.24559 -1.09916,-0.91538 -1.48339,-1.45384 -0.80353,-1.12605 -1.4122,-2.8521 -1.64095,-4.65342 -0.16081,-1.26626 -0.20296,-3.86377 -0.0965,-5.94701 0.11444,-2.2393 0.0981,-2.32885 -0.57182,-3.13418 -1.42364,-1.71142 -2.2996,-5.68866 -2.2996,-10.44122 0,-0.60165 -0.0286,-1.09356 -0.0635,-1.09311 -0.14877,0.002 -1.24839,0.91435 -2.3495,1.94956 -1.47066,1.38265 -2.33215,2.03983 -3.25966,2.48663 -0.71406,0.34396 -0.72727,0.34666 -1.69334,0.34666 -0.92096,0 -1.00481,-0.0147 -1.54906,-0.27254 l -0.57539,-0.27254 0.16236,0.23021 c 0.87011,1.23363 1.19945,3.31885 0.78197,4.95114 -0.20805,0.81347 -0.34852,1.08351 -1.1409,2.19323 -1.05888,1.48297 -1.11926,1.89573 -0.50369,3.44378 0.60024,1.5095 0.65917,1.77874 0.6516,2.97706 -0.007,1.15173 -0.10726,1.58229 -0.73721,3.175 -0.36314,0.91811 -0.38408,1.35287 -0.12511,2.59727 0.13855,0.66579 0.18394,1.19685 0.1905,2.22873 0.008,1.31006 0,1.37868 -0.25262,2.0843 -0.14367,0.4013 -0.43815,0.99577 -0.65439,1.32105 -0.47325,0.71188 -1.4441,1.65386 -2.15986,2.09565 l -0.52286,0.32273 v 5.64284 c 0,4.72871 -0.0205,5.7214 -0.1263,6.12773 -0.3415,1.31111 -1.10058,2.07749 -2.31204,2.33427 -0.28222,0.0598 -1.52956,0.0951 -3.36232,0.0951 -3.33556,0 -3.48441,-0.0252 -4.25908,-0.72172 -0.80011,-0.71936 -1.02676,-1.82988 -0.6044,-2.96128 0.2823,-0.75617 1.19794,-1.6294 2.3528,-2.24381 1.36243,-0.72485 1.64243,-0.92876 1.8555,-1.35129 0.18763,-0.37209 0.1905,-0.42643 0.1905,-3.61044 0,-2.86711 -0.0151,-3.23847 -0.13367,-3.28397 -0.27031,-0.10373 -1.0805,-0.68298 -1.53044,-1.0942 -0.84338,-0.7708 -1.62196,-2.06767 -1.94092,-3.23295 -0.21954,-0.80207 -0.25841,-2.77915 -0.0759,-3.85878 0.20199,-1.1946 0.18749,-2.4139 -0.0372,-3.13233 -0.16881,-0.5397 -0.77887,-1.60256 -0.91982,-1.60256 -0.0383,0 -0.1547,0.17507 -0.25865,0.38903 -0.10396,0.21397 -0.38246,0.59358 -0.61891,0.84358 l -0.42989,0.45455 0.13653,0.74393 c 0.35204,1.91808 -0.0539,3.6564 -1.1377,4.87245 l -0.41944,0.4706 v 1.22417 c 0,3.4637 -1.05334,5.37085 -3.72533,6.74501 -0.10951,0.0563 -0.13285,0.65872 -0.16949,4.37417 -0.0418,4.23799 -0.0457,4.31778 -0.23849,4.85216 -0.36015,0.99826 -0.85425,1.54135 -1.72485,1.89585 -0.42998,0.17509 -0.58743,0.18382 -3.6245,0.20094 -1.74625,0.01 -3.27025,-0.0124 -3.38667,-0.0495 z m 6.621,-14.24332 c 1.03857,-0.22151 1.92565,-0.83416 2.30838,-1.59423 0.32486,-0.64516 0.39463,-1.18564 0.33319,-2.5812 -0.046,-1.045 -0.0308,-1.37364 0.0843,-1.82487 0.15598,-0.61115 0.59467,-1.31721 1.01999,-1.64162 0.60905,-0.46454 0.68418,-1.08281 0.33563,-2.762 -0.35708,-1.72024 -0.2189,-2.14706 1.11618,-3.44765 0.98958,-0.96402 1.23255,-1.37721 1.40655,-2.39193 0.12868,-0.75041 0.028,-1.30766 -0.43005,-2.3797 -0.71249,-1.66764 -0.65575,-2.47946 0.31707,-4.53728 0.75701,-1.60127 0.88354,-2.04677 0.88537,-3.11748 0.002,-0.9113 -0.0964,-1.61498 -0.41657,-2.99139 -0.99063,-4.25915 -1.25015,-8.63262 -0.66355,-11.18215 0.22435,-0.97509 0.63895,-1.70146 0.97116,-1.70146 0.68006,0 1.58686,2.19115 2.15338,5.20339 0.11424,0.60735 0.28486,1.67577 0.37919,2.37427 0.21908,1.62228 0.59629,3.42902 0.7159,3.42894 0.0509,-5e-5 0.37627,-0.0593 0.72307,-0.13162 0.98704,-0.20592 1.60202,-0.057 3.17945,0.76971 1.22101,0.63997 1.73597,0.80131 2.55748,0.80131 1.06614,0 1.84027,-0.37537 3.83485,-1.85949 1.29875,-0.96637 1.99111,-1.31716 2.58826,-1.31132 0.55203,0.005 1.08738,0.31111 1.5783,0.90133 0.73383,0.8823 0.77752,0.91481 1.22902,0.91481 0.58914,0 0.96594,-0.26868 2.58383,-1.84247 1.82646,-1.77667 2.67129,-2.36636 3.86613,-2.69856 l 0.51579,-0.1434 7e-5,-0.98096 c 0,-3.10929 0.6011,-5.34128 1.43792,-5.34128 0.27475,0 0.74912,0.47278 1.05253,1.04899 0.51984,0.98728 1.04509,3.0583 1.39811,5.51268 0.1765,1.22703 0.52095,5.02291 0.68379,7.53533 0.2196,3.38825 0.5544,4.60132 1.62758,5.89714 0.39761,0.4801 0.68877,1.13463 0.88437,1.98802 0.13454,0.58701 0.15362,1.12898 0.16058,4.56084 0.008,4.05836 0.0551,4.75237 0.38811,5.74947 0.25921,0.77613 0.63329,1.27759 1.28042,1.71645 1.10547,0.74969 1.39095,1.29719 1.50319,2.88281 0.11085,1.56595 0.15332,1.8685 0.34428,2.45206 0.35689,1.09067 1.10609,1.95756 2.09794,2.42751 0.51783,0.24535 0.62888,0.2657 1.44978,0.2657 0.74795,0 0.95617,-0.0309 1.31233,-0.19445 1.3436,-0.61717 2.00818,-1.67149 2.41407,-3.8298 0.10044,-0.5341 0.27649,-1.18063 0.39121,-1.43675 0.26383,-0.58896 0.88567,-1.2282 1.82277,-1.87375 1.1177,-0.76995 1.50575,-1.42604 1.6819,-2.84359 0.0984,-0.79216 0.0756,-1.20694 -0.18542,-3.36832 -0.21134,-1.74997 -0.187,-2.80006 0.0767,-3.30778 0.23592,-0.45428 0.72933,-0.89034 1.32036,-1.16689 0.2637,-0.12338 0.69296,-0.32422 0.95391,-0.44631 0.59663,-0.27913 1.00772,-0.63735 1.24212,-1.08234 0.19899,-0.37779 0.21405,-0.68918 0.14163,-2.92902 -0.0592,-1.83113 0.19521,-2.41919 1.7696,-4.09029 1.44586,-1.5347 2.30854,-2.94876 2.60104,-4.26345 0.20107,-0.90376 0.13228,-2.30903 -0.15267,-3.11859 -0.11472,-0.32597 -0.27622,-0.9346 -0.35886,-1.35252 -0.28084,-1.42014 -0.0802,-2.17506 1.11831,-4.20655 1.76792,-2.99678 2.64989,-5.26578 3.1584,-8.12547 0.23474,-1.32006 0.32097,-4.22674 0.16971,-5.72048 -0.13393,-1.32261 -0.44055,-3.09686 -0.81142,-4.6953 -0.35311,-1.52194 -0.39277,-1.95585 -0.1967,-2.15193 0.1282,-0.1282 0.16118,-0.12772 0.44409,0.007 0.40555,0.19244 1.15001,1.00731 1.57716,1.72631 0.92972,1.56496 1.80691,4.41461 2.12664,6.90874 0.16045,1.25146 0.13757,4.17914 -0.0423,5.40968 -0.30368,2.07801 -0.97026,4.10467 -1.82338,5.54374 -0.14827,0.25012 -0.25623,0.46812 -0.2399,0.48445 0.0735,0.0735 0.92312,-0.59235 1.48527,-1.16405 1.89678,-1.92903 3.32041,-4.84429 3.56999,-7.31049 0.0916,-0.90493 0.0161,-1.64279 -0.28481,-2.7821 -0.28942,-1.09602 -0.27893,-1.40855 0.0836,-2.49087 0.25195,-0.75215 0.31175,-1.06933 0.34896,-1.85096 0.0508,-1.06749 -0.0637,-1.90946 -0.33122,-2.43473 -0.0973,-0.19104 -0.50585,-0.69516 -0.90793,-1.12027 -0.84855,-0.89718 -1.13216,-1.41493 -1.36059,-2.4839 -0.277,-1.29621 -0.54254,-1.63391 -2.03261,-2.58503 -1.43519,-0.9161 -1.70258,-1.22978 -2.20133,-2.58247 -0.71,-1.92562 -0.84758,-2.0219 -3.61664,-2.53108 -0.75514,-0.13886 -1.54513,-0.32862 -1.75553,-0.42169 -0.55391,-0.24502 -1.13098,-0.8697 -1.65225,-1.78857 -1.11444,-1.96447 -1.62265,-2.45845 -3.00766,-2.92338 -0.89964,-0.302 -1.93621,-0.35582 -3.24843,-0.16869 -1.58067,0.22543 -2.00684,0.10491 -3.10034,-0.87677 -2.21698,-1.99028 -4.58105,-2.74857 -7.31229,-2.34544 -1.41507,0.20885 -1.95026,0.10415 -3.87486,-0.75799 -1.51419,-0.67829 -2.097,-0.86903 -2.95032,-0.96551 -1.28516,-0.14531 -2.37028,0.0738 -3.89868,0.78734 -0.90029,0.42028 -0.95533,0.43452 -1.651,0.42724 -0.53565,-0.006 -1.01194,-0.0845 -1.86267,-0.30863 -1.61416,-0.42519 -2.30276,-0.52015 -3.3673,-0.46438 -1.06073,0.0556 -1.50989,0.1788 -2.75673,0.75636 -1.20495,0.55815 -1.6788,0.59367 -3.87344,0.29034 -2.89367,-0.39995 -4.19643,-0.38298 -6.21002,0.0809 -1.52353,0.35099 -1.93529,0.18836 -2.98548,-1.1792 -0.82038,-1.06828 -1.28727,-1.51089 -1.97189,-1.8693 -0.74379,-0.38939 -1.27925,-0.52986 -2.59367,-0.68046 -0.61061,-0.07 -1.41071,-0.2225 -1.778,-0.33898 -2.10984,-0.66914 -3.56044,-2.40459 -4.304,-5.14914 -0.32702,-1.20708 -0.43953,-1.81682 -0.80412,-4.35806 -0.39358,-2.74324 -0.50887,-3.33108 -0.85818,-4.37541 -0.48026,-1.43586 -0.94504,-2.08985 -2.26703,-3.18998 -0.9194,-0.76511 -1.44507,-1.35043 -1.77624,-1.97786 -0.24504,-0.46425 -0.25969,-0.75509 -0.19421,-3.85635 0.0298,-1.41204 -0.12515,-2.01176 -0.71525,-2.76787 -0.71463,-0.91567 -1.05291,-1.49237 -1.26009,-2.14821 -0.20405,-0.64594 -0.2543,-0.94818 -0.68187,-4.10092 -1.15524,-8.518324 -2.93671,-14.520754 -5.21611,-17.575004 -1.14094,-1.52879 -2.67496,-2.90775 -3.80748,-3.42261 l -0.55809,-0.25373 0.0398,-1.18533 c 0.0643,-1.91603 -0.20953,-3.44437 -0.86673,-4.83696 -0.42829,-0.9075 -0.92897,-1.47069 -1.30747,-1.47069 -0.31997,0 -0.3595,0.11154 -0.41148,1.16086 l -0.0428,0.86453 -0.51923,-1.03386 c -1.70798,-3.40087 -4.1221,-5.61402 -6.80599,-6.23941 -0.52931,-0.12333 -0.9541,-0.0617 -1.16258,0.16866 -0.58177,0.64284 1.18181,5.40331 3.32449,8.97389 0.53097,0.88482 0.98255,1.5518 2.12637,3.14064 0.1099,0.15266 0.0934,0.16136 -0.30641,0.16136 -0.62794,0 -1.82828,0.22949 -2.66289,0.50911 -2.52306,0.8453 -4.46233,2.46178 -4.61881,3.85001 -0.0361,0.32026 -0.0183,0.37167 0.14663,0.42402 0.2732,0.0867 0.81146,-0.0132 2.06599,-0.38362 2.83266,-0.83631 3.79239,-0.88567 4.09984,-0.21089 0.16406,0.36007 0.12647,0.50045 -0.40684,1.51952 -0.39419,0.75321 -0.50772,1.05242 -0.50671,1.33544 8.5e-4,0.20061 0.0293,0.40666 0.0635,0.4579 0.25959,0.38877 1.19426,0.40075 2.94465,0.0378 2.71836,-0.56374 3.25589,-0.51421 3.25589,0.30003 0,0.38241 -0.37203,0.7534 -1.52344,1.51923 -1.28589,0.85526 -1.52456,1.10101 -1.52456,1.56975 0,0.47496 0.39765,0.8776 1.36876,1.38596 1.53653,0.80434 1.83971,1.13105 1.57149,1.69351 -0.22871,0.4796 -0.68256,0.63053 -2.28077,0.75847 -0.76322,0.0611 -1.46889,0.15456 -1.56818,0.20769 -0.25157,0.13464 -0.30831,0.38261 -0.15527,0.67855 0.16238,0.314 0.36567,0.45769 1.5277,1.07973 1.65424,0.88552 2.07316,1.49121 1.45732,2.107054 -0.33701,0.33702 -0.61415,0.41687 -2.04805,0.59009 -2.14793,0.25948 -3.13777,0.67162 -3.42336,1.42538 -0.26121,0.68939 0.0168,1.30923 0.83934,1.87123 1.01769,0.69536 1.35635,1.20589 1.35635,2.04469 0,0.48778 -0.01,0.5159 -1.36246,4.01607 -0.51367,1.32891 -0.62432,1.82507 -0.50546,2.26646 0.0996,0.36984 0.34084,0.52754 0.80707,0.52754 0.39625,0 0.80685,0.35303 0.80685,0.69373 0,0.35053 -0.33057,0.97808 -0.89565,1.70028 -0.53504,0.68379 -0.73638,1.04326 -0.87712,1.56588 -0.14264,0.52976 -0.036,0.89573 0.48071,1.65026 0.71118,1.03845 0.86692,1.43011 0.8679,2.18256 8.5e-4,0.35111 -0.0562,0.86546 -0.12588,1.143 -0.0697,0.27754 -0.62145,1.49522 -1.22614,2.70595 -0.60468,1.21074 -1.16452,2.44899 -1.24408,2.75167 -0.22014,0.83752 -0.19916,2.0175 0.0488,2.74295 0.17488,0.51165 0.29705,0.6858 0.98688,1.40667 0.60815,0.63552 0.80076,0.89453 0.8465,1.1383 0.1215,0.64769 -0.0846,1.45713 -0.75532,2.96708 -0.43573,0.98086 -0.58924,1.65671 -0.54233,2.38769 0.0501,0.78104 0.30352,1.19876 0.91519,1.50871 0.58031,0.29407 1.06743,0.75205 1.18779,1.11676 0.23586,0.71467 0.001,1.63159 -1.04673,4.08851 -1.35741,3.18277 -1.49483,4.20467 -0.77118,5.73505 0.2611,0.55217 0.31728,0.77292 0.35125,1.38041 0.0353,0.63115 0.002,0.87807 -0.26538,1.94115 -0.25656,1.02174 -0.30584,1.36425 -0.30584,2.12545 0,1.55759 0.37585,2.38162 1.41782,3.10847 0.74398,0.51897 1.27503,1.06273 1.48791,1.52354 0.20181,0.43686 0.2033,0.48637 0.14385,4.80226 -0.0574,4.16375 0.54795,5.67726 3.55544,8.89 1.34051,1.43199 1.78001,2.01839 2.28448,3.048 0.4029,0.82232 0.64329,1.56754 1.00761,3.12357 0.26334,1.12476 0.47285,1.42594 1.25858,1.80928 0.54684,0.26678 0.68911,0.38186 0.906,0.73281 l 0.25731,0.41632 0.0489,1.65801 c 0.0524,1.77713 0.12498,2.13247 0.54904,2.68845 0.3634,0.47642 0.71971,0.77558 1.77273,1.48835 1.40234,0.94922 2.34882,1.90985 2.81547,2.85754 0.39303,0.79819 0.68318,1.89139 0.70785,2.667 0.009,0.2794 -0.0131,1.1938 -0.0488,2.032 -0.0941,2.20759 0.0446,2.70771 1.20179,4.33279 1.10716,1.55482 1.11716,1.59342 0.99525,3.84319 -0.0866,1.59912 0.0194,1.95782 0.78636,2.65925 1.76207,1.61157 2.19508,2.18655 2.40681,3.19597 0.087,0.41477 0.0786,0.57014 -0.0618,1.14082 -0.24234,0.98514 -0.22753,2.27061 0.0345,2.99671 0.38133,1.05658 1.10385,1.78581 2.08458,2.10397 0.58943,0.1912 1.80813,0.2293 2.51467,0.0786 z m 43.79397,-24.1514 c -0.62535,-0.27705 -1.37892,-1.43633 -1.85012,-2.84623 -0.514,-1.53794 -0.69374,-3.17269 -0.46573,-4.23584 0.12359,-0.57634 0.50036,-1.01349 0.87348,-1.01349 0.66567,0 1.22049,1.15699 1.95087,4.06829 0.42667,1.70068 0.61377,2.91674 0.52276,3.3975 -0.11237,0.59354 -0.5331,0.85047 -1.03126,0.62977 z m -56.0453,-11.13417 c -0.53437,-0.30675 -1.66343,-1.47785 -2.21998,-2.30262 -1.26748,-1.87832 -2.1432,-4.39835 -2.1618,-6.2209 -0.018,-1.76035 0.7205,-1.96833 1.79581,-0.50575 0.99941,1.35933 2.79009,4.96693 3.46852,6.98788 0.65499,1.95109 0.31799,2.73057 -0.88255,2.04139 z M 164.952,179.7125 c -0.62894,-0.56821 -1.21831,-1.55633 -3.41855,-5.73141 -2.20084,-4.17623 -2.6483,-5.41646 -2.06647,-5.72784 0.28635,-0.15325 1.14175,0.32245 1.88402,1.04772 1.73493,1.69523 3.49338,4.72632 4.22364,7.28044 0.23967,0.83823 0.27126,1.07166 0.27314,2.01813 0.002,0.93534 -0.0182,1.09276 -0.15917,1.24883 -0.2231,0.24702 -0.3358,0.22624 -0.73661,-0.13587 z M 99.88498,162.0752 c -0.96981,-0.62139 -2.40726,-4.01498 -3.03059,-7.15473 -0.53284,-2.68396 -0.42384,-4.40801 0.28531,-4.51282 0.3642,-0.0538 1.02886,0.76703 1.64677,2.03374 1.1476,2.35259 1.94306,5.33143 2.05322,7.68889 0.0536,1.14697 -0.0303,1.66753 -0.31458,1.9518 -0.20619,0.20619 -0.30933,0.20509 -0.64013,-0.007 z m 76.86968,-11.21952 c -0.60771,-0.16265 -1.83153,-0.78995 -3.90056,-1.99933 -3.01645,-1.76316 -3.65783,-2.26932 -3.6593,-2.88781 0,-0.17237 0.072,-0.27983 0.2746,-0.40763 0.24339,-0.15351 0.37784,-0.16954 1.16417,-0.13876 0.70996,0.0278 1.04592,0.088 1.66818,0.29885 1.66394,0.56388 3.05189,1.41628 4.21854,2.59077 0.83225,0.83783 1.24265,1.49338 1.25611,2.00638 0.0145,0.55215 -0.31651,0.72627 -1.02174,0.53753 z m -14.02694,-0.51605 c -1.66352,-0.35673 -3.10082,-1.27757 -3.10082,-1.98662 0,-0.36112 0.38918,-0.70799 0.94356,-0.84099 0.60375,-0.14484 2.06322,-0.0572 2.86644,0.17223 2.46969,0.70526 3.46908,2.17507 1.81702,2.67227 -0.51534,0.15509 -1.76312,0.14675 -2.5262,-0.0169 z M 99.71489,147.0609 c -1.21504,-1.24528 -1.99317,-3.67551 -2.00981,-6.27695 -0.008,-1.30396 0.0884,-1.80125 0.41352,-2.1264 0.27672,-0.27672 0.56764,-0.25407 0.94077,0.0732 1.17608,1.03166 2.05057,3.96691 2.0742,6.96217 0.009,1.10174 -0.0535,1.49042 -0.27668,1.73001 -0.2941,0.31567 -0.56432,0.23001 -1.142,-0.36206 z m 57.45668,-3.06884 c -1.85474,-0.1624 -3.72505,-0.53408 -4.38713,-0.87185 -0.77658,-0.39618 -0.87988,-0.76599 -0.34246,-1.226 1.52862,-1.30845 6.04462,-0.95893 7.78099,0.60221 0.69056,0.62088 0.62299,1.08784 -0.19366,1.33814 -0.44265,0.13567 -2.07778,0.22579 -2.85774,0.1575 z m -53.42618,-6.07689 c -0.8426,-0.57669 -1.62253,-2.54033 -1.85764,-4.67699 -0.21638,-1.96641 0.38417,-3.49528 1.18675,-3.02118 0.99088,0.58533 1.87558,3.28849 1.89278,5.78328 0.008,1.12612 -0.0871,1.58414 -0.3989,1.92617 -0.22261,0.24419 -0.45436,0.24101 -0.82299,-0.0113 z m -6.91805,-5.76077 c -0.33357,-0.28068 -0.76097,-1.1905 -1.01535,-2.16142 -0.28465,-1.08648 -0.36448,-3.16438 -0.16255,-4.23094 0.23181,-1.22434 0.72372,-1.93086 1.19488,-1.71619 0.61079,0.2783 1.05126,1.88206 1.22939,4.47624 0.0829,1.20754 0.0131,2.53344 -0.1666,3.16474 -0.18494,0.64966 -0.63286,0.84362 -1.07977,0.46757 z m 1.49919,-13.50235 c -0.85296,-0.89666 -1.44739,-3.75198 -1.1915,-5.72344 0.29636,-2.28322 1.14777,-3.02347 1.85025,-1.60866 0.77642,1.56374 1.03916,5.77168 0.44493,7.12593 -0.2736,0.62353 -0.6413,0.69222 -1.10368,0.20617 z M 87.66998,92.662916 c 0.74392,-0.57976 1.38133,-0.61277 2.75363,-0.14262 1.30903,0.44847 1.66382,0.33057 1.29539,-0.4305 -0.22285,-0.46034 -0.82555,-1.0034 -1.4341,-1.2922 -0.38846,-0.18435 -0.58498,-0.22099 -1.18533,-0.22099 -0.64851,0 -0.76571,0.026 -1.18534,0.26279 -0.78845,0.44495 -1.21468,1.28404 -0.89785,1.76757 0.16595,0.25328 0.3772,0.27136 0.6536,0.0559 z M -226.02977,196.96028 v -33.44333 h 8.93219 8.9322 l 0.0213,25.2095 0.0213,25.2095 17.03917,0.0214 17.03916,0.0214 v 8.21245 8.21247 h -25.99266 -25.99267 z m 56.47267,-1.43933 v -34.88267 h 9.144 9.144 v 34.88267 34.88267 h -9.144 -9.144 z m 83.142667,9.56733 v -25.31533 h 8.636 8.636 v 2.18722 c 0,1.20298 0.0249,2.2121 0.0553,2.24251 0.0304,0.0304 0.47975,-0.35377 0.99854,-0.85372 0.51879,-0.49996 1.25271,-1.12957 1.63095,-1.39914 2.6724,-1.90465 5.99675,-3.08801 9.79566,-3.48695 1.3965,-0.14666 4.41609,-0.16964 5.63824,-0.0429 5.151838,0.53419 9.436674,2.44943 12.729276,5.68975 l 0.922392,0.90774 0.603665,-0.55523 c 3.409027,-3.13553 7.998266,-5.18142 13.303665,-5.93079 1.688584,-0.23851 6.135446,-0.2177 7.808172,0.0365 3.110543,0.47278 5.608794,1.24639 8.1825851,2.53386 6.006338,3.0045 10.096601,8.20729 11.352919,14.44083 0.384903,1.90979 0.384658,1.89783 0.384658,18.83728 v 16.02369 h -8.930496 -8.9304961 l -0.023,-14.7955 -0.023,-14.7955 -0.23291,-0.84667 c -0.441723,-1.60571 -1.162194,-2.83845 -2.278854,-3.89917 -1.464098,-1.39075 -3.289038,-2.16362 -5.693969,-2.41143 -2.55463,-0.26323 -5.130681,0.31956 -7.076601,1.60098 -0.755176,0.4973 -1.757942,1.51569 -2.294712,2.33048 -0.562881,0.85441 -0.946176,1.77361 -1.203892,2.88714 -0.174448,0.75375 -0.176666,0.9199 -0.204716,15.34583 l -0.02836,14.58384 h -8.418876 -8.418864 l -0.02653,-14.6685 c -0.02629,-14.53343 -0.02816,-14.67552 -0.203539,-15.4305 -0.382937,-1.64853 -1.022707,-2.88407 -2.050807,-3.96057 -1.78325,-1.86719 -4.02293,-2.72196 -7.12171,-2.71797 -2.00868,0.003 -3.45913,0.31946 -4.99533,1.09132 -2.22817,1.11955 -3.70024,2.93994 -4.38117,5.41788 l -0.23267,0.84667 -0.0235,14.71083 -0.0235,14.71084 h -8.93025 -8.93027 z m 70.993001,-29.63667 c -7.495473,-0.75148 -13.596646,-4.16912 -17.753805,-9.94499 -2.579133,-3.58341 -4.108534,-7.72054 -4.74185,-12.827 -0.170137,-1.37185 -0.142748,-5.50533 0.04629,-6.985 0.444407,-3.47869 1.252778,-6.21592 2.687929,-9.10167 2.885703,-5.80245 7.652225,-9.9888 13.707771,-12.03929 2.999604,-1.0157 5.589583,-1.39051 9.077596,-1.31365 2.5720041,0.0567 4.0927951,0.28743 6.3064901,0.95689 2.675966,0.80926 5.43358504,2.26571 7.260793,3.83483 0.32407,0.27829 0.619345,0.48737 0.656167,0.46461 0.03682,-0.0228 0.06695,-1.02973 0.06695,-2.23772 v -2.19634 h 8.8476669 8.847667 v 25.31534 25.31533 H 10.740568 1.8929011 v -2.58233 c 0,-2.83137 -0.0057,-2.8587 -0.465666,-2.23259 -0.1397,0.19016 -0.56743596,0.64323 -0.95053596,1.00682 -2.39249404,2.27066 -5.77014404,3.78638 -9.81323104,4.40369 -1.3369381,0.20413 -4.7602821,0.29587 -6.0849001,0.16307 z m 8.9323331,-15.87129 c 3.321245,-0.62829 5.80238504,-2.34605 7.01724104,-4.85821 0.61816896,-1.27831 0.64509296,-1.51372 0.64509296,-5.64083 0,-3.19786 -0.01838,-3.71895 -0.151147,-4.28427 -0.50120196,-2.1342 -2.078652,-3.96685 -4.420853,-5.13608 -1.612452,-0.80493 -3.233802,-1.1523 -5.376334,-1.15185 -3.5002051,8.4e-4 -6.1602201,0.99874 -8.1308531,3.05063 -1.123976,1.17032 -1.722908,2.17624 -2.236149,3.75566 -0.440419,1.35531 -0.585097,2.53695 -0.528455,4.31625 0.06564,2.06246 0.345575,3.21831 1.168789,4.826 1.526642,2.98143 4.309212,4.76071 8.202668,5.2451 0.8732181,0.10864 2.9396441,0.0422 3.8100001,-0.1224 z m -79.9253341,-18.3307 v -33.44334 h 26.58533 26.585337 v 7.95867 7.95867 h -17.864667 -17.86467 v 6.985 6.985 h 13.97 13.970004 v 7.66233 7.66233 h -13.970004 -13.97 v 10.83734 10.83733 h -8.72066 -8.72067 z m 137.329334,33.38561 c -2.37924,-0.13483 -4.86688,-0.57832 -6.77835,-1.20844 -2.55979,-0.84383 -4.37318,-1.92141 -6.055651,-3.59846 -2.657086,-2.64852 -4.077403,-6.1063 -4.52264,-11.01038 -0.05046,-0.55583 -0.08458,-4.8997 -0.08462,-10.77383 l -6.8e-5,-9.8425 h -5.334 -5.334 v -7.06903 -7.06903 l 5.312834,-0.0218 5.312833,-0.0218 0.02168,-6.6675 0.02167,-6.6675 h 9.142976 9.142976 l 0.0217,6.6675 0.0217,6.6675 6.5405,0.0217 6.5405,0.0217 v 7.06914 7.06915 h -6.56512 -6.56511 l 0.029,8.4455 c 0.0261,7.61394 0.0431,8.49786 0.17242,8.97733 0.36221,1.34286 1.10904,2.13026 2.45437,2.5877 0.50794,0.17271 0.69815,0.17984 5.5003,0.20622 l 4.97417,0.0273 v 8.12364 8.12363 l -6.75217,-0.0157 c -3.71369,-0.009 -6.96171,-0.0275 -7.21783,-0.0421 z"
       style="fill:#000000;stroke-width:0.08466667" />
  </g>
</svg>
