<svg width="2100" height="500" viewBox="0 0 2100 500" fill="none" xmlns="http://www.w3.org/2000/svg">
<path d="M219.275 59.9238C100.191 59.9238 4.771 157.252 4.771 275.954C4.771 395.802 100.573 491.985 219.275 491.985C337.977 491.985 433.779 394.657 433.779 275.954V59.9238H219.275Z" fill="black"/>
<path d="M141.031 280.916C123.092 262.977 118.893 235.496 129.58 214.122L141.031 225.573C142.557 218.702 146.756 213.359 152.099 208.397C157.061 203.435 163.168 199.237 169.275 197.328L157.825 185.115C179.199 174.046 206.679 178.244 224.618 196.565C247.901 219.847 247.901 257.634 224.618 280.534C201.336 303.435 163.168 303.817 141.031 280.916ZM237.977 182.824C206.298 151.145 156.298 151.145 125.763 182.824C94.0841 214.504 94.0841 265.267 125.763 296.565C154.771 325.573 200.954 328.244 232.252 302.29L255.534 326.336C252.099 333.206 252.863 341.221 258.97 346.183L302.863 390.076C309.733 396.947 320.038 396.947 326.908 390.076L331.87 385.115C338.741 378.244 338.741 367.939 331.87 361.069L287.595 317.176C282.634 312.214 274.618 310.305 267.748 313.74L244.466 289.695C269.657 257.634 266.985 211.45 237.977 182.824V182.824Z" fill="white"/>
<path d="M875.382 267.939C875.382 226.718 873.855 191.985 872.71 162.595H960.878L965.84 208.015H967.366C980.344 187.405 1014.31 154.962 1067.75 154.962C1134.54 154.962 1184.92 199.618 1184.92 296.947V492.366H1083.78V309.924C1083.78 267.939 1068.89 238.168 1032.63 238.168C1004.39 238.168 987.977 258.015 981.489 276.718C978.817 282.443 977.29 293.13 977.29 302.29V491.985H876.145V267.939H875.382V267.939ZM1440.65 302.29C1440.65 296.565 1439.89 289.313 1439.12 284.351C1433.4 256.107 1410.88 233.97 1379.96 233.97C1333.78 233.97 1309.73 275.954 1309.73 328.244C1309.73 383.97 1337.21 419.084 1379.2 419.084C1408.97 419.084 1432.25 398.473 1437.6 369.466C1439.12 361.832 1440.27 354.58 1440.27 345.42L1440.65 302.29V302.29ZM1542.18 13.3588V393.512C1542.18 430.534 1543.7 469.466 1544.85 491.985H1454.01L1449.05 443.13H1447.52C1426.91 480.153 1387.6 498.855 1345.23 498.855C1267.75 498.855 1205.53 432.061 1205.53 329.771C1204.77 218.321 1273.85 154.199 1352.1 154.199C1392.56 154.199 1423.85 167.939 1438.74 191.221H1440.27V13.3588H1542.18V13.3588ZM1778.44 290.076C1778.44 265.267 1767.37 223.283 1720.8 223.283C1678.05 223.283 1660.88 261.832 1658.21 290.076H1778.44ZM1659.35 360.305C1662.79 402.29 1704.01 422.901 1751.72 422.901C1786.07 422.901 1814.31 417.939 1841.79 409.924L1854.77 479.389C1821.95 492.366 1780.34 500 1736.83 500C1625.38 500 1562.02 434.733 1562.02 332.061C1562.02 248.855 1613.17 156.489 1726.91 156.489C1832.25 156.489 1872.71 239.695 1872.71 321.374C1872.71 338.55 1871.18 354.199 1869.27 361.832H1658.97L1659.35 360.305V360.305ZM1894.85 270.992C1894.85 222.137 1893.32 191.221 1892.18 162.214H1979.58L1983.02 223.283H1985.69C2002.1 175.191 2042.56 154.962 2073.85 154.962C2083.02 154.962 2087.6 154.962 2095.23 156.489V253.054C2087.6 251.527 2079.58 250.382 2067.75 250.382C2030.73 250.382 2005.15 270.229 1998.28 302.29C1996.76 309.16 1996.76 317.176 1996.76 325.573V493.13H1895.61V270.992H1894.85ZM733.015 162.977H834.16V492.748H733.015V162.977ZM636.45 151.527C636.45 115.267 654.389 88.168 708.206 87.4046C704.771 79.0077 703.244 70.2291 703.244 59.9237C703.244 39.313 710.878 21.3741 723.092 6.87029C717.366 6.10693 711.641 6.10693 705.916 6.10693C605.534 6.10693 534.542 57.252 534.542 148.092V161.832H491.794V237.786H534.542V491.603H636.832V237.786H691.412V162.214H636.45V151.527Z" fill="black"/>
<path d="M843.702 59.9237C843.702 93.5115 817.366 119.847 783.779 119.847C750.954 119.847 723.855 92.3664 723.855 59.9237C723.855 27.4809 750.191 0 783.779 0C817.366 0 843.702 27.0992 843.702 59.9237V59.9237Z" fill="black"/>
</svg>
