<svg width="61" height="62" viewBox="0 0 61 62" fill="none" xmlns="http://www.w3.org/2000/svg">
<path d="M57.8267 18.4644C55.6533 15.282 52.9366 13.652 50.6857 13.2639H50.1423C49.1866 13.1864 48.2261 13.1864 47.2704 13.2639C44.3985 13.4191 37.1798 15.4373 37.1798 27.6235C37.1798 27.6235 31.436 27.7788 26.1578 27.6235C25.3816 27.6235 17.542 27.7012 17.542 33.3674C17.5749 34.8975 17.4971 36.4281 17.3092 37.947C17.2958 38.3392 17.2438 38.7292 17.1539 39.1113C17.0922 39.2023 17.0647 39.3123 17.0763 39.4217C16.9987 39.4994 16.9987 39.4994 16.9987 39.577C16.8653 40.0102 16.683 40.4269 16.4554 40.8189V40.8189C16.3778 40.8965 16.3001 40.9741 16.3001 41.0517C16.3001 41.1294 16.2225 41.1294 16.2225 41.207C15.6689 41.8248 14.9776 42.3035 14.2044 42.6041H13.8163C13.1793 42.7423 12.5267 42.7945 11.8758 42.7594V42.7594C7.99483 42.4489 5.43338 39.1113 5.43338 30.9612C5.43338 16.6792 17.4644 5.89004 31.0479 5.89004C39.2756 5.89004 45.2523 9.84864 47.2704 11.8668C50.2199 11.8668 53.2471 12.4101 55.5757 14.4282C54.1785 12.022 51.229 9.15006 50.9185 8.76197C45.4318 3.78876 38.2978 1.02363 30.8926 1C13.8939 1.07762 0 15.282 0 30.9612C0 34.5317 0.931437 40.3532 3.10479 43.6132C5.27814 46.8732 7.99483 48.348 10.2458 48.8137C10.401 48.8137 10.7115 48.8137 10.7115 48.8913C11.6932 48.969 12.6794 48.969 13.6611 48.8913H14.282C15.1401 48.7833 15.9773 48.5479 16.7659 48.1928C20.5692 46.4851 22.1216 43.3027 22.7426 39.577C23.3899 36.9079 23.7285 34.1733 23.7516 31.4269L37.1022 31.1164C38.2563 31.2066 39.4162 31.0451 40.5017 30.643C41.5872 30.241 42.5725 29.608 43.3894 28.7878C43.3894 25.5278 43.3118 23.1992 44.4761 21.3364C44.5693 21.1894 44.6473 21.0334 44.7089 20.8706C45.2625 20.2528 45.9539 19.7741 46.727 19.4735H47.1151C47.72 19.3005 48.3529 19.2477 48.978 19.3182V19.3182C52.9366 19.6287 55.4981 22.9664 55.4981 31.1164C55.4981 45.3984 43.3894 56.1876 29.8836 56.1876C21.6559 56.1876 15.6792 52.229 13.6611 50.2109C10.7115 50.2109 7.68435 49.6675 5.35576 47.6494C6.70148 49.6516 8.26326 51.4997 10.0129 53.1604C15.4719 58.1876 22.6177 60.985 30.0388 61C47.0375 61 60.9314 46.7956 60.9314 31.1164C60.9314 27.5459 60 21.7245 57.8267 18.4644Z" fill="#000"/>
<path d="M49.987 13.2639C48.5173 13.0585 47.0244 13.0847 45.5627 13.3415C44.6108 13.5749 43.6963 13.9407 42.846 14.4282C41.2447 15.3465 39.9285 16.6896 39.0427 18.3092C37.6896 21.0583 37.0237 24.0947 37.1022 27.1578H23.8292V13.1086C23.8292 13.1086 17.542 15.3596 17.542 20.7154V37.2484C17.542 41.9832 15.912 48.8137 10.401 48.8137L11.9534 48.9689C13.0732 48.9708 14.1908 48.8668 15.291 48.6584C16.242 48.46 17.1578 48.1198 18.0077 47.6494C20.2097 46.3125 21.8823 44.256 22.7425 41.8279C23.5317 39.212 23.8985 36.4869 23.8292 33.7555V32.7464H37.1022V48.9689C37.1022 48.9689 43.3894 46.718 43.3894 41.3622V23.8202C43.5446 19.2406 45.1746 13.3415 50.3751 13.3415L49.987 13.2639Z" fill="#000"/>
</svg>
