<?xml version="1.0" encoding="UTF-8" standalone="no"?>
<svg
   xmlns:ns="http://ns.adobe.com/SaveForWeb/1.0/"
   xmlns:dc="http://purl.org/dc/elements/1.1/"
   xmlns:cc="http://creativecommons.org/ns#"
   xmlns:rdf="http://www.w3.org/1999/02/22-rdf-syntax-ns#"
   xmlns:svg="http://www.w3.org/2000/svg"
   xmlns="http://www.w3.org/2000/svg"
   xml:space="preserve"
   id="svg2"
   viewBox="0 0 437.08698 153.96"
   height="153.96001"
   width="437.08701"
   version="1.1"><defs
   id="defs103" />
<metadata
   id="metadata3">
	<ns:sfw>
		<ns:slices />
		<ns:sliceSourceBounds
   y="259.233"
   x="11.72"
   width="571.388"
   height="324.112"
   bottomLeftOrigin="true" />
	</ns:sfw>
<rdf:RDF><cc:Work
     rdf:about=""><dc:format>image/svg+xml</dc:format><dc:type
       rdf:resource="http://purl.org/dc/dcmitype/StillImage" /><dc:title></dc:title></cc:Work></rdf:RDF></metadata>

<g
   style="fill:#000000"
   id="g7"
   transform="translate(-77.788,-326.274)">
	<path
   style="fill:#000000"
   id="path9"
   d="m 220.102,402.234 c -15.887,0 -22.515,-9.153 -24.724,-22.936 l 16.939,-3.998 c 1.578,7.575 3.051,11.678 8.101,11.678 4.313,0 6.312,-3.156 6.312,-9.364 v -50.185 h 17.78 v 48.396 c 0,16.941 -7.89,26.409 -24.408,26.409 z" />
	<path
   style="fill:#000000"
   id="path11"
   d="m 273.876,402.234 c -16.518,0 -26.197,-11.889 -26.197,-37.875 0,-25.986 9.89,-38.085 26.408,-38.085 16.518,0 26.303,11.994 26.303,37.875 0,25.986 -9.89,38.085 -26.514,38.085 z m 0.105,-60.811 c -5.576,0 -8.206,4.945 -8.206,22.725 0,17.781 2.84,22.936 8.312,22.936 5.471,0 8.206,-4.945 8.206,-22.726 0,-17.779 -2.84,-22.935 -8.312,-22.935 z" />
	<path
   style="fill:#000000"
   id="path13"
   d="m 329.825,402.234 c -17.254,0 -25.986,-13.151 -25.986,-37.875 0,-25.565 9.784,-38.085 26.197,-38.085 15.466,0 20.831,8.837 23.672,22.936 l -17.044,4.629 c -1.263,-8.207 -2.42,-12.415 -6.733,-12.415 -5.682,0 -7.891,5.997 -7.891,22.725 0,16.939 2.209,22.936 8.102,22.936 4.103,0 5.471,-2.946 7.47,-11.994 l 17.222,5.875 c -3.263,13.361 -10.385,21.268 -25.009,21.268 z" />
	<path
   style="fill:#000000"
   id="path15"
   d="m 389.896,401.077 v -30.826 h -14.834 v 30.826 h -17.781 v -73.646 h 17.781 v 27.459 h 14.834 v -27.459 h 17.78 v 73.646 z" />
	<path
   style="fill:#000000"
   id="path17"
   d="m 410.828,401.077 v -73.646 h 43.137 v 15.045 h -25.672 v 12.625 h 16.729 v 14.94 h -16.729 v 15.992 h 26.408 v 15.045 h -43.873 z" />
	<path
   style="fill:#000000"
   id="path19"
   d="M 493.835,401.077 482.998,379.93 c -4.103,-7.996 -7.996,-15.992 -9.469,-20.2 0.421,4.208 0.526,13.572 0.526,20.516 v 20.832 h -16.519 v -73.646 h 15.361 l 9.363,16.833 c 4.208,7.575 8.417,16.623 9.784,20.621 -0.421,-3.998 -0.631,-14.204 -0.631,-20.937 v -16.518 h 16.518 v 73.646 z" />
	<path
   style="fill:#000000"
   id="path21"
   d="m 101.986,480.234 c -11.468,0 -18.096,-4.734 -24.198,-12.836 l 11.994,-10.836 c 4.945,5.892 8.943,8.942 12.52,8.942 3.682,0 6.312,-1.894 6.312,-5.892 0,-4.103 -1.157,-6.628 -9.469,-10.311 -14.624,-6.418 -19.99,-11.994 -19.99,-23.566 0,-11.994 8.732,-21.463 22.83,-21.463 11.363,0 17.044,4.103 23.146,11.678 l -12.205,10.942 c -5.05,-5.997 -6.838,-7.891 -11.468,-7.891 -3.367,0 -5.26,2.525 -5.26,5.26 0,3.894 1.894,6.103 9.363,9.364 14.834,6.522 20.306,12.625 20.306,24.935 0.002,13.783 -10.204,21.674 -23.881,21.674 z" />
	<path
   style="fill:#000000"
   id="path23"
   d="m 153.718,480.234 c -17.254,0 -25.987,-13.151 -25.987,-37.875 0,-25.566 9.785,-38.086 26.197,-38.086 15.466,0 20.832,8.837 23.672,22.936 l -17.044,4.629 c -1.262,-8.206 -2.42,-12.415 -6.733,-12.415 -5.681,0 -7.891,5.997 -7.891,22.725 0,16.938 2.209,22.936 8.101,22.936 4.103,0 5.471,-2.945 7.47,-11.993 l 16.308,5.576 c -3.261,13.361 -9.469,21.567 -24.093,21.567 z" />
	<path
   style="fill:#000000"
   id="path25"
   d="M 213.894,479.077 V 448.25 H 199.06 v 30.826 H 181.28 V 405.43 h 17.78 v 27.46 h 14.834 v -27.46 h 17.78 v 73.646 h -17.78 z" />
	<path
   style="fill:#000000"
   id="path27"
   d="M 288.922,479.077 H 272.614 L 270.3,464.558 c -1.789,-11.152 -3.577,-23.462 -3.998,-29.88 -0.421,6.418 -2.104,18.622 -3.998,29.88 l -2.419,14.519 h -16.097 l -12.73,-73.646 h 17.149 l 1.683,13.467 c 1.157,9.153 2.42,21.673 2.946,30.932 0.737,-9.153 2.525,-21.673 3.893,-30.827 l 1.999,-13.572 h 15.255 l 2.104,13.572 c 1.473,9.154 3.156,21.673 3.893,30.827 0.526,-9.259 1.894,-21.673 2.946,-30.932 l 1.578,-13.467 h 17.149 z" />
	<path
   style="fill:#000000"
   id="path29"
   d="M 301.734,479.077 V 405.43 h 43.137 v 15.045 H 319.199 V 433.1 h 16.729 v 14.939 h -16.729 v 15.992 h 26.408 v 15.045 h -43.873 z" />
	<path
   style="fill:#000000"
   id="path31"
   d="M 348.864,479.077 V 405.43 h 17.78 v 73.646 h -17.78 z" />
	<path
   style="fill:#000000"
   id="path33"
   d="M 369.905,479.077 V 465.82 l 16.623,-29.669 c 3.051,-5.471 7.26,-12.835 9.469,-16.307 -3.893,0.105 -9.995,0.21 -15.045,0.21 h -11.11 V 405.43 h 45.619 v 13.256 l -16.623,29.564 c -3.156,5.681 -7.26,12.94 -9.469,16.412 3.998,-0.104 9.89,-0.21 14.939,-0.21 h 11.258 v 14.624 h -45.661 z" />
	<path
   style="fill:#000000"
   id="path35"
   d="M 418.718,479.077 V 405.43 H 462.1 v 15.045 H 436.183 V 433.1 h 16.974 v 14.939 h -16.974 v 15.992 h 26.408 v 15.045 h -43.873 z" />
	<path
   style="fill:#000000"
   id="path37"
   d="m 496.148,479.077 -8.627,-28.196 h -4.734 v 28.196 H 465.532 V 405.43 h 25.461 c 13.257,0 22.831,5.997 22.831,22.409 0,9.574 -3.683,15.782 -9.68,19.358 l 10.731,31.879 h -18.727 z m -6.418,-59.654 h -6.943 v 17.991 h 6.628 c 5.05,0 6.944,-2.945 6.944,-9.048 0,-6.103 -1.789,-8.943 -6.629,-8.943 z" />
</g>

</svg>