<svg width="1096" height="742" viewBox="0 0 1096 742" fill="none" xmlns="http://www.w3.org/2000/svg">
<rect x="63" y="136" width="970" height="470" stroke="black" stroke-width="30"/>
<rect x="3.39414" y="260.696" width="995" height="495" rx="37.5" transform="rotate(-15 3.39414 260.696)" fill="black" stroke="white" stroke-width="5"/>
<path d="M357.618 316.415L411.97 519.259L355.753 534.322L253.981 462.827L278.672 554.976L212.023 572.835L157.671 369.99L213.888 354.927L315.66 426.423L290.969 334.273L357.618 316.415Z" fill="white"/>
<path d="M419.547 299.821L519.52 273.033C542.123 266.977 563.134 265.799 582.553 269.499C602.114 272.954 618.672 281.044 632.227 293.769C645.976 306.442 655.62 323.115 661.158 343.785C666.697 364.456 666.681 383.716 661.111 401.566C655.735 419.364 645.466 434.746 630.305 447.712C615.286 460.433 596.475 469.821 573.872 475.878L473.899 502.665L419.547 299.821ZM556.687 423.335C571.37 419.401 581.944 412.116 588.412 401.479C595.021 390.598 596.28 377.527 592.191 362.265C588.102 347.003 580.501 336.41 569.389 330.484C558.418 324.313 545.591 323.195 530.909 327.129L502.221 334.816L527.999 431.022L556.687 423.335Z" fill="white"/>
<path d="M868.204 359.12L791.123 379.774L786.976 418.776L717.43 437.411L751.75 210.807L818.978 192.794L962.002 371.878L891.296 390.824L868.204 359.12ZM836.169 314.905L802.798 269.184L796.759 325.465L836.169 314.905Z" fill="white"/>
</svg>
