<svg width="60" height="62" viewBox="0 0 60 62" fill="none" xmlns="http://www.w3.org/2000/svg">
<path fill-rule="evenodd" clip-rule="evenodd" d="M5.37305 33.6865V61H32.6864H59.9999V37.4448C59.9999 24.4895 59.9565 12.1984 59.9035 10.1314L59.8069 6.37314H32.59H5.37305V33.6865Z" fill="#999999"/>
<path fill-rule="evenodd" clip-rule="evenodd" d="M0 28.8358V56.6716H27.9104H55.8209V32.666C55.8209 19.4628 55.7765 6.93671 55.7224 4.83015L55.6237 1H27.8119H0V28.8358Z" fill="white"/>
<path fill-rule="evenodd" clip-rule="evenodd" d="M0 28.8358V56.6716H27.9104H55.8209V32.6659C55.8209 19.4628 55.7765 6.93671 55.7224 4.83015L55.6237 1H27.8119H0V28.8358ZM54.9253 28.8358V55.9253H27.8358H0.746268V28.8358V1.74627H27.8358H54.9253V28.8358ZM14.8716 16.4554C13.6928 16.6897 12.2343 17.3339 11.5252 17.9336C10.5403 18.7666 9.74343 20.3443 9.50552 21.9328L9.42179 22.4925H11.7067H13.9916L14.0831 21.921C14.3582 20.2 16.0125 19.4009 18.7391 19.6716C19.8846 19.7854 20.4198 20.0446 20.866 20.7015C21.1576 21.131 21.2094 21.3634 21.1576 22.0086C21.0418 23.4513 20.2652 23.8574 17.0895 24.1363C14.1751 24.3921 12.6566 24.7595 11.1194 25.581C8.26641 27.1057 7.72104 31.5521 10.0998 33.8933C11.3172 35.0913 12.923 35.6268 15.2985 35.6268C17.7319 35.6268 19.3852 35.0555 20.6704 33.7701L21.3148 33.1258L21.4164 33.803C21.6346 35.2588 21.4827 35.1791 24.0421 35.1791C26.134 35.1791 26.2928 35.1598 26.1945 34.9179C26.1361 34.7743 26.0152 34.4552 25.926 34.2089C25.8231 33.9254 25.733 31.2974 25.6803 27.0412L25.597 20.3212L25.1052 19.3225C24.3343 17.7573 22.9916 16.8583 20.7978 16.4386C19.4031 16.1718 16.2539 16.1807 14.8716 16.4554ZM21.194 27.54C21.194 29.7154 20.4995 31.0203 18.89 31.8698C18.2025 32.2327 17.9849 32.2686 16.4809 32.2686C14.8888 32.2686 14.8066 32.2527 14.2636 31.8385C13.3431 31.1364 13.0345 29.9446 13.4906 28.8533C13.9036 27.8648 15.0722 27.3958 17.8358 27.1095C18.7388 27.016 19.8134 26.8209 20.2239 26.6761C20.6343 26.5313 21.0206 26.4039 21.0821 26.393C21.1436 26.3821 21.194 26.8982 21.194 27.54ZM29.2863 39.6182L29.3283 41.3731H38.2089H47.0895V39.6567V37.9403L38.1668 37.9018L29.2442 37.8633L29.2863 39.6182Z" fill="#999999"/>
</svg>
