<svg width="188" height="62" viewBox="0 0 188 62" fill="none" xmlns="http://www.w3.org/2000/svg">
<path d="M69.5883 42.7271C68.4085 43.5604 67.0814 44.1976 65.6559 44.5406C64.0828 44.9818 62.5099 45.1778 60.8878 45.1778C58.9706 45.2268 57.1027 44.8838 55.3824 44.1486C53.9077 43.5113 52.6296 42.5309 51.6958 41.2565C50.7127 39.8841 50.0245 38.3647 49.6312 36.7471C49.1888 34.8357 48.9922 32.8259 48.9922 30.8653C48.9922 26.2579 50.0245 22.7288 52.089 20.2291C54.1535 17.7293 57.1519 16.5039 61.1336 16.5039C62.7557 16.4549 64.3778 16.651 65.9507 16.9941C67.0814 17.2882 68.2119 17.7293 69.2441 18.2685L67.5728 24.0033C66.7864 23.6111 65.9507 23.317 65.115 23.0719C64.1812 22.8269 63.2471 22.7288 62.3133 22.7288C60.3471 22.7288 58.8724 23.366 57.8402 24.6404C56.8079 25.9148 56.3163 27.9735 56.3163 30.8163C56.3163 31.8947 56.4147 32.9731 56.7095 34.0023C56.9553 34.9337 57.2993 35.7669 57.8402 36.5511C58.3316 37.2863 59.0198 37.8745 59.8063 38.2667C60.6912 38.7077 61.6742 38.9039 62.6573 38.9039C63.6895 38.9039 64.7218 38.7569 65.7049 38.4137C66.4915 38.1197 67.2288 37.7765 67.917 37.3353L69.5883 42.7271Z" fill="#85847B"/>
<path d="M73.7171 18.8567C75.3884 18.1214 77.1087 17.6313 78.8782 17.2882C80.9428 16.8961 83.0565 16.7 85.121 16.7C86.7431 16.651 88.316 16.8961 89.8399 17.3862C92.1503 18.1214 93.8706 19.984 94.4606 22.2877C94.8046 23.5621 94.952 24.8855 94.9028 26.209C94.9028 27.8264 94.8538 29.3949 94.7554 31.0125C94.6572 32.6299 94.5588 34.1985 94.5588 35.7669C94.5588 37.3353 94.608 38.8549 94.7062 40.2763C94.8046 41.6977 95.0995 43.0701 95.5419 44.4425H89.7907L88.6602 40.6685H88.3652C87.5788 41.8447 86.5465 42.8251 85.3668 43.5603C83.8429 44.4425 82.1226 44.8347 80.4021 44.7857C79.2224 44.7857 78.0428 44.5897 76.9613 44.1975C74.995 43.5113 73.4221 41.9919 72.6356 40.0803C72.2424 39.0509 71.9966 37.9725 72.0458 36.8453C71.9966 35.3749 72.3898 33.9043 73.1763 32.6299C73.9627 31.4537 75.0934 30.4733 76.3715 29.8361C77.9444 29.0519 79.6649 28.5617 81.3852 28.3657C83.5481 28.0714 85.7109 28.0224 87.8738 28.1204C88.1194 26.1109 87.972 24.6405 87.4314 23.7582C86.8905 22.8759 85.6617 22.4348 83.7939 22.4348C82.27 22.4348 80.7954 22.5818 79.3207 22.8759C77.9936 23.072 76.6663 23.4641 75.4374 24.0033L73.7171 18.8567ZM82.7125 39.0509C83.8921 39.0999 85.0718 38.7569 86.0551 38.1197C86.7923 37.5805 87.4314 36.8943 87.9228 36.0611V32.5319C86.8415 32.4339 85.7601 32.3849 84.6786 32.4829C83.7447 32.5319 82.8107 32.6789 81.926 32.9731C81.2378 33.1691 80.5495 33.5613 80.0089 34.0513C79.5173 34.5415 79.2717 35.1787 79.3207 35.8649C79.2717 36.7473 79.6157 37.5805 80.2055 38.2177C80.8938 38.8059 81.7784 39.0999 82.7125 39.0509Z" fill="#85847B"/>
<path d="M112.156 36.9431C112.156 36.2569 111.812 35.5707 111.222 35.2277C110.485 34.7375 109.748 34.3453 108.961 34.0513C108.077 33.7083 107.044 33.3161 105.963 32.9239C104.881 32.5319 103.898 32.0417 102.964 31.3555C102.03 30.6693 101.244 29.7871 100.703 28.8066C100.015 27.5812 99.7201 26.2088 99.7693 24.8364C99.7693 22.1406 100.556 20.131 102.178 18.7095C103.751 17.2881 106.061 16.6019 109.109 16.6019C110.977 16.6019 112.894 16.7979 114.712 17.2391C116.089 17.5332 117.416 18.0723 118.645 18.7095L117.023 23.7581C116.187 23.415 115.155 23.0719 113.877 22.7288C112.599 22.3857 111.321 22.1896 109.994 22.1896C107.88 22.1896 106.848 23.0229 106.848 24.6404C106.848 25.2776 107.192 25.9148 107.782 26.2088C108.519 26.65 109.256 27.042 110.092 27.3362C110.977 27.6792 112.009 28.0714 113.09 28.4636C114.172 28.8556 115.155 29.3458 116.089 29.9831C117.023 30.6203 117.809 31.4535 118.399 32.4339C119.038 33.6101 119.382 34.9825 119.333 36.3551C119.333 39.0999 118.448 41.2565 116.679 42.8249C114.909 44.3935 112.255 45.1777 108.716 45.1777C106.897 45.1777 105.078 44.9327 103.309 44.4425C101.883 44.0503 100.507 43.4621 99.1794 42.7269L101.146 37.4333C102.178 38.0215 103.309 38.4627 104.439 38.8057C105.815 39.2469 107.241 39.4919 108.666 39.4919C109.551 39.5409 110.436 39.3449 111.173 38.9037C111.861 38.5117 112.205 37.7275 112.156 36.9431Z" fill="#85847B"/>
<path d="M122.71 17.2881H126.446V12.1905L133.524 10.1809V17.2881H140.16V23.268H133.524V33.7083C133.524 35.5709 133.721 36.9433 134.114 37.7765C134.507 38.6097 135.343 39.0999 136.277 39.0019C136.916 39.0019 137.555 38.9529 138.144 38.8057C138.734 38.6587 139.324 38.4137 139.914 38.1685L141.143 43.6093C140.062 44.0995 138.882 44.5405 137.702 44.7857C136.424 45.1287 135.048 45.2757 133.721 45.2757C131.214 45.2757 129.395 44.6385 128.215 43.3641C127.035 42.0897 126.446 39.9821 126.446 37.0413V23.268H122.71V17.2881Z" fill="#85847B"/>
<path d="M143.011 30.8655C143.011 26.2579 144.142 22.7289 146.403 20.2291C148.664 17.7293 151.81 16.5039 155.89 16.5039C157.807 16.4549 159.724 16.798 161.543 17.5332C163.067 18.1704 164.443 19.1507 165.524 20.4251C166.606 21.7486 167.441 23.317 167.884 24.9345C168.424 26.846 168.719 28.8067 168.67 30.8163C168.67 35.4237 167.54 38.9529 165.328 41.4527C163.116 43.9524 159.921 45.1778 155.89 45.1778C153.973 45.2268 152.056 44.8348 150.237 44.1486C148.713 43.5114 147.337 42.4819 146.255 41.2565C145.125 39.9331 144.338 38.3647 143.847 36.7471C143.257 34.8357 142.962 32.8261 143.011 30.8655ZM150.286 30.8655C150.286 31.9927 150.384 33.0711 150.63 34.1985C150.827 35.1297 151.171 36.0119 151.613 36.8453C152.006 37.5805 152.597 38.1687 153.334 38.6097C154.12 39.0509 155.005 39.2469 155.841 39.2469C157.709 39.2469 159.085 38.5607 159.97 37.2373C160.854 35.9139 161.346 33.7573 161.346 30.8655C161.346 28.3657 160.904 26.356 160.117 24.8365C159.282 23.317 157.856 22.5328 155.89 22.5328C154.268 22.4838 152.744 23.219 151.81 24.4934C150.778 25.7678 150.286 27.8755 150.286 30.8655Z" fill="#85847B"/>
<path d="M186.892 23.9052C185.908 23.513 184.876 23.317 183.844 23.317C182.713 23.2679 181.583 23.611 180.649 24.2973C179.813 24.9345 179.223 25.8657 178.928 26.895V44.4425H171.85V17.2881H177.355L178.191 20.8662H178.388C178.928 19.6408 179.813 18.5625 180.895 17.7782C181.976 17.043 183.303 16.6509 184.581 16.6999C185.663 16.7489 186.793 16.945 187.826 17.2881L186.892 23.9052Z" fill="#85847B"/>
<path d="M31.0249 25.4247C29.0153 23.121 26.7605 21.7975 26.1723 22.3367C25.5841 22.8759 27.0547 24.7384 27.6919 26.748C30.3387 35.0317 25.7313 43.9033 17.4477 46.5502C13.7225 47.7266 9.70325 47.4816 6.17414 45.913C4.16453 45.0307 3.03719 43.4623 2.25294 44.0995C1.46869 44.7367 2.05688 46.5502 4.06649 48.854C10.5365 56.3042 21.8101 57.0884 29.3093 50.6186C36.8088 44.1485 37.495 32.8751 31.0249 25.4247Z" fill="#85847B"/>
<path d="M4.36044 35.6199C6.37008 37.9235 8.57575 39.2469 9.21296 38.7077C9.85014 38.1685 8.33067 36.3061 7.69349 34.2965C5.04665 26.0128 9.6541 17.1411 17.9377 14.4942C21.6629 13.3179 25.6821 13.5629 29.2111 15.1314C31.2208 16.0627 32.3482 17.5822 33.1324 16.945C33.9166 16.3078 33.3284 14.4942 31.3188 12.1905C24.8979 4.69119 13.6243 3.90695 6.17402 10.377C-1.27631 16.847 -2.10956 28.1694 4.36044 35.6199Z" fill="#85847B"/>
<path d="M17.6925 23.8071C15.0947 23.8071 12.9871 26.552 12.9871 29.934C12.9871 33.3161 15.0947 36.0609 17.6925 36.0609C20.2903 36.0609 22.3981 33.3161 22.3981 29.934C22.3981 26.552 20.2903 23.8071 17.6925 23.8071Z" fill="#85847B"/>
</svg>
