<svg width="284" height="62" viewBox="0 0 284 62" fill="none" xmlns="http://www.w3.org/2000/svg">
<g clip-path="url(#clip0)">
<g clip-path="url(#clip1)">
<path d="M99.2323 50.5689C106.942 50.5689 112.013 46.4294 113.876 39.5993L108.494 38.254C106.683 42.8592 104.148 45.1876 99.2323 45.1876C93.1266 45.1876 88.2628 40.8929 88.2628 32.0448C88.2628 23.1968 93.1266 18.9021 99.2323 18.9021C104.148 18.9021 106.683 21.2305 108.494 25.8357L113.876 24.4904C112.013 17.6603 106.942 13.5208 99.2323 13.5208C90.4877 13.5208 82.4675 19.7817 82.4675 32.0448C82.4675 44.308 90.4877 50.5689 99.2323 50.5689ZM130.033 50.5689C138.105 50.5689 142.866 44.4632 142.866 37.1157C142.866 29.7682 138.105 23.6625 130.033 23.6625C121.961 23.6625 117.201 29.7682 117.201 37.1157C117.201 44.4632 121.961 50.5689 130.033 50.5689ZM130.033 45.8085C125.325 45.8085 122.893 41.5138 122.893 37.1157C122.893 32.7175 125.325 28.4228 130.033 28.4228C134.742 28.4228 137.174 32.7175 137.174 37.1157C137.174 41.5138 134.742 45.8085 130.033 45.8085ZM153.642 50.1549V40.272C153.642 32.5105 156.488 28.4228 159.748 28.4228C162.025 28.4228 163.577 29.8199 163.577 32.6658V50.1549H168.958V39.7028C168.958 32.5105 171.856 28.4228 175.064 28.4228C177.341 28.4228 178.893 29.8199 178.893 32.6658V50.1549H184.274V31.4757C184.274 26.9223 181.584 23.6625 176.823 23.6625C173.46 23.6625 170.51 25.6287 168.699 29.0437C167.923 25.7839 165.026 23.6625 161.507 23.6625C158.351 23.6625 155.764 25.2665 153.642 28.5263V24.0764H148.261V50.1549H153.642ZM196.189 50.1549V40.272C196.189 32.5105 199.035 28.4228 202.295 28.4228C204.571 28.4228 206.124 29.8199 206.124 32.6658V50.1549H211.505V39.7028C211.505 32.5105 214.403 28.4228 217.611 28.4228C219.887 28.4228 221.44 29.8199 221.44 32.6658V50.1549H226.821V31.4757C226.821 26.9223 224.13 23.6625 219.37 23.6625C216.007 23.6625 213.057 25.6287 211.246 29.0437C210.47 25.7839 207.572 23.6625 204.054 23.6625C200.898 23.6625 198.31 25.2665 196.189 28.5263V24.0764H190.808V50.1549H196.189ZM244.686 50.5689C252.758 50.5689 257.519 44.4632 257.519 37.1157C257.519 29.7682 252.758 23.6625 244.686 23.6625C236.614 23.6625 231.854 29.7682 231.854 37.1157C231.854 44.4632 236.614 50.5689 244.686 50.5689ZM244.686 45.8085C239.978 45.8085 237.546 41.5138 237.546 37.1157C237.546 32.7175 239.978 28.4228 244.686 28.4228C249.395 28.4228 251.827 32.7175 251.827 37.1157C251.827 41.5138 249.395 45.8085 244.686 45.8085ZM267.933 50.1549V39.5993C267.933 32.407 271.244 28.4228 274.608 28.4228C277.04 28.4228 278.644 29.6647 278.644 33.1832V50.1549H284.025V31.4757C284.025 26.4048 280.92 23.6625 276.367 23.6625C272.9 23.6625 269.796 25.4217 267.933 28.5263V24.0764H262.552V50.1549H267.933Z" fill="#85847B"/>
<path fill-rule="evenodd" clip-rule="evenodd" d="M30.0918 2.1665L59.9763 32.051L30.0918 61.9354L0.207339 32.051L30.0918 2.1665ZM30.0918 8.65372L6.69456 32.051L30.0918 55.4482L53.489 32.051L30.0918 8.65372Z" fill="#85847B"/>
<path fill-rule="evenodd" clip-rule="evenodd" d="M40.748 12.8228L59.9762 32.051L40.748 51.2791L21.5199 32.051L40.748 12.8228ZM40.748 19.3101L28.0072 32.051L40.748 44.7919L53.4889 32.051L40.748 19.3101Z" fill="#85847B"/>
</g>
</g>
<defs>
<clipPath id="clip0">
<rect width="284" height="62" fill="white"/>
</clipPath>
<clipPath id="clip1">
<rect y="2" width="284.037" height="60" fill="white"/>
</clipPath>
</defs>
</svg>
