<svg width="127" height="62" viewBox="0 0 127 62" fill="none" xmlns="http://www.w3.org/2000/svg">
<g clip-path="url(#clip0)">
<g clip-path="url(#clip1)">
<path d="M30.3041 49.9842C29.9703 49.9574 29.4787 49.8899 29.2052 49.8333C26.5445 49.2832 24.5192 47.4316 23.685 44.7864C23.2405 43.3771 23.1726 41.6673 23.5009 40.1534C24.161 37.1093 26.401 34.9051 29.3742 34.374C30.5312 34.1674 31.578 34.1987 32.6483 34.4721C33.5201 34.6948 34.3898 35.1206 35.0181 35.6325C35.1167 35.7128 35.2127 35.797 35.2314 35.8196C35.2501 35.8421 35.2755 35.8606 35.2878 35.8606C35.3001 35.8606 35.3102 35.5568 35.3102 35.1855V34.5104H37.9724H40.6347V42.1278V49.7452H37.9724H35.3102V48.9682C35.3102 48.5408 35.3028 48.1911 35.2938 48.1911C35.2849 48.1911 35.1662 48.3087 35.03 48.4523C34.2815 49.2421 33.1843 49.7492 31.8199 49.936C31.5381 49.9745 30.5676 50.0054 30.3041 49.9842H30.3041ZM32.757 45.1987C33.8062 45.0142 34.6029 44.4526 34.9447 43.6565C35.0996 43.2958 35.1099 43.1824 35.1002 41.9482C35.0906 40.7226 35.0905 40.7214 34.9138 40.3467C34.5755 39.6295 33.8584 39.1235 32.882 38.9131C32.5308 38.8374 31.759 38.8318 31.3741 38.9022C30.2805 39.1021 29.4902 39.6993 29.0894 40.629C28.699 41.5346 28.7328 42.7876 29.1709 43.6419C29.7138 44.701 30.8624 45.2998 32.247 45.2456C32.4188 45.2389 32.6483 45.2178 32.757 45.1987V45.1987ZM77.206 49.9843C77.1359 49.9787 76.9295 49.9566 76.7474 49.9353C74.3622 49.656 72.3682 48.3284 71.2002 46.242C70.0042 44.1055 69.8584 41.1122 70.8355 38.7522C71.0818 38.1574 71.5084 37.4337 71.9094 36.9306C72.178 36.5936 72.7899 35.9986 73.1298 35.7439C74.4638 34.7443 75.9542 34.2554 77.69 34.2478C78.4492 34.2445 79.0652 34.3278 79.7474 34.526C80.5764 34.7669 81.4058 35.1985 81.9868 35.6914C82.0941 35.7824 82.1887 35.8501 82.197 35.8417C82.2053 35.8334 82.2121 35.5305 82.2121 35.1685V34.5104H84.8743H87.5366V42.1278V49.7452H84.8743H82.2121V48.9682C82.2121 48.2945 82.207 48.1911 82.1738 48.1911C82.1528 48.1911 82.1356 48.2002 82.1356 48.2113C82.1356 48.251 81.8001 48.598 81.6068 48.7582C80.8528 49.383 79.8911 49.7755 78.7206 49.936C78.4401 49.9745 77.4699 50.0054 77.206 49.9843V49.9843ZM79.3624 45.2345C80.0501 45.1646 80.6011 44.9635 81.0711 44.6107C81.5085 44.2825 81.7868 43.8926 81.9351 43.4002C81.9895 43.2197 81.9927 43.1595 82.0024 42.1533C82.0134 41.005 82.0026 40.8584 81.8824 40.5187C81.5985 39.7164 80.7675 39.0959 79.7154 38.9005C79.3433 38.8314 78.5969 38.8377 78.2183 38.9132C77.5147 39.0534 76.9836 39.3295 76.5514 39.7796C76.304 40.0372 76.1908 40.201 76.0344 40.5277C75.6133 41.4073 75.6078 42.6654 76.0211 43.5474C76.2907 44.1228 76.7529 44.594 77.3333 44.8852C77.9101 45.1747 78.668 45.3051 79.3624 45.2345V45.2345ZM102.16 49.977C101.698 49.8298 101.48 49.4203 101.622 48.9644C101.722 48.6422 101.925 48.4436 102.435 48.1685C102.813 47.965 102.829 47.953 102.9 47.8283C102.96 47.7248 102.963 47.6964 102.971 47.2052L102.979 46.6907L102.818 46.6095C102.088 46.2417 101.681 45.6314 101.614 44.8028C101.6 44.6269 101.629 44.1701 101.664 44.0329C101.676 43.9845 101.645 43.9471 101.483 43.8092C101.113 43.4948 100.859 43.1143 100.755 42.7172C100.712 42.5517 100.706 42.458 100.713 42.089L100.721 41.6554L100.587 41.4776C100.416 41.2507 100.247 40.923 100.166 40.6629C100.06 40.324 100.037 40.0645 100.056 39.4665C100.07 39.0225 100.067 38.9085 100.035 38.802C99.9538 38.5349 99.83 38.4082 99.3661 38.1176C99.0964 37.9486 98.7153 37.5602 98.5757 37.3118C98.3842 36.9711 98.2645 36.4929 98.2939 36.1862L98.3061 36.0597L98.0967 35.8519C97.7743 35.532 97.7 35.3569 97.4843 34.4085C97.4135 34.0973 97.3641 34.0221 96.9451 33.5872C96.3115 32.9295 96.0722 32.6216 95.8929 32.2334C95.6966 31.8082 95.566 31.2964 95.5088 30.7271C95.4792 30.4336 95.4882 29.6705 95.5256 29.3005L95.541 29.1476L95.3823 29.0332C95.0242 28.775 94.7846 28.4007 94.6553 27.8975C94.5384 27.4425 94.5742 26.7732 94.7418 26.2815L94.7895 26.1414L94.7066 25.9758C94.661 25.8847 94.605 25.7414 94.5821 25.6574C94.5222 25.4374 94.5037 25.0481 94.5417 24.8112C94.5976 24.4628 94.8058 23.8942 95.071 23.3654L95.1855 23.137L95.1252 23.0993C94.9975 23.0196 94.8015 22.7932 94.7245 22.6365C94.606 22.3951 94.5598 22.1436 94.5777 21.8359C94.5947 21.543 94.6293 21.3823 94.7764 20.913L94.882 20.576L94.7792 20.4289C94.4187 19.9131 94.2786 19.3168 94.3732 18.7005C94.4303 18.3281 94.5423 18.0113 94.7598 17.6068C94.8654 17.4107 95.0031 17.143 95.0659 17.012L95.1802 16.7738L95.0911 16.6525C94.7084 16.1312 94.6502 15.4769 94.9393 14.9458L95.0067 14.8219L94.9277 14.6603C94.7852 14.3688 94.7714 13.9649 94.8904 13.5635C94.9445 13.3809 95.1633 12.8352 95.2561 12.6514L95.3315 12.502L95.2035 12.39C94.9613 12.1782 94.8143 11.9437 94.7473 11.6625C94.7188 11.5431 94.7083 11.5284 94.6606 11.5404C94.4857 11.5842 93.9495 11.6125 93.5618 11.5983C92.9161 11.5746 92.3732 11.4843 91.8527 11.314C91.4136 11.1703 90.978 10.9229 90.879 10.7609C90.7396 10.5328 90.7083 10.1538 90.8004 9.8088C90.8621 9.57775 90.8627 9.51387 90.8054 9.30191C90.7502 9.09767 90.7497 8.81578 90.8045 8.71241C90.928 8.47907 92.3995 7.32747 93.1865 6.84828L93.3208 6.76655L93.2718 6.67045C93.198 6.52589 93.1579 6.27901 93.1743 6.07111C93.2032 5.70502 93.3607 5.36266 93.6229 5.09595L93.7586 4.95797L93.622 4.83955C93.5469 4.77442 93.2905 4.52482 93.0523 4.28489C92.4495 3.67769 92.1877 3.29839 92.1554 2.98517C92.1432 2.86707 92.1507 2.83024 92.2063 2.73542C92.3996 2.40557 93.0276 2.34639 93.9227 2.57368C94.0596 2.60845 94.1742 2.63438 94.1772 2.6313C94.1803 2.62823 94.1255 2.48264 94.0553 2.30778C93.8851 1.88345 93.8039 1.56332 93.8039 1.3173C93.8039 0.754841 94.1122 0.291674 94.6199 0.0915591C95.2227 -0.146048 96.1042 0.0877686 96.872 0.688885C97.1021 0.869086 97.5172 1.28847 97.651 1.47601C97.7268 1.58224 97.7487 1.59761 97.8113 1.58843C97.9214 1.57227 98.153 1.61572 98.2672 1.67396C98.8018 1.94666 99.2328 2.92475 99.3452 4.1202L99.361 4.28886L99.562 4.44713C99.9523 4.75455 100.397 5.25881 100.68 5.71628C101.395 6.86828 101.914 8.80156 102.285 11.6893L102.359 12.2683L102.473 12.4027C102.772 12.7553 102.936 13.0894 103.015 13.5058C103.05 13.6907 103.056 13.8344 103.046 14.2567L103.034 14.779L103.236 14.9318C103.498 15.1293 103.736 15.3823 103.908 15.646C104.237 16.1501 104.373 16.6282 104.529 17.8175C104.657 18.7985 104.746 19.1689 104.927 19.4699C105.126 19.8015 105.309 19.9082 105.816 19.9887C106.252 20.058 106.674 20.1697 106.904 20.2768C107.225 20.4262 107.421 20.6045 107.723 21.0196C107.758 21.0684 107.764 21.0685 107.947 21.0257C108.537 20.8877 109.293 20.9031 110.027 21.0681L110.283 21.1255L110.47 21.0294C110.705 20.9085 111.056 20.7931 111.314 20.752C111.73 20.6856 112.396 20.7555 113 20.929L113.179 20.9802L113.382 20.8811C113.821 20.6676 114.219 20.5875 114.733 20.6087C115.265 20.6307 115.835 20.7678 116.509 21.036L116.758 21.1348L116.917 21.0955C117.173 21.0326 117.671 21.0201 117.954 21.0696C118.54 21.1718 119.104 21.4446 119.675 21.9013L119.879 22.0643L120.376 22.067C120.732 22.0688 120.931 22.0818 121.079 22.1124C121.932 22.2884 122.54 22.7425 122.922 23.4903L123.013 23.6675L123.242 23.7005C124.054 23.8172 124.523 24.0643 124.834 24.5398C124.932 24.6896 125.113 25.0628 125.173 25.2404C125.18 25.2632 125.259 25.3253 125.348 25.3783C125.985 25.7594 126.284 26.1259 126.429 26.7027C126.47 26.8638 126.485 26.8874 126.66 27.0535C126.89 27.2722 127.049 27.5213 127.149 27.8229C127.326 28.3521 127.316 28.9939 127.12 29.6749L127.037 29.9635L127.081 30.126C127.186 30.5141 127.198 30.9808 127.114 31.4189C126.985 32.0949 126.535 32.9117 125.947 33.5352L125.822 33.6683L125.864 33.7747C125.945 33.9779 126.033 34.3972 126.048 34.6505C126.067 34.9944 126.021 35.1977 125.845 35.5483C125.565 36.1036 125.559 36.1912 125.76 36.7836C125.948 37.3385 125.99 37.5729 125.973 37.9624C125.956 38.3454 125.876 38.6321 125.693 38.9688C125.406 39.4996 125.368 39.6057 125.364 39.9047C125.361 40.0894 125.387 40.1707 125.574 40.5738C125.751 40.9558 125.799 41.1239 125.819 41.4272C125.839 41.7254 125.795 41.9009 125.607 42.2739C125.474 42.5392 125.464 42.5728 125.465 42.7325C125.466 42.8554 125.485 42.9551 125.533 43.0802C125.632 43.3378 125.675 43.576 125.675 43.8682C125.674 44.526 125.371 45.1317 124.849 45.5197L124.631 45.6818L124.63 47.3887C124.63 48.8053 124.623 49.1228 124.592 49.2556C124.498 49.6542 124.266 49.893 123.897 49.9714C123.812 49.9894 123.437 50 122.885 50C122.054 50 122 49.9973 121.861 49.9459C121.58 49.8427 121.344 49.5288 121.344 49.2578C121.344 49.1375 121.398 48.9227 121.46 48.8002C121.578 48.5658 121.786 48.3954 122.265 48.1395C122.582 47.9701 122.677 47.8865 122.718 47.7403C122.756 47.6021 122.755 45.7455 122.717 45.7455C122.701 45.7455 122.619 45.7036 122.535 45.6524C121.981 45.3162 121.64 44.8014 121.54 44.1519L121.51 43.9553L121.426 44.0844C121.278 44.3138 120.96 44.5522 120.73 44.6077C120.671 44.6219 120.661 44.6396 120.646 44.7693C120.625 44.9476 120.507 45.3067 120.399 45.5218C120.202 45.9108 119.92 46.2309 119.573 46.4573L119.37 46.5902L119.356 47.8811C119.343 49.1202 119.34 49.1787 119.287 49.3376C119.18 49.6559 119.034 49.8223 118.766 49.9314C118.637 49.9837 118.585 49.9868 117.692 49.9949C116.874 50.0023 116.737 49.998 116.62 49.9612C116.414 49.8966 116.251 49.7593 116.151 49.5661C116.07 49.4111 116.066 49.3892 116.076 49.1975C116.099 48.747 116.326 48.4842 117 48.1265C117.453 47.8864 117.455 47.8813 117.467 47.1326L117.476 46.5453L117.282 46.4491C116.682 46.1525 116.31 45.4821 116.219 44.5318C116.19 44.2371 116.186 44.2206 116.12 44.182C115.995 44.1082 115.789 43.9066 115.674 43.7446C115.432 43.4058 115.249 42.8864 115.18 42.3444C115.132 41.9633 115.119 41.1818 115.151 40.5549C115.185 39.8811 115.181 39.8541 114.979 39.6118C114.551 39.0969 114.287 37.9001 114.287 36.47C114.287 36.289 114.278 36.141 114.268 36.1411C114.223 36.1417 113.892 36.4163 113.561 36.7278C113.118 37.1438 112.859 37.3415 112.58 37.476C112.365 37.5795 112.361 37.5803 112.071 37.5803C111.793 37.5803 111.768 37.5759 111.604 37.4983L111.431 37.4163L111.48 37.4855C111.742 37.8568 111.841 38.4842 111.716 38.9754C111.653 39.2201 111.611 39.3014 111.372 39.6353C111.054 40.0815 111.035 40.2057 111.221 40.6715C111.401 41.1257 111.419 41.2068 111.417 41.5673C111.415 41.9139 111.384 42.0435 111.195 42.5227C111.086 42.799 111.079 42.9298 111.157 43.3042C111.199 43.5046 111.213 43.6644 111.215 43.9748C111.217 44.369 111.215 44.3897 111.139 44.602C111.095 44.7228 111.007 44.9016 110.942 44.9995C110.799 45.2137 110.507 45.4972 110.292 45.6301L110.134 45.7272V47.4252C110.134 48.848 110.128 49.1467 110.096 49.269C109.994 49.6635 109.765 49.8941 109.401 49.9714C109.316 49.9894 108.94 50 108.389 50C107.385 50 107.341 49.9924 107.107 49.7828C106.867 49.5664 106.798 49.2322 106.926 48.8918C107.01 48.6642 107.286 48.4015 107.634 48.2166C108.043 47.9985 108.128 47.9371 108.192 47.81C108.248 47.698 108.249 47.6817 108.249 46.7236C108.249 45.8609 108.245 45.7492 108.209 45.7355C108.128 45.7043 107.884 45.53 107.748 45.4062C107.495 45.1743 107.26 44.7841 107.164 44.4334C107.098 44.1921 107.087 43.5972 107.142 43.2723C107.202 42.9129 107.198 42.546 107.13 42.3298C107.08 42.1674 106.896 41.8476 106.854 41.8476C106.842 41.8476 106.807 41.9003 106.776 41.9646C106.744 42.029 106.661 42.1432 106.59 42.2185L106.46 42.3553L106.501 42.5791C106.607 43.1563 106.485 43.6793 106.159 44.0452L106.033 44.1868V44.5552C106.033 45.5974 105.716 46.1713 104.912 46.5848C104.879 46.6017 104.872 46.783 104.861 47.901C104.848 49.1762 104.847 49.2002 104.789 49.361C104.681 49.6614 104.532 49.8248 104.27 49.9314C104.141 49.9841 104.093 49.9868 103.179 49.9919C102.654 49.9949 102.195 49.9882 102.16 49.977L102.16 49.977ZM104.152 45.6911C104.465 45.6245 104.732 45.4401 104.847 45.2114C104.945 45.0173 104.966 44.8547 104.947 44.4348C104.933 44.1203 104.938 44.0214 104.972 43.8857C105.019 43.7018 105.151 43.4893 105.279 43.3917C105.463 43.2519 105.485 43.0659 105.38 42.5606C105.273 42.043 105.315 41.9145 105.716 41.5232C106.014 41.2331 106.087 41.1088 106.139 40.8035C106.178 40.5777 106.148 40.41 106.01 40.0874C105.796 39.5856 105.813 39.3413 106.106 38.7221C106.333 38.2403 106.371 38.1063 106.372 37.7841C106.373 37.5099 106.343 37.2981 106.247 36.884C105.948 35.6024 105.87 34.2864 106.047 33.5192C106.114 33.2258 106.239 33.0073 106.339 33.0073C106.544 33.0073 106.817 33.6666 106.987 34.573C107.021 34.7557 107.073 35.0772 107.101 35.2874C107.167 35.7755 107.281 36.3192 107.317 36.3192C107.332 36.3192 107.43 36.3013 107.534 36.2796C107.831 36.2176 108.016 36.2624 108.491 36.5112C108.858 36.7037 109.013 36.7523 109.26 36.7523C109.581 36.7523 109.814 36.6393 110.414 36.1928C110.805 35.902 111.013 35.7964 111.193 35.7982C111.359 35.7997 111.52 35.8918 111.668 36.0694C111.889 36.3349 111.902 36.3447 112.038 36.3447C112.215 36.3447 112.329 36.2638 112.815 35.7903C113.365 35.2557 113.619 35.0782 113.979 34.9783L114.134 34.9351L114.134 34.6399C114.134 33.7044 114.315 33.0327 114.567 33.0327C114.649 33.0327 114.792 33.175 114.883 33.3484C115.04 33.6455 115.198 34.2686 115.304 35.0072C115.357 35.3764 115.461 36.5186 115.51 37.2745C115.576 38.2941 115.677 38.6591 115.999 39.049C116.119 39.1935 116.207 39.3904 116.266 39.6472C116.306 39.8238 116.312 39.9869 116.314 41.0196C116.316 42.2407 116.33 42.4496 116.431 42.7496C116.509 42.9831 116.621 43.134 116.816 43.2661C117.149 43.4917 117.234 43.6564 117.268 44.1335C117.302 44.6047 117.314 44.6957 117.372 44.8713C117.479 45.1995 117.705 45.4604 118.003 45.6018C118.159 45.6756 118.192 45.6817 118.439 45.6817C118.664 45.6817 118.727 45.6724 118.834 45.6232C119.239 45.4375 119.439 45.1203 119.561 44.4708C119.591 44.3101 119.644 44.1156 119.678 44.0385C119.758 43.8613 119.945 43.6689 120.227 43.4747C120.563 43.243 120.68 43.0456 120.733 42.6191C120.763 42.3807 120.756 42.2559 120.677 41.6055C120.614 41.079 120.621 40.763 120.7 40.6102C120.771 40.4735 120.92 40.3423 121.097 40.2591C121.177 40.222 121.306 40.1615 121.385 40.1248C121.564 40.0408 121.688 39.933 121.758 39.7991C121.818 39.6854 121.823 39.5917 121.801 38.9178C121.783 38.3668 121.86 38.1898 122.333 37.687C122.768 37.2252 123.028 36.7997 123.116 36.4041C123.177 36.1322 123.156 35.7093 123.07 35.4657C123.036 35.3676 122.987 35.1845 122.962 35.0588C122.878 34.6314 122.938 34.4043 123.299 33.793C123.831 32.8913 124.096 32.2085 124.249 31.348C124.32 30.9508 124.346 30.0762 124.3 29.6267C124.26 29.2288 124.167 28.6949 124.056 28.2139C123.95 27.756 123.938 27.6254 123.997 27.5664C124.035 27.5278 124.045 27.528 124.13 27.5685C124.252 27.6264 124.476 27.8716 124.605 28.088C124.885 28.5589 125.149 29.4163 125.245 30.1668C125.293 30.5434 125.286 31.4243 125.232 31.7946C125.141 32.4199 124.94 33.0297 124.683 33.4627C124.639 33.538 124.606 33.6036 124.611 33.6085C124.633 33.6306 124.889 33.4302 125.058 33.2582C125.629 32.6778 126.057 31.8006 126.132 31.0585C126.16 30.7862 126.137 30.5642 126.047 30.2213C125.96 29.8915 125.963 29.7975 126.072 29.4718C126.148 29.2455 126.166 29.1501 126.177 28.9149C126.192 28.5937 126.158 28.3403 126.077 28.1823C126.048 28.1248 125.925 27.9731 125.804 27.8452C125.549 27.5752 125.463 27.4194 125.395 27.0978C125.311 26.7077 125.231 26.6061 124.783 26.3199C124.351 26.0443 124.271 25.9499 124.121 25.5429C123.907 24.9634 123.866 24.9345 123.032 24.7812C122.805 24.7395 122.567 24.6824 122.504 24.6544C122.337 24.5806 122.164 24.3927 122.007 24.1162C121.672 23.5251 121.519 23.3764 121.102 23.2365C120.831 23.1457 120.519 23.1295 120.124 23.1858C119.649 23.2536 119.521 23.2173 119.192 22.9219C118.524 22.3231 117.813 22.0949 116.991 22.2162C116.565 22.279 116.404 22.2475 115.825 21.9881C115.37 21.784 115.194 21.7266 114.938 21.6976C114.551 21.6539 114.224 21.7198 113.764 21.9345C113.494 22.061 113.477 22.0653 113.268 22.0631C113.106 22.0613 112.963 22.0376 112.707 21.9702C112.221 21.8423 112.014 21.8137 111.694 21.8305C111.375 21.8472 111.24 21.8843 110.864 22.0581C110.502 22.226 110.359 22.2367 109.699 22.1454C108.828 22.0251 108.436 22.0302 107.83 22.1698C107.372 22.2754 107.248 22.2264 106.932 21.8149C106.685 21.4935 106.545 21.3603 106.339 21.2525C106.115 21.1353 105.954 21.093 105.558 21.0477C105.374 21.0267 105.134 20.9808 105.023 20.9457C104.388 20.7444 103.952 20.2222 103.728 19.3963C103.63 19.0331 103.596 18.8496 103.486 18.085C103.368 17.2595 103.333 17.0827 103.228 16.7684C103.083 16.3364 102.944 16.1396 102.546 15.8086C102.269 15.5783 102.111 15.4022 102.011 15.2134C101.938 15.0737 101.933 14.9862 101.953 14.053C101.962 13.6281 101.915 13.4477 101.738 13.2202C101.523 12.9446 101.421 12.7711 101.358 12.5738C101.297 12.3794 101.282 12.2885 101.153 11.3398C100.806 8.77663 100.27 6.97049 99.5838 6.05146C99.2405 5.59145 98.7789 5.17652 98.4381 5.0216L98.2702 4.94525L98.2822 4.58858C98.3015 4.01204 98.2191 3.55216 98.0214 3.13313C97.8925 2.86006 97.7418 2.6906 97.6279 2.6906C97.5317 2.6906 97.5198 2.72416 97.5041 3.0399L97.4912 3.30004L97.335 2.98895C96.8211 1.96563 96.0947 1.29969 95.2871 1.11151C95.1278 1.0744 95 1.09294 94.9373 1.16226C94.7622 1.35569 95.2929 2.78812 95.9376 3.86251C96.0974 4.12875 96.2332 4.32945 96.5774 4.80753C96.6105 4.85347 96.6055 4.85609 96.4852 4.85609C96.2963 4.85609 95.9351 4.92514 95.6839 5.00928C94.9248 5.26363 94.3412 5.75003 94.2941 6.16775C94.2833 6.26412 94.2886 6.27959 94.3383 6.29534C94.4205 6.32143 94.5824 6.29137 94.9599 6.17991C95.8123 5.92826 96.1011 5.91341 96.1936 6.11645C96.2429 6.2248 96.2316 6.26704 96.0712 6.57368C95.9525 6.80032 95.9184 6.89035 95.9187 6.97551C95.9189 7.03588 95.9275 7.09788 95.9378 7.11329C96.0159 7.23028 96.2971 7.23388 96.8238 7.12467C97.6418 6.95504 97.8035 6.96994 97.8035 7.21495C97.8035 7.33002 97.6916 7.44165 97.3451 7.67209C96.9582 7.92944 96.8864 8.00338 96.8864 8.14443C96.8864 8.28734 97.0061 8.4085 97.2983 8.56146C97.7606 8.80349 97.8518 8.9018 97.7711 9.07104C97.7023 9.21536 97.5657 9.26077 97.0848 9.29927C96.8552 9.31765 96.6428 9.34577 96.613 9.36176C96.5373 9.40227 96.5202 9.47689 96.5662 9.56594C96.6151 9.66042 96.6763 9.70366 97.0259 9.89083C97.5237 10.1573 97.6498 10.3395 97.4644 10.5248C97.363 10.6263 97.2796 10.6503 96.8482 10.7024C96.2019 10.7805 95.904 10.9045 95.8181 11.1313C95.7395 11.3387 95.8231 11.5253 96.0706 11.6944C96.3769 11.9036 96.4788 12.0572 96.4788 12.3096C96.4788 12.4564 96.4758 12.4648 96.0688 13.518C95.9142 13.9179 95.8809 14.0672 95.9167 14.2C95.9467 14.3113 96.0193 14.3588 96.1596 14.3588C96.2788 14.3588 96.4023 14.465 96.4023 14.5675C96.4023 14.673 96.3029 14.8618 96.1328 15.0791C95.9718 15.2849 95.9113 15.393 95.8689 15.5503C95.826 15.7097 95.8581 15.8198 96.0136 16.0469C96.2276 16.3593 96.2744 16.4772 96.2747 16.7036C96.275 16.8093 96.2578 16.964 96.2368 17.0475C96.2159 17.131 96.0498 17.4974 95.8679 17.8618C95.6859 18.2261 95.5175 18.5987 95.4935 18.6897C95.4273 18.9417 95.4336 19.2968 95.5082 19.5151C95.5608 19.6691 95.5976 19.7215 95.8052 19.9384C95.9882 20.1296 96.0461 20.2075 96.0599 20.2809C96.0965 20.4758 96.0344 20.7193 95.8326 21.1737C95.7015 21.4688 95.6553 21.6722 95.6694 21.8921C95.6845 22.1272 95.7608 22.2528 95.9448 22.3461C96.1194 22.4346 96.266 22.5724 96.3022 22.6821C96.3732 22.8972 96.3025 23.1731 95.9873 23.9124C95.5788 24.8701 95.5375 25.1776 95.7552 25.6381C95.8338 25.8042 95.8507 25.8706 95.8609 26.0534C95.8715 26.2433 95.8615 26.3176 95.781 26.6375C95.7038 26.945 95.689 27.048 95.689 27.2771C95.689 27.7458 95.8021 27.9937 96.1156 28.2124C96.3395 28.3686 96.4993 28.5322 96.5634 28.6709C96.6241 28.8023 96.6245 28.8172 96.6066 30.1159C96.5894 31.3687 96.7715 31.8242 97.6765 32.7909C98.0798 33.2218 98.2121 33.3982 98.3639 33.708C98.4851 33.9555 98.5575 34.1797 98.6671 34.6479C98.7463 34.9863 98.8094 35.077 99.0458 35.1923C99.2103 35.2726 99.2531 35.3072 99.3184 35.4128L99.3958 35.5381L99.4105 36.037C99.4263 36.5717 99.4481 36.6787 99.5757 36.846C99.6851 36.9893 99.7923 37.0793 100.109 37.2938C100.531 37.5794 100.816 37.8685 100.956 38.1536C101.075 38.3938 101.162 38.7228 101.169 38.9561C101.172 39.0402 101.165 39.3154 101.155 39.5676C101.126 40.2318 101.168 40.3823 101.516 40.8713C101.849 41.3392 101.852 41.3508 101.816 42.0277C101.79 42.5089 101.822 42.6168 102.052 42.8279C102.583 43.3128 102.713 43.4858 102.777 43.7896C102.803 43.9144 102.8 43.9611 102.758 44.1329C102.685 44.4293 102.69 44.8161 102.768 45.0346C102.883 45.3525 103.101 45.5719 103.396 45.6677C103.573 45.7252 103.94 45.7366 104.152 45.6913V45.6911ZM117.33 38.424C117.142 38.3406 116.915 37.9918 116.773 37.5675C116.619 37.1048 116.564 36.6129 116.633 36.293C116.67 36.1195 116.784 35.988 116.896 35.988C117.096 35.988 117.263 36.3361 117.483 37.2122C117.611 37.7239 117.668 38.0898 117.64 38.2345C117.606 38.4131 117.48 38.4904 117.33 38.424V38.424ZM100.466 35.0737C100.305 34.9814 99.9653 34.629 99.7978 34.3808C99.4165 33.8156 99.1529 33.0573 99.1474 32.5089C99.1419 31.9792 99.3642 31.9167 99.6877 32.3568C99.9884 32.7658 100.527 33.8513 100.731 34.4594C100.928 35.0465 100.827 35.2811 100.466 35.0737ZM117.647 34.4922C117.458 34.3212 117.28 34.0239 116.618 32.7676C115.956 31.511 115.821 31.1378 115.996 31.0441C116.083 30.998 116.34 31.1411 116.563 31.3593C117.085 31.8694 117.615 32.7815 117.834 33.55C117.906 33.8023 117.916 33.8725 117.916 34.1573C117.917 34.4387 117.911 34.4861 117.869 34.5331C117.801 34.6074 117.768 34.6011 117.647 34.4922V34.4922ZM98.0682 29.1851C97.7764 28.9981 97.3438 27.977 97.1563 27.0322C96.9959 26.2246 97.0287 25.7059 97.2421 25.6743C97.3517 25.6581 97.5517 25.9051 97.7376 26.2863C98.0829 26.9942 98.3223 27.8905 98.3554 28.5999C98.3716 28.945 98.3463 29.1016 98.2608 29.1872C98.1987 29.2492 98.1677 29.2489 98.0682 29.1851V29.1851ZM121.198 25.8091C121.015 25.7602 120.647 25.5714 120.025 25.2075C119.117 24.677 118.924 24.5247 118.924 24.3386C118.924 24.2867 118.945 24.2544 119.006 24.2159C119.079 24.1697 119.12 24.1649 119.357 24.1742C119.57 24.1825 119.671 24.2006 119.858 24.2641C120.359 24.4338 120.777 24.6903 121.128 25.0437C121.378 25.2958 121.502 25.493 121.506 25.6474C121.51 25.8135 121.411 25.8659 121.198 25.8091ZM116.978 25.6538C116.477 25.5465 116.045 25.2694 116.045 25.0561C116.045 24.9474 116.162 24.843 116.329 24.803C116.51 24.7594 116.949 24.7858 117.191 24.8548C117.934 25.0671 118.235 25.5093 117.738 25.6589C117.583 25.7056 117.207 25.7031 116.978 25.6538V25.6538ZM98.017 24.6673C97.6514 24.2926 97.4172 23.5613 97.4122 22.7785C97.4098 22.3862 97.4388 22.2365 97.5367 22.1387C97.6199 22.0554 97.7075 22.0622 97.8198 22.1607C98.1736 22.4711 98.4368 23.3544 98.4439 24.2556C98.4466 24.5872 98.4278 24.7041 98.3606 24.7762C98.2721 24.8712 98.1908 24.8454 98.017 24.6673V24.6673ZM115.306 23.7439C114.748 23.695 114.185 23.5832 113.986 23.4815C113.752 23.3623 113.721 23.251 113.883 23.1126C114.343 22.7189 115.701 22.8241 116.224 23.2938C116.432 23.4806 116.411 23.6212 116.166 23.6965C116.032 23.7373 115.54 23.7644 115.306 23.7439V23.7439ZM99.2298 21.9153C98.9762 21.7418 98.7416 21.1509 98.6708 20.508C98.6057 19.9163 98.7864 19.4563 99.0279 19.5989C99.3261 19.775 99.5923 20.5884 99.5974 21.3391C99.5999 21.678 99.5712 21.8158 99.4774 21.9187C99.4104 21.9922 99.3407 21.9912 99.2298 21.9153V21.9153ZM97.1481 20.1819C97.0478 20.0974 96.9191 19.8237 96.8426 19.5315C96.757 19.2046 96.7329 18.5793 96.7937 18.2584C96.8634 17.89 97.0115 17.6774 97.1532 17.742C97.337 17.8258 97.4696 18.3083 97.5232 19.0889C97.5481 19.4523 97.5271 19.8512 97.473 20.0412C97.4174 20.2367 97.2826 20.295 97.1481 20.1819ZM97.5992 16.119C97.3426 15.8492 97.1637 14.99 97.2407 14.3968C97.3299 13.7098 97.5861 13.4871 97.7975 13.9128C98.0311 14.3833 98.1101 15.6495 97.9313 16.057C97.849 16.2446 97.7384 16.2653 97.5992 16.119ZM94.3927 8.29885C94.6165 8.1244 94.8083 8.11447 95.2212 8.25594C95.6151 8.39088 95.7219 8.35541 95.611 8.1264C95.544 7.98788 95.3626 7.82448 95.1795 7.73758C95.0626 7.68211 95.0035 7.67108 94.8228 7.67108C94.6277 7.67108 94.5924 7.6789 94.4662 7.75015C94.2289 7.88404 94.1007 8.13652 94.196 8.28202C94.2459 8.35823 94.3095 8.36367 94.3927 8.29884V8.29885ZM4.59139e-06 39.6821V29.6189H2.68771H5.37542L5.38183 37.2045L5.38824 44.7901L10.5154 44.7965L15.6425 44.8029V47.2741V49.7452H7.82123H0L4.59139e-06 39.6821ZM16.9927 39.249V28.7527H19.7441H22.4956V39.249V49.7452H19.7441H16.9927V39.249ZM42.0104 42.1278V34.5104H44.609H47.2076V35.1685C47.2076 35.5305 47.2151 35.8341 47.2242 35.8433C47.2334 35.8524 47.3686 35.7368 47.5247 35.5864C47.6808 35.436 47.9017 35.2465 48.0155 35.1654C48.8196 34.5923 49.8199 34.2362 50.963 34.1162C51.3832 34.072 52.2918 34.0651 52.6595 34.1033C54.2097 34.264 55.4991 34.8403 56.4898 35.8153L56.7674 36.0885L56.949 35.9214C57.9748 34.9779 59.3557 34.3623 60.9521 34.1368C61.4602 34.065 62.7982 34.0713 63.3016 34.1478C64.2375 34.29 64.9893 34.5228 65.7637 34.9102C67.571 35.8143 68.8018 37.3798 69.1798 39.2555C69.2956 39.8301 69.2956 39.8265 69.2956 44.9237V49.7452H66.6084H63.9212L63.9143 45.2932L63.9073 40.8412L63.8373 40.5865C63.7043 40.1033 63.4875 39.7324 63.1515 39.4132C62.711 38.9947 62.1619 38.7622 61.4382 38.6876C60.6695 38.6084 59.8944 38.7838 59.3089 39.1693C59.0816 39.319 58.7799 39.6254 58.6184 39.8706C58.449 40.1277 58.3337 40.4043 58.2561 40.7393C58.2036 40.9661 58.203 41.0161 58.1945 45.3569L58.186 49.7452H55.6527H53.1195L53.1115 45.3314C53.1036 40.9583 53.103 40.9155 53.0503 40.6884C52.935 40.1923 52.7425 39.8205 52.4332 39.4966C51.8966 38.9348 51.2227 38.6776 50.2902 38.6788C49.6858 38.6797 49.2494 38.7749 48.7871 39.0072C48.1167 39.344 47.6737 39.8918 47.4688 40.6374L47.3988 40.8922L47.3918 45.3187L47.3847 49.7452H44.6976H42.0104V42.1278ZM63.3723 33.2101C61.1169 32.984 59.2811 31.9556 58.0302 30.2176C57.2541 29.1394 56.7939 27.8945 56.6034 26.358C56.5522 25.9452 56.5604 24.7014 56.6173 24.2562C56.751 23.2094 56.9942 22.3858 57.4261 21.5175C58.2944 19.7715 59.7286 18.5118 61.5508 17.8948C62.4534 17.5892 63.2327 17.4764 64.2822 17.4995C65.0561 17.5166 65.5138 17.586 66.1799 17.7875C66.9851 18.031 67.8148 18.4692 68.3646 18.9414C68.4622 19.0251 68.551 19.088 68.5621 19.0812C68.5732 19.0743 68.5822 18.7713 68.5822 18.4078V17.747H71.2445H73.9068V25.3644V32.9818H71.2445H68.5822V32.2048C68.5822 31.3528 68.5805 31.3446 68.4421 31.533C68.4001 31.5902 68.2714 31.7265 68.1561 31.8359C67.4362 32.5192 66.4199 32.9753 65.2033 33.161C64.801 33.2224 63.7709 33.25 63.3723 33.2101V33.2101ZM66.0601 28.4344C67.0594 28.2453 67.806 27.7285 68.1716 26.9725C68.3576 26.5879 68.3657 26.5171 68.3657 25.2752C68.3657 24.313 68.3602 24.1562 68.3202 23.9861C68.1694 23.3439 67.6947 22.7924 66.99 22.4406C66.5048 22.1984 66.0169 22.0939 65.3722 22.094C64.319 22.0943 63.5186 22.3945 62.9256 23.012C62.5874 23.3641 62.4072 23.6668 62.2528 24.142C62.1202 24.5499 62.0767 24.9054 62.0938 25.4408C62.1135 26.0614 62.1977 26.4092 62.4454 26.893C62.9048 27.7901 63.7421 28.3255 64.9136 28.4712C65.1764 28.5039 65.7982 28.4839 66.0601 28.4344V28.4344ZM42.0104 22.9187V12.8555H50.01H58.0096V15.2503V17.6451H52.6341H47.2586V19.7469V21.8486H51.4622H55.6657V24.1543V26.4599H51.4622H47.2586V29.7208V32.9818H44.6345H42.0104V22.9187ZM83.333 32.9644C82.6171 32.9239 81.8686 32.7904 81.2934 32.6008C80.5232 32.3469 79.9775 32.0226 79.4712 31.518C78.6717 30.7211 78.2444 29.6806 78.1104 28.205C78.0952 28.0377 78.0849 26.7307 78.0849 24.9631L78.0849 22.0015H76.4799H74.8749V19.8744V17.7473L76.4735 17.7408L78.0722 17.7342L78.0787 15.728L78.0852 13.7217H80.8363H83.5875L83.594 15.728L83.6005 17.7342L85.5686 17.7408L87.5366 17.7473V19.8744V22.0015H85.5612H83.5857L83.5944 24.5428C83.6023 26.8338 83.6074 27.0998 83.6463 27.2441C83.7553 27.6481 83.98 27.8851 84.3848 28.0227C84.5377 28.0747 84.5949 28.0768 86.0399 28.0848L87.5366 28.093V30.5374V32.9818L85.5049 32.9771C84.3874 32.9744 83.4101 32.9688 83.333 32.9644L83.333 32.9644Z" fill="#999999"/>
</g>
</g>
<defs>
<clipPath id="clip0">
<rect width="127" height="62" fill="white"/>
</clipPath>
<clipPath id="clip1">
<rect width="127.275" height="50" fill="white"/>
</clipPath>
</defs>
</svg>
