<svg width="172" height="62" viewBox="0 0 172 62" fill="none" xmlns="http://www.w3.org/2000/svg">
<path d="M17.5893 8.91376C7.82443 8.91376 0 16.8947 0 26.6283C0 36.4558 7.85573 44.3428 17.5893 44.3428C27.3229 44.3428 35.1786 36.3619 35.1786 26.6283V8.91376H17.5893Z" fill="#85847B"/>
<path d="M11.1731 27.0351C9.7021 25.5641 9.35782 23.3107 10.2342 21.558L11.1731 22.497C11.2983 21.9336 11.6426 21.4954 12.0807 21.0886C12.4876 20.6817 12.9884 20.3374 13.4891 20.1809L12.5502 19.1794C14.3029 18.2718 16.5563 18.616 18.0273 20.1183C19.9365 22.0275 19.9365 25.126 18.0273 27.0038C16.1181 28.8817 12.9884 28.913 11.1731 27.0351ZM19.1227 18.9916C16.525 16.3939 12.425 16.3939 9.92118 18.9916C7.32347 21.5893 7.32347 25.7519 9.92118 28.3183C12.2998 30.697 16.0868 30.916 18.6532 28.7878L20.5624 30.7596C20.2807 31.3229 20.3433 31.9802 20.8441 32.387L24.4433 35.9863C25.0067 36.5496 25.8517 36.5496 26.4151 35.9863L26.8219 35.5794C27.3853 35.016 27.3853 34.171 26.8219 33.6076L23.1914 30.0084C22.7845 29.6015 22.1273 29.4451 21.5639 29.7267L19.6548 27.755C21.7204 25.126 21.5013 21.3389 19.1227 18.9916V18.9916Z" fill="white"/>
<path d="M71.39 25.971C71.39 22.5908 71.2648 19.7428 71.1709 17.3328H78.4007L78.8076 21.0573H78.9327C79.9969 19.3672 82.7824 16.7069 87.164 16.7069C92.6411 16.7069 96.7724 20.3687 96.7724 28.3496V44.3741H88.4786V29.4137C88.4786 25.971 87.2579 23.5298 84.2846 23.5298C81.9686 23.5298 80.6228 25.1573 80.0908 26.6908C79.8717 27.1603 79.7465 28.0366 79.7465 28.7878V44.3428H71.4526V25.971H71.39V25.971ZM117.742 28.7878C117.742 28.3183 117.679 27.7237 117.617 27.3168C117.147 25.0008 115.301 23.1855 112.766 23.1855C108.979 23.1855 107.007 26.6282 107.007 30.916C107.007 35.4855 109.26 38.3649 112.703 38.3649C115.144 38.3649 117.053 36.6748 117.492 34.2962C117.617 33.6702 117.711 33.0756 117.711 32.3244L117.742 28.7878V28.7878ZM126.067 5.09542V36.2679C126.067 39.3038 126.192 42.4962 126.286 44.3428H118.837L118.43 40.3366H118.305C116.615 43.3725 113.392 44.9061 109.917 44.9061C103.564 44.9061 98.4625 39.429 98.4625 31.0412C98.3999 21.9023 104.065 16.6443 110.481 16.6443C113.798 16.6443 116.365 17.771 117.585 19.6802H117.711V5.09542H126.067V5.09542ZM145.44 27.7863C145.44 25.7519 144.533 22.3092 140.714 22.3092C137.209 22.3092 135.801 25.4702 135.582 27.7863H145.44ZM135.676 33.545C135.957 36.9878 139.337 38.6779 143.25 38.6779C146.066 38.6779 148.382 38.271 150.636 37.6137L151.7 43.3099C149.008 44.3741 145.597 45 142.029 45C132.89 45 127.695 39.6481 127.695 31.229C127.695 24.4061 131.888 16.8321 141.215 16.8321C149.853 16.8321 153.171 23.655 153.171 30.3527C153.171 31.7611 153.046 33.0443 152.889 33.6702H135.644L135.676 33.545V33.545ZM154.986 26.2214C154.986 22.2153 154.861 19.6802 154.767 17.3015H161.934L162.216 22.3092H162.435C163.781 18.3657 167.098 16.7069 169.665 16.7069C170.416 16.7069 170.792 16.7069 171.417 16.8321V24.7504C170.792 24.6252 170.134 24.5313 169.164 24.5313C166.128 24.5313 164.031 26.1588 163.468 28.7878C163.343 29.3511 163.343 30.0084 163.343 30.697V44.4366H155.049V26.2214H154.986ZM59.7159 17.3641H68.0098V44.4054H59.7159V17.3641ZM51.7976 16.4252C51.7976 13.4519 53.2686 11.2298 57.6816 11.1672C57.3999 10.4786 57.2747 9.75878 57.2747 8.91374C57.2747 7.22366 57.9007 5.75267 58.9022 4.56336C58.4327 4.50076 57.9633 4.50076 57.4938 4.50076C49.2625 4.50076 43.4411 8.69466 43.4411 16.1435V17.2702H39.9358V23.4985H43.4411V44.3115H51.8289V23.4985H56.3045V17.3015H51.7976V16.4252Z" fill="#85847B"/>
<path d="M68.7923 8.91374C68.7923 11.6679 66.6328 13.8275 63.8786 13.8275C61.187 13.8275 58.9648 11.574 58.9648 8.91374C58.9648 6.25344 61.1244 4 63.8786 4C66.6328 4 68.7923 6.22214 68.7923 8.91374V8.91374Z" fill="#85847B"/>
</svg>
