<svg width="148" height="62" viewBox="0 0 148 62" fill="none" xmlns="http://www.w3.org/2000/svg">
<g clip-path="url(#clip0)">
<path d="M62.9076 38.6413C62.9076 45.5815 57.4782 50.6956 50.8152 50.6956C44.1521 50.6956 38.7228 45.5815 38.7228 38.6413C38.7228 31.6522 44.1521 26.5869 50.8152 26.5869C57.4782 26.5869 62.9076 31.6522 62.9076 38.6413ZM57.6141 38.6413C57.6141 34.3043 54.4673 31.3369 50.8152 31.3369C47.163 31.3369 44.0163 34.3043 44.0163 38.6413C44.0163 42.9348 47.163 45.9456 50.8152 45.9456C54.4673 45.9456 57.6141 42.9293 57.6141 38.6413Z" fill="#85847B"/>
<path d="M88.9946 38.6413C88.9946 45.5815 83.5653 50.6956 76.9022 50.6956C70.2392 50.6956 64.8098 45.5815 64.8098 38.6413C64.8098 31.6576 70.2392 26.5869 76.9022 26.5869C83.5653 26.5869 88.9946 31.6522 88.9946 38.6413ZM83.7011 38.6413C83.7011 34.3043 80.5544 31.3369 76.9022 31.3369C73.25 31.3369 70.1033 34.3043 70.1033 38.6413C70.1033 42.9348 73.25 45.9456 76.9022 45.9456C80.5544 45.9456 83.7011 42.9293 83.7011 38.6413Z" fill="#85847B"/>
<path d="M113.995 27.3152V48.9565C113.995 57.8587 108.745 61.4946 102.538 61.4946C96.6956 61.4946 93.1793 57.5869 91.8533 54.3913L96.462 52.4728C97.2826 54.4348 99.2935 56.75 102.533 56.75C106.505 56.75 108.967 54.2989 108.967 49.6848V47.9511H108.783C107.598 49.413 105.315 50.6902 102.435 50.6902C96.4076 50.6902 90.8859 45.4402 90.8859 38.6848C90.8859 31.8804 96.4076 26.5869 102.435 26.5869C105.31 26.5869 107.592 27.8641 108.783 29.2826H108.967V27.3206H113.995V27.3152ZM109.342 38.6848C109.342 34.4402 106.511 31.3369 102.908 31.3369C99.2554 31.3369 96.1957 34.4402 96.1957 38.6848C96.1957 42.8859 99.2554 45.9456 102.908 45.9456C106.511 45.9456 109.342 42.8859 109.342 38.6848Z" fill="#85847B"/>
<path d="M122.283 14.6304V49.9565H117.12V14.6304H122.283Z" fill="#85847B"/>
<path d="M142.402 42.6087L146.511 45.3478C145.185 47.3098 141.989 50.6902 136.467 50.6902C129.62 50.6902 124.505 45.3968 124.505 38.6359C124.505 31.4674 129.663 26.5815 135.875 26.5815C142.13 26.5815 145.19 31.5598 146.19 34.25L146.739 35.6196L130.625 42.2935C131.859 44.712 133.777 45.9457 136.467 45.9457C139.163 45.9457 141.033 44.6196 142.402 42.6087ZM129.755 38.2718L140.527 33.7989C139.935 32.2935 138.152 31.2446 136.054 31.2446C133.364 31.2446 129.62 33.6196 129.755 38.2718V38.2718Z" fill="#85847B"/>
<path d="M19.1794 35.5054V30.3913H36.4131C36.5815 31.2826 36.6685 32.337 36.6685 33.4783C36.6685 37.3152 35.6196 42.0598 32.2392 45.4402C28.9511 48.8641 24.75 50.6902 19.1848 50.6902C8.86959 50.6902 0.195679 42.288 0.195679 31.9728C0.195679 21.6576 8.86959 13.2554 19.1848 13.2554C24.8913 13.2554 28.9565 15.4946 32.0109 18.413L28.4022 22.0217C26.212 19.9674 23.2446 18.3696 19.1794 18.3696C11.6468 18.3696 5.75546 24.4402 5.75546 31.9728C5.75546 39.5054 11.6468 45.5761 19.1794 45.5761C24.0652 45.5761 26.8479 43.6141 28.6305 41.8315C30.0761 40.3859 31.0272 38.3206 31.4022 35.5L19.1794 35.5054V35.5054Z" fill="#85847B"/>
</g>
<defs>
<clipPath id="clip0">
<rect width="148" height="62" fill="white"/>
</clipPath>
</defs>
</svg>
