<svg width="232" height="62" viewBox="0 0 232 62" fill="none" xmlns="http://www.w3.org/2000/svg">
<path d="M-6.28906e-05 43.355H10.3015V30.4275H12.7253L20.0475 43.355H30.9549L22.3198 28.4075C26.1072 26.9432 28.8341 24.0647 28.8341 18.914V18.7119C28.8341 11.0867 23.5822 7.2489 14.1393 7.2489H-0.000244141V43.3557L-6.28906e-05 43.355ZM10.3015 23.7111V15.0254H13.6849C17.0177 15.0254 18.8356 16.1869 18.8356 19.1157V19.3178C18.8356 22.2466 17.1187 23.7111 13.6345 23.7111H10.3016H10.3015Z" fill="#85847B"/>
<path d="M46.0483 43.9622C54.0269 43.9622 58.6222 40.5788 59.4302 34.62H50.9466C50.5932 36.3876 49.3306 37.7509 46.3512 37.7509C43.1193 37.7509 41.0995 35.7311 40.847 32.2467H59.4305V29.8733C59.4305 20.3796 53.2193 16.2389 45.9981 16.2389C38.0195 16.2389 31.7073 21.5916 31.7073 30.0752V30.4792C31.7073 39.1143 37.767 43.9622 46.0487 43.9622H46.0483ZM40.9479 27.1464C41.4025 23.9651 43.2708 22.1975 45.9977 22.1975C48.9266 22.1975 50.492 23.9651 50.6435 27.1464H40.9479Z" fill="#85847B"/>
<path d="M73.8992 43.9622C81.2213 43.9622 85.8671 41.1343 85.8671 34.8725C85.8671 29.2168 82.3322 27.2979 75.0101 26.3889C71.7782 25.9849 70.5662 25.48 70.5662 24.2175C70.5662 23.0055 71.5763 22.1471 73.5456 22.1471C75.616 22.1471 76.5755 23.0055 76.929 24.7729H85.1097C84.5036 18.4607 79.9589 16.2389 73.4446 16.2389C67.3343 16.2389 62.1332 19.0668 62.1332 24.9244C62.1332 30.4288 65.1125 32.4992 72.1822 33.4082C75.8181 33.9132 77.0805 34.5191 77.0805 35.7815C77.0805 37.0945 76.0706 37.9529 73.8486 37.9529C71.2732 37.9529 70.4148 36.8925 70.1118 34.9736H61.7795C61.9816 40.8313 66.375 43.9622 73.8992 43.9622V43.9622Z" fill="#85847B"/>
<path d="M100.039 43.9622C102.16 43.9622 103.877 43.5076 105.038 43.2047V36.337C104.23 36.6401 103.473 36.7914 102.463 36.7914C100.746 36.7914 99.7866 35.933 99.7866 34.0141V23.1065H104.988V16.9458H99.7866V11.4416H90.7475V16.9458H87.5662V23.1065H90.7475V34.8725C90.7475 41.0838 94.0803 43.9622 100.039 43.9622V43.9622Z" fill="#85847B"/>
<path d="M109.163 43.355H118.202V30.8315C118.202 26.5896 121.232 24.8728 126.737 25.0243V16.5911C122.646 16.5406 119.869 18.2575 118.202 22.1962V16.9445H109.163V43.3545V43.355Z" fill="#85847B"/>
<path d="M143.443 43.9622C151.422 43.9622 156.017 40.5788 156.825 34.62H148.341C147.988 36.3876 146.725 37.7509 143.746 37.7509C140.514 37.7509 138.494 35.7311 138.242 32.2467H156.825V29.8733C156.825 20.3796 150.614 16.2389 143.393 16.2389C135.414 16.2389 129.102 21.5916 129.102 30.0752V30.4792C129.102 39.1143 135.162 43.9622 143.443 43.9622H143.443ZM138.343 27.1464C138.797 23.9651 140.666 22.1975 143.393 22.1975C146.321 22.1975 147.887 23.9651 148.038 27.1464H138.343Z" fill="#85847B"/>
<path d="M168.367 43.9622C172.609 43.9622 174.932 42.1948 176.194 40.2758V43.3563H184.981V26.2374C184.981 19.2181 180.335 16.2389 173.063 16.2389C165.842 16.2389 160.843 19.3698 160.439 25.7324H168.922C169.124 24.066 170.033 22.6015 172.508 22.6015C175.386 22.6015 175.992 24.2679 175.992 26.7929V27.3988H173.467C164.68 27.3988 159.429 29.8227 159.429 36.034C159.429 41.6393 163.62 43.9622 168.367 43.9622V43.9622ZM171.498 37.8519C169.377 37.8519 168.367 36.8925 168.367 35.3775C168.367 33.2061 169.983 32.4992 173.619 32.4992H175.992V34.1151C175.992 36.3876 174.073 37.8519 171.498 37.8519Z" fill="#85847B"/>
<path d="M190.131 43.355H199.17V28.0541C199.17 25.1756 200.787 23.6102 203.21 23.6102C205.282 23.6102 206.594 24.9231 206.594 27.5997V43.355H215.532V28.0541C215.532 25.1756 217.148 23.6102 219.572 23.6102C221.643 23.6102 222.956 24.9231 222.956 27.5997V43.355H231.995V26.0846C231.995 19.4695 228.359 16.2376 223.36 16.2376C220.027 16.2376 216.897 17.5506 214.624 20.6311C213.36 17.7527 210.937 16.2376 207.453 16.2376C203.363 16.2376 200.586 18.4594 199.17 20.9846V16.9447H190.131V43.3546V43.355Z" fill="#85847B"/>
</svg>
