<svg width="273" height="62" viewBox="0 0 273 62" fill="none" xmlns="http://www.w3.org/2000/svg">
<path fill-rule="evenodd" clip-rule="evenodd" d="M69.6888 38.2222C70.1333 38.9333 70.711 39.4667 71.4221 39.8889C72.1333 40.2889 72.9333 40.6 73.8444 40.7555C74.7333 40.9333 75.6666 41.0222 76.6222 41.0222C77.3555 41.0222 78.1333 40.9778 78.9333 40.8667C79.7555 40.7555 80.4888 40.5778 81.1777 40.2889C81.8444 40 82.3999 39.5778 82.8444 39.0222C83.2888 38.4889 83.511 37.7778 83.511 36.9333C83.511 35.7555 83.0444 34.8667 82.1333 34.2667C81.2221 33.6444 80.0666 33.1555 78.6888 32.8C77.311 32.4222 75.8222 32.0889 74.1999 31.7778C72.5777 31.4667 71.0888 31.0444 69.711 30.4889C68.3333 29.9555 67.1777 29.1778 66.2666 28.1778C65.3555 27.1778 64.8888 25.8 64.8888 24.0222C64.8888 22.6222 65.1999 21.4444 65.8444 20.4444C66.4888 19.4444 67.3333 18.6444 68.3333 18.0222C69.3333 17.4 70.4888 16.9333 71.7555 16.6222C73.0222 16.3333 74.2666 16.1778 75.5333 16.1778C77.1333 16.1778 78.6222 16.3111 79.9777 16.5778C81.3555 16.8444 82.5555 17.3111 83.5999 17.9555C84.6444 18.6222 85.4666 19.5111 86.111 20.6222C86.7333 21.7555 87.0888 23.1333 87.1999 24.8222H82.511C82.4444 23.9333 82.1999 23.1778 81.7999 22.6C81.3999 22.0222 80.8888 21.5555 80.2666 21.1778C79.6444 20.8222 78.9555 20.5778 78.1999 20.4222C77.4444 20.2444 76.6888 20.1778 75.911 20.1778C75.1999 20.1778 74.511 20.2222 73.7777 20.3333C73.0666 20.4444 72.4222 20.6222 71.8222 20.8889C71.2444 21.1555 70.7555 21.5111 70.3999 21.9555C70.0222 22.4 69.8444 22.9778 69.8444 23.6889C69.8444 24.4667 70.1333 25.1333 70.711 25.6444C71.2666 26.1555 71.9999 26.5778 72.8888 26.9111C73.7555 27.2667 74.7555 27.5555 75.8444 27.7778C76.9555 28 78.0666 28.2444 79.1555 28.4889C80.3333 28.7555 81.4888 29.0444 82.5999 29.4C83.711 29.7555 84.711 30.2222 85.5777 30.8222C86.4444 31.4 87.1333 32.1333 87.6666 33.0222C88.1999 33.9111 88.4666 35.0222 88.4666 36.3333C88.4666 38.0222 88.111 39.4 87.3999 40.4889C86.6888 41.6 85.7333 42.4889 84.5777 43.1778C83.4222 43.8444 82.1333 44.3111 80.6666 44.5778C79.2222 44.8444 77.7777 44.9778 76.3555 44.9778C74.7777 44.9778 73.2666 44.8222 71.8222 44.5111C70.3999 44.1778 69.1333 43.6667 68.0222 42.9333C66.9333 42.2 66.0444 41.2444 65.3777 40.0444C64.7333 38.8444 64.3555 37.4 64.2888 35.6889H68.9555C68.9999 36.6889 69.2444 37.5333 69.6888 38.2222Z" fill="#85847B"/>
<path fill-rule="evenodd" clip-rule="evenodd" d="M93.9333 16.8222H98.6V44.4H93.9333V16.8222Z" fill="#85847B"/>
<path fill-rule="evenodd" clip-rule="evenodd" d="M118.067 16.8222V20.8222H112.378V37.9333C112.378 38.4667 112.422 38.8889 112.511 39.2222C112.6 39.5333 112.778 39.8 113.044 39.9778C113.311 40.1556 113.667 40.2667 114.111 40.3111C114.578 40.3555 115.178 40.4 115.911 40.4H118.067V44.4H114.467C113.267 44.4 112.222 44.3111 111.356 44.1556C110.489 44 109.8 43.7111 109.267 43.2667C108.733 42.8444 108.333 42.2444 108.089 41.4667C107.822 40.6889 107.689 39.6444 107.689 38.3555V20.8222H102.844V16.8222H107.689V8.53333H112.378V16.8222H118.067Z" fill="#85847B"/>
<path fill-rule="evenodd" clip-rule="evenodd" d="M143.4 42.6222C141.267 44.2 138.578 44.9778 135.356 44.9778C133.089 44.9778 131.111 44.6222 129.445 43.9111C127.756 43.2 126.356 42.2 125.222 40.9333C124.089 39.6444 123.222 38.1111 122.667 36.3333C122.089 34.5555 121.778 32.6222 121.689 30.5333C121.689 28.4222 122.022 26.5111 122.689 24.7555C123.356 23.0222 124.267 21.5111 125.467 20.2222C126.667 18.9555 128.067 17.9555 129.711 17.2444C131.356 16.5333 133.133 16.1778 135.089 16.1778C137.622 16.1778 139.711 16.6667 141.4 17.6889C143.067 18.7111 144.4 20 145.422 21.5555C146.422 23.1333 147.111 24.8444 147.511 26.6889C147.889 28.5333 148.045 30.2889 147.978 31.9555H126.645C126.622 33.1778 126.756 34.3111 127.089 35.4C127.422 36.4889 127.956 37.4444 128.689 38.2889C129.422 39.1333 130.356 39.8 131.511 40.2889C132.645 40.7778 133.978 41.0222 135.511 41.0222C137.511 41.0222 139.133 40.6 140.4 39.6889C141.667 38.8222 142.511 37.4667 142.911 35.6444H147.533C146.911 38.7333 145.533 41.0667 143.4 42.6222ZM142.267 24.9111C141.845 23.9555 141.289 23.1333 140.556 22.4444C139.845 21.7555 139 21.2 138.022 20.7778C137.067 20.3778 135.978 20.1778 134.8 20.1778C133.6 20.1778 132.489 20.3778 131.533 20.7778C130.556 21.2 129.711 21.7555 129.022 22.4667C128.333 23.1778 127.778 24 127.378 24.9555C126.956 25.8889 126.733 26.8889 126.645 27.9555H143.022C142.933 26.8889 142.689 25.8889 142.267 24.9111Z" fill="#85847B"/>
<path fill-rule="evenodd" clip-rule="evenodd" d="M157.667 16.8222V20.5555H157.778C158.556 19.0222 159.756 17.9111 161.422 17.2222C163.067 16.5111 164.889 16.1778 166.867 16.1778C169.089 16.1778 171 16.5555 172.622 17.3555C174.267 18.1333 175.622 19.1778 176.711 20.5111C177.8 21.8444 178.6 23.4 179.156 25.1333C179.711 26.8889 179.978 28.7333 179.978 30.6889C179.978 32.6444 179.711 34.4889 179.178 36.2222C178.644 37.9778 177.844 39.4889 176.756 40.8C175.689 42.0889 174.311 43.1111 172.689 43.8667C171.044 44.6 169.156 44.9778 166.978 44.9778C166.289 44.9778 165.511 44.9111 164.644 44.7778C163.778 44.6222 162.933 44.4 162.089 44.0667C161.244 43.7555 160.444 43.3111 159.689 42.7555C158.933 42.2222 158.289 41.5333 157.778 40.7111H157.667V54.9111H152.978V16.8222H157.667ZM174.511 26.6C174.156 25.3778 173.622 24.2889 172.911 23.3111C172.2 22.3555 171.267 21.6 170.156 21.0222C169.022 20.4667 167.711 20.1778 166.2 20.1778C164.622 20.1778 163.289 20.4667 162.178 21.0889C161.089 21.6889 160.178 22.4889 159.489 23.4444C158.8 24.4444 158.289 25.5555 157.978 26.7778C157.667 28.0444 157.511 29.2889 157.511 30.5778C157.511 31.9333 157.667 33.2444 158 34.4889C158.333 35.7555 158.844 36.8667 159.578 37.8222C160.289 38.8 161.222 39.5555 162.356 40.1555C163.489 40.7333 164.867 41.0222 166.489 41.0222C168.111 41.0222 169.444 40.7333 170.533 40.1333C171.622 39.5333 172.489 38.7333 173.156 37.7333C173.822 36.7333 174.289 35.6 174.578 34.3111C174.889 33.0222 175.022 31.7111 175.022 30.3555C175.022 29.0889 174.844 27.8222 174.511 26.6Z" fill="#85847B"/>
<path fill-rule="evenodd" clip-rule="evenodd" d="M184.822 24.9555C185.422 23.1778 186.311 21.6667 187.467 20.3555C188.644 19.0667 190.111 18.0444 191.844 17.2889C193.556 16.5555 195.533 16.1778 197.778 16.1778C200.067 16.1778 202.044 16.5555 203.756 17.2889C205.467 18.0444 206.911 19.0667 208.089 20.3555C209.267 21.6667 210.133 23.1778 210.733 24.9555C211.311 26.7111 211.622 28.6 211.622 30.6222C211.622 32.6667 211.311 34.5333 210.733 36.2889C210.133 38.0222 209.267 39.5555 208.089 40.8444C206.911 42.1555 205.467 43.1555 203.756 43.8889C202.044 44.6222 200.067 44.9778 197.778 44.9778C195.533 44.9778 193.556 44.6222 191.844 43.8889C190.111 43.1555 188.644 42.1555 187.467 40.8444C186.311 39.5555 185.422 38.0222 184.822 36.2889C184.244 34.5333 183.956 32.6667 183.956 30.6222C183.956 28.6 184.244 26.7111 184.822 24.9555ZM189.6 35.0889C190.067 36.3778 190.689 37.4667 191.511 38.3333C192.311 39.2 193.244 39.8667 194.333 40.3333C195.422 40.8 196.578 41.0222 197.778 41.0222C199 41.0222 200.133 40.8 201.222 40.3333C202.311 39.8667 203.244 39.2 204.067 38.3333C204.867 37.4667 205.511 36.3778 205.956 35.0889C206.422 33.7778 206.644 32.3111 206.644 30.6222C206.644 28.9555 206.422 27.4667 205.956 26.1778C205.511 24.8889 204.867 23.7778 204.067 22.8889C203.244 22 202.311 21.3333 201.222 20.8667C200.133 20.4 199 20.1778 197.778 20.1778C196.578 20.1778 195.422 20.4 194.333 20.8667C193.244 21.3333 192.311 22 191.511 22.8889C190.689 23.7778 190.067 24.8889 189.6 26.1778C189.133 27.4667 188.911 28.9555 188.911 30.6222C188.911 32.3111 189.133 33.7778 189.6 35.0889Z" fill="#85847B"/>
<path fill-rule="evenodd" clip-rule="evenodd" d="M217.4 16.8222H222.089V44.4H217.4V16.8222Z" fill="#85847B"/>
<path fill-rule="evenodd" clip-rule="evenodd" d="M233.755 16.8222V21.1778H233.867C235.822 17.8444 238.911 16.1778 243.133 16.1778C245 16.1778 246.555 16.4222 247.8 16.9111C249.067 17.4222 250.067 18.1111 250.844 19C251.622 19.8889 252.155 20.9555 252.467 22.1778C252.778 23.4 252.933 24.7555 252.933 26.2444V44.4H248.244V25.7111C248.244 24.0222 247.733 22.6667 246.711 21.6667C245.689 20.6667 244.267 20.1778 242.467 20.1778C241.022 20.1778 239.8 20.3778 238.733 20.8222C237.689 21.2444 236.822 21.8444 236.133 22.6222C235.422 23.4 234.911 24.3333 234.555 25.3778C234.2 26.4222 234.044 27.5778 234.044 28.8222V44.4H229.355V16.8222H233.755Z" fill="#85847B"/>
<path fill-rule="evenodd" clip-rule="evenodd" d="M272.156 16.8222V20.8222H266.489V37.9333C266.489 38.4667 266.533 38.8889 266.622 39.2222C266.711 39.5333 266.889 39.8 267.156 39.9778C267.4 40.1556 267.756 40.2667 268.222 40.3111C268.689 40.3555 269.289 40.4 270 40.4H272.156V44.4H268.578C267.378 44.4 266.333 44.3111 265.467 44.1556C264.6 44 263.911 43.7111 263.378 43.2667C262.844 42.8444 262.444 42.2444 262.2 41.4667C261.933 40.6889 261.8 39.6444 261.8 38.3555V20.8222H256.956V16.8222H261.8V8.53333H266.489V16.8222H272.156Z" fill="#85847B"/>
<path fill-rule="evenodd" clip-rule="evenodd" d="M1.48886 27.3778L5.8222 31.5778L19.4666 44.3333L25.3555 38.6444C25.8889 37.9111 25.8666 36.9111 25.2444 36.2L19.8666 31.4889H19.8889L14.0889 25.8667C13.4222 25.0889 13.4222 23.9333 14.1555 23.2L29.7333 8.13333L22.6666 1.26666L1.51108 21.6889C-0.111137 23.2667 -0.111137 25.8222 1.48886 27.3778Z" fill="#85847B"/>
<path fill-rule="evenodd" clip-rule="evenodd" d="M48.0001 34.6667L43.6889 30.4889L30.0223 17.7333L24.1334 23.4C23.6001 24.1556 23.6445 25.1556 24.2445 25.8667L29.6223 30.5778L35.4001 36.2C36.0889 36.9778 36.0667 38.1111 35.3556 38.8667L19.7556 53.9333L26.8445 60.8L43.6667 44.5556L48.0001 40.3556C49.6223 38.8 49.6223 36.2444 48.0001 34.6667Z" fill="#85847B"/>
<path fill-rule="evenodd" clip-rule="evenodd" d="M98.9999 11.1778C98.9999 12.6444 97.7776 13.8222 96.2665 13.8222C94.7554 13.8222 93.5332 12.6444 93.5332 11.1778C93.5332 9.73332 94.7554 8.53333 96.2665 8.53333C97.7776 8.53333 98.9999 9.73332 98.9999 11.1778Z" fill="#85847B"/>
<path fill-rule="evenodd" clip-rule="evenodd" d="M222.467 11.1778C222.467 12.6444 221.244 13.8222 219.733 13.8222C218.222 13.8222 217 12.6444 217 11.1778C217 9.73332 218.222 8.53333 219.733 8.53333C221.244 8.53333 222.467 9.73332 222.467 11.1778Z" fill="#85847B"/>
</svg>
