<svg width="111" height="62" viewBox="0 0 111 62" fill="none" xmlns="http://www.w3.org/2000/svg">
<path d="M72.2866 46.1261C72.2232 44.261 71.6741 42.2879 70.2722 40.9873C68.7064 39.5346 66.4418 38.8677 64.3374 38.8677H54.9535C54.0281 38.8677 53.2067 38.1717 53.2067 37.313C53.2067 36.5909 53.6997 35.9858 54.3668 35.8108C54.3648 35.8099 54.5251 35.7693 54.6982 35.7142C56.377 36.5207 58.2717 36.8844 60.1635 36.8844C63.0569 36.8844 65.9568 36.0344 68.0803 34.0497C70.1471 32.1179 71.1131 29.4154 71.1131 26.651C71.1131 23.8866 70.1471 21.1842 68.0803 19.2524C67.471 18.6829 66.7977 18.2076 66.0794 17.8182C68.0717 18.2795 70.1276 17.707 71.5443 15.2662L67.5569 12.4016L64.2305 17.0316C62.93 16.6126 61.5463 16.4177 60.1635 16.4177C57.2704 16.418 54.3697 17.2682 52.247 19.2524C50.1797 21.1847 49.2139 23.886 49.2139 26.651C49.2139 29.4161 50.1797 32.1176 52.247 34.0497C52.4267 34.2179 52.6126 34.377 52.803 34.5291C52.5991 34.6372 52.4152 34.7349 52.415 34.7347C51.6516 35.162 50.7173 35.8456 49.7924 36.8294C48.4812 38.2242 47.1699 40.3142 47.1699 43.0944C47.1699 43.0944 46.9884 49.0261 53.8013 49.0261H58.7367C59.8723 49.0261 61.029 49.7481 61.029 50.8839C61.029 51.2955 60.9076 51.6785 60.6991 52.0002H70.1385C71.5654 50.414 72.3557 48.1628 72.2866 46.1261ZM58.4903 24.8233C58.9568 24.3564 59.5945 24.1564 60.2305 24.1564C60.8666 24.1564 61.5041 24.3564 61.9709 24.8233C62.4252 25.2775 62.6376 25.9133 62.6376 26.5635C62.6376 27.2139 62.4252 27.8495 61.9709 28.3038C61.5041 28.7705 60.8666 28.9705 60.2305 28.9705C59.5945 28.9705 58.9568 28.7705 58.4903 28.3038C58.0358 27.8493 57.8234 27.2139 57.8234 26.5635C57.8234 25.9131 58.0358 25.2777 58.4903 24.8233Z" fill="#85847B"/>
<path d="M99.1286 46.1261C99.0653 44.261 98.5161 42.2879 97.1142 40.9873C95.5487 39.5346 93.284 38.8677 91.1795 38.8677C91.1793 38.8677 80.2878 38.7893 80.2878 38.7893C79.6009 38.7893 79.0765 38.3575 79.0765 37.7204C79.0765 37.1961 79.3372 36.414 79.9947 36.2841C81.2823 36.6942 82.6515 36.8844 84.0188 36.8844C86.9126 36.8844 89.8125 36.0344 91.9356 34.0497C94.0024 32.1179 94.9684 29.4154 94.9684 26.651C94.9684 23.8866 94.0024 21.1842 91.9356 19.2524C91.3266 18.6829 90.6531 18.2076 89.9347 17.8182C91.9271 18.2795 93.9831 17.707 95.3996 15.2662L91.4122 12.4016L88.0858 17.0316C86.7857 16.6126 85.4017 16.4177 84.0188 16.4177C81.1257 16.418 78.2251 17.2682 76.1023 19.2524C74.0352 21.1847 73.0696 23.886 73.0696 26.651C73.0696 29.4161 74.0352 32.1176 76.1023 34.0497C76.7147 34.6222 77.3923 35.0997 78.115 35.4902C77.6378 35.8535 77.135 36.2971 76.6345 36.8294C75.3232 38.2242 74.012 40.3142 74.012 43.0944C74.012 43.0944 73.8305 49.0261 80.6436 49.0261H85.5787C86.7143 49.0261 87.8711 49.7481 87.8711 50.8839C87.8711 51.2955 87.7498 51.6785 87.5412 52.0002H96.9807C98.4076 50.414 99.1978 48.1628 99.1286 46.1261ZM82.4109 24.8233C82.8775 24.3564 83.5151 24.1564 84.1511 24.1564C84.7872 24.1564 85.4248 24.3564 85.8917 24.8233C86.3458 25.2775 86.5582 25.9133 86.5582 26.5635C86.5582 27.2139 86.3458 27.8495 85.8917 28.3038C85.4248 28.7705 84.7872 28.9705 84.1511 28.9705C83.5151 28.9705 82.8775 28.7705 82.4109 28.3038C81.9564 27.8493 81.744 27.2139 81.744 26.5635C81.744 25.9131 81.9564 25.2777 82.4109 24.8233Z" fill="#85847B"/>
<path d="M110.592 43.0738V34.2198C108.56 34.4778 107.852 33.0442 107.852 31.6209V10H97.769V33.236C97.769 36.1221 98.1983 38.5283 99.2389 40.0421C100.838 42.3468 103.002 43.856 107.305 43.8733C108.1 43.839 109.426 43.6822 110.592 43.0738Z" fill="#85847B"/>
<path d="M43.7161 20.2693C41.1124 17.6127 37.5568 16.4749 34.0088 16.4749C30.4612 16.4749 26.9051 17.613 24.3019 20.2693C21.7672 22.8556 20.583 26.4719 20.583 30.1733C20.583 33.8744 21.7672 37.4904 24.3019 40.0771C26.9047 42.7331 30.4614 43.8714 34.0088 43.8714C37.5568 43.8714 41.1128 42.7336 43.7161 40.0771C46.2503 37.4913 47.435 33.8739 47.435 30.1733C47.435 26.4725 46.2503 22.8551 43.7161 20.2693ZM36.2028 32.3036C35.5998 32.9065 34.7762 33.1649 33.9542 33.1649C33.1326 33.1649 32.3087 32.9065 31.7058 32.3036C31.1187 31.7163 30.8447 30.8954 30.8447 30.055C30.8447 29.2147 31.1187 28.3939 31.706 27.8068C32.3091 27.2036 33.1326 26.9453 33.9542 26.9453C34.7762 26.9453 35.5998 27.2036 36.2028 27.8068C36.7898 28.3939 37.064 29.215 37.064 30.055C37.064 30.895 36.7898 31.7165 36.2028 32.3036Z" fill="#85847B"/>
<path d="M17.0287 34.2554C15.3516 34.2554 14.665 33.741 14.0453 32.9535C13.6443 32.4396 13.4437 31.6843 13.4437 30.7041V26.1209H19.0717V17.9055H13.4437V10H6.25009V12.9554C6.25009 16.2295 3.75571 18.8836 0.67869 18.8836C0.448709 18.8836 0.22257 18.8671 0 18.8383V26.1209H3.77711V33.4393C3.77711 36.3197 4.29663 38.5387 5.33538 40.0496C6.94059 42.3631 8.71895 43.8741 13.0628 43.8741C15.5816 43.8741 17.6893 43.295 19.0717 42.5241V33.9155C18.5507 34.1159 17.846 34.2554 17.0287 34.2554Z" fill="#85847B"/>
</svg>
