<svg xmlns="http://www.w3.org/2000/svg" width="1280" height="720" overflow="hidden"><defs><clipPath id="clip0"><path d="M0 0h1280v720H0z"/></clipPath></defs><g id="slide44-contents" clip-path="url(#clip0)"><path d="M0 0h1280v720H0z"/><text fill="#FFF" font-family="Fira Code,Fira Code_MSFontService,sans-serif" font-size="19" font-weight="400" transform="translate(333.972 617)">
      <tspan x="-198.179" y="-529" font-size="32" font-weight="700">
        hydrateRoot</tspan>
      <tspan x="18.155" y="-529" font-size="32" font-weight="700">();</tspan>
      <tspan x="-286.657" y="-508" font-family="Montserrat Black,Montserrat Black_MSFontService,sans-serif" font-size="88" font-weight="900">1</tspan>
    </text><g id="second-entry"><text fill="#FFF" font-family="Fira Code,Fira Code_MSFontService,sans-serif" font-size="19" font-weight="400" transform="translate(333.972 617)">
        <tspan x="-286.854" y="-393" font-family="Montserrat Black,Montserrat Black_MSFontService,sans-serif" font-size="88" font-weight="900">2</tspan>
      </text><path fill="none" fill-rule="evenodd" stroke="#FFF" stroke-miterlimit="8" stroke-width="1.333" d="M134.5 156.5c15.658-1.417 39.092.159 71.077 0s42.113-.578 61.837 0c19.724.578 56.41 2.611 71.077 0 14.667-2.611 30.835.564 43.357 0 12.522-.564 58.691-1.479 89.557 0s59.65 2.997 80.317 0c20.666-2.997 24.634 1.237 43.356 0 18.723-1.237 29.178-.026 43.357 0 14.18.026 43.329 1.32 71.077 0 27.749-1.32 55.466-1.223 89.557 0 34.092 1.223 35.977 1.346 52.597 0 16.62-1.346 48.181-.038 89.557 0 41.376.038 70.007-4.266 117.277 0 .75 24.475-1.96 52.609 0 68.4 1.96 15.791 1.78 41.677 0 68.4-1.78 26.723 1.72 51.071 0 72-1.72 20.929 1.9 54.319 0 72-1.9 17.681-1.55 41.438 0 79.2-21.11 1.904-59.833-1.724-80.317 0-20.484 1.724-48.942-2.922-61.837 0-12.894 2.922-40.017-.035-61.837 0-21.819.035-36.055.05-71.077 0-35.021-.05-57.648-.944-80.317 0-22.668.944-26.989-1.434-43.356 0-16.368 1.434-45.653.712-71.077 0-25.425-.712-61.41-.652-89.557 0-28.147.652-29.545 1.463-52.597 0-23.053-1.463-37.23.963-52.597 0-15.368-.963-34.864-.995-52.597 0-17.733.995-34.522-2.483-61.837 0-27.315 2.483-39.61 1.732-61.837 0-22.227-1.732-56.186-.466-83.16 0-.814-23.551-.465-51.731 0-64.8.466-13.069 1.755-38.53 0-72s1.315-54.256 0-72 .323-57.28 0-72c-.323-14.72 3.417-57.113 0-79.2Z"/><path fill="#FFDB01" d="M869 181h15v15h-15z"/><text fill="#FFF" font-family="Montserrat,Montserrat_MSFontService,sans-serif" font-size="19" font-weight="400" transform="translate(893.359 195)"> = urgent</text><path fill="#FFF" d="M869 219h15v15h-15z"/><text fill="#FFF" font-family="Montserrat,Montserrat_MSFontService,sans-serif" font-size="19" font-weight="400" transform="translate(893.359 233)"> = non-urgent
      </text></g><g id="app"><text x="-286.854" y="26" fill="#FFF" font-family="Montserrat Black,Montserrat Black_MSFontService,sans-serif" font-size="88" font-weight="900" transform="translate(333.972 617)">3
      </text><path fill="none" fill-rule="evenodd" stroke="#FFDB01" stroke-miterlimit="8" stroke-width="4" d="M134 575c38.005-2.489 54.214-.574 82.44 0s31.191-1.91 54.96 0c23.769 1.91 47.653-1.006 68.7 0 21.047 1.006 47.261-1.708 82.44 0 35.179 1.708 48.273-2.689 82.44 0 34.167 2.689 24.319.776 48.09 0 23.771-.776 54.319 1.448 68.7 0s46.594-.134 82.44 0 92.438 1.887 116.79 0c-.46 10.526.058 19.807 0 36.75s-.194 29.318 0 38.25c-18.744-2.123-24.555-1.807-48.09 0-23.535 1.807-32.833-1.246-54.96 0-22.127 1.246-37.834 2.341-48.09 0s-32.655-.825-48.09 0c-15.435.825-36.586 1.628-48.09 0-11.504-1.628-35.985-.337-48.09 0-12.105.337-56.525-3.537-82.44 0s-65.884 2.05-82.44 0c-16.556-2.05-47.796-1.709-82.44 0s-38.74 2.133-61.83 0c-23.09-2.133-65.21-2.336-82.44 0-1.489-8.055-.998-26.322 0-37.5s-1.454-24.988 0-37.5Z"/><path fill="none" fill-rule="evenodd" stroke="#FFDB01" stroke-miterlimit="8" stroke-width="4" d="M163 588c27.639 2.956 51.011-1.211 68.12 0s34.461 2.561 62.88 0c.774 17.071 1.569 28.98 0 46-18.598-2.963-33.777-1.213-61.57 0s-52.161-.587-69.43 0c1.059-15.014-.609-34.179 0-46Z"/><text fill="#FFF" font-family="Fira Code,Fira Code_MSFontService,sans-serif" font-size="19" font-weight="400" transform="translate(199.889 617)">&lt;App&gt;</text><path fill="none" fill-rule="evenodd" stroke="#FFDB01" stroke-miterlimit="8" stroke-width="4" d="M399 206c22.843 2.129 27.276 2.429 49.92 0 22.644-2.429 33.692-1.057 46.08 0 .775 17.071 1.571 28.98 0 46-9.395-.457-29.63 1.546-45.12 0-15.491-1.546-28.733 2.158-50.88 0 1.06-15.014-.61-34.179 0-46Z"/><text fill="#FFF" font-family="Fira Code,Fira Code_MSFontService,sans-serif" font-size="19" font-weight="400" transform="translate(417.964 234)">&lt;App&gt;</text></g><g id="content"><path fill="#FFDB01" d="M341.816 265.951c-.581 5.224 4.781 2.841 6.528.47 5.194-5.166 13.629-8.786 19.284-13.308 6.214-3.612 12.056-6.375 18.3-10.11 5.468-3.265-8.153-6.095-2.474.052 5.6.716 1.984-5.307.479-3.171-2.78 1.018-8.488 3.777-11.876 6.071-7.425 3.648-15.39 9.206-22.711 14.496a283.162 283.162 0 0 1-6.554 5.633c5.626 3.431 2.198-5.098-.976-.133Z"/><path fill="#FFDB01" d="M350.095 252.207c2.705.91 3.105-6.757-1.408-2.63-.192.603-3.874 3.622-5.509 6.123-3.266 4.608-7.026 7.219-10.154 12.371-1.952 5.708 5.774 5.02 9.28 4.549 3.679-1.066 9.922.633 11.435-3.775-2.921-3.465-7.653-.397-11.764-.655-1.443.71-8.699-1.23-5.157 1.002.525 1.524.464-1.965 2.966-3.711 2.642-3.456 5.826-6.957 8.095-9.877 2.672-2.755 6.974-4.837 3.317-7.954 1.294-.17-6.431.401-2.509 4.4l1.408.157Z"/><path fill="none" fill-rule="evenodd" stroke="#FFDB01" stroke-miterlimit="8" stroke-width="4" d="M264 279c27.639 2.956 51.011-1.211 68.12 0s34.461 2.561 62.88 0c.774 17.071 1.569 28.98 0 46-18.598-2.963-33.777-1.213-61.57 0s-52.161-.587-69.43 0c1.059-15.014-.609-34.179 0-46Z"/><text fill="#FFF" font-family="Fira Code,Fira Code_MSFontService,sans-serif" font-size="19" font-weight="400" transform="translate(277.534 308)">&lt;Content&gt;</text><path fill="none" fill-rule="evenodd" stroke="#FFDB01" stroke-miterlimit="8" stroke-width="4" d="M314 588c22.731-3.392 38.752 1.578 74.36 0s36.188-.131 68.64 0c.775 17.071 1.57 28.98 0 46-20.488-1.918-51.103 2.908-67.21 0-16.107-2.908-44.925.377-75.79 0 1.06-15.014-.61-34.179 0-46Z"/><text fill="#FFF" font-family="Fira Code,Fira Code_MSFontService,sans-serif" font-size="19" font-weight="400" transform="translate(333.972 617)">&lt;Content&gt; </text></g><g id="suspense"><path fill="#fff" d="M412.692 314.355c.404-.56.096-.256-2.609.502.09.382 2.439 3.381 4.002 5.754 5.015 6.225 9.991 13.591 16.494 18.74 2.424 4.638 7.956-5.181.615-2.204.412 6.516 6.116-.506 1.253-1.455-3.597-3.837-7.469-9.026-10.817-12.713-3.207-3.959-5.405-7.783-9.158-11.316-4.75-1.288-3.683 1.173-3.514 2.692-.786 3.23 4.551 3.177 3.734 0Z"/><path fill="#fff" d="M413.712 329.487c2.7-.572-6.618 1.749-1.641 6.687 4.374 2.569 7.32 2.748 12.074 3.726 3.194.676 7.272-1.321 7.289-3.941 1.265-3.648-.09-9.265.441-11.504-.807-1.204 3.835-5.61-1.728-5.178-.965 1.837-1.841 3.008-2.366 6.519-.105 2.006-.323 7.021-.157 7.274-1.46 3.953.544 2.042-1.531 2.471-2.685.217-3.221-.571-6.356-1.153-1.641-.342-6.283-3.075-5.427-2.288 1.725 3.504-.159-.115 2.789-.557 1.345-2.165-2.1-4.23-3.387-2.056Z"/><path fill="none" fill-rule="evenodd" stroke="#FFF" stroke-miterlimit="8" stroke-width="4" d="M359 353c16.089-1.189 39.417-1.725 53.353 0s30.095-1.746 47.314 0c17.218 1.746 31.428-2.329 50.333 0 .856 22.678 1.703 28.789 0 46-20.077 2.527-41.092 1.658-53.353 0-12.262-1.658-34.283 1.719-51.844 0-17.56-1.719-34.279 2.249-45.803 0-2.025-20.321 1.024-30.522 0-46Z"/><text fill="#FFF" font-family="Fira Code,Fira Code_MSFontService,sans-serif" font-size="19" font-weight="400" transform="translate(377.173 382)">&lt;Suspense&gt;</text></g><g id="menu"><path fill="#FFDB01" d="M508.289 238.567c-5.122 2.366-.861-1.448-4.621 3.604.861 1.296 1.791 1.634 3.7 4.77 6.803 7.5 11.279 19.964 21.509 26.248 3.233 1.97 10.418.654 8.212-4.22-5.567.644-2.75 1.108-5.421.576-2.71-.861-6.093-5.242-8.625-8.238-4.267-6.551-9.188-13.63-13.424-18.838-3.911-2.895-1.551-3.458-2.992-.002-.863.86 3.387.915 2.921-3.329l-1.259-.571Z"/><path fill="#FFDB01" d="M504.912 266.025c.575 3.96 6.221 4.771 4.913 3.609 5.796 1.94 11.573 3.626 17.675 4.925 3.209.648 7.435-.839 7.443-3.493.751-5.188 1.207-10.375 1.04-16.166-3.804-5.025-3.671 4.094-3.488 5.636-.793 3.642-.574 6.388-1.304 9.229-1.635 1.516 1.864.689-1.777.712-2.71.355-5.427-1.135-8.505-1.606-4.383-1.175-11.349-3.076-12.887-3.286 2.411 4.759-.689-6.289-3.11.44Z"/><path fill="none" fill-rule="evenodd" stroke="#FFDB01" stroke-miterlimit="8" stroke-width="4" d="M474 279c23.654 2.871 43.024 1.86 65.367 0 22.343-1.86 35.679 2.587 57.966 0 22.288-2.587 35.572-.462 61.667 0 .854 22.678 1.7 28.789 0 46-29.372-1.273-37.526-3.229-65.367 0-27.84 3.229-35.587 2.404-63.516 0-27.929-2.404-33.232-1.804-56.117 0-2.022-20.321 1.023-30.522 0-46Z"/><text fill="#FFF" font-family="Fira Code,Fira Code_MSFontService,sans-serif" font-size="19" font-weight="400" transform="translate(532.245 308)">&lt;Menu&gt;</text><path fill="none" fill-rule="evenodd" stroke="#FFDB01" stroke-miterlimit="8" stroke-width="4" d="M477 588c14.154 1.448 37.736-2.064 54.413 0s27.485-1.432 48.254 0c20.768 1.432 40.107-1.437 51.333 0 .857 22.678 1.705 28.789 0 46-12.383.475-33.438 1.51-54.413 0-20.975-1.51-42.249.322-52.874 0-10.624-.322-35.95-.073-46.713 0-2.028-20.321 1.026-30.522 0-46Z"/><text fill="#FFF" font-family="Fira Code,Fira Code_MSFontService,sans-serif" font-size="19" font-weight="400" transform="translate(519.616 617)">&lt;Menu&gt;</text></g><g id="dropdown"><path fill="#FFDB01" d="M695.239 341.331c-.7-1.36 2.556 3.003 1.153.959-.204 3.328 7.125-.383 1.359-2.559-1.908-1.283-6.683-5.805-10.254-8.399-5.007-3.974-10.232-8.582-16.06-11.936-3.959-4.84-5.814 7.256-.168.727-4.55-4.619-5.303 2.945-.792 3.205 2.363 1.745 6.963 5.019 10.027 7.526 5.134 3.923 10.297 8.564 15.783 12.533 5.68 1.86 2.793-4.736 3.697-2.93-2.915-1.152-.759-3.46-5.808-.711l.674 1.327.389.258Z"/><path fill="#FFDB01" d="M697.339 325.903c-5.359.379-2.167 7.783-.823 10.331 2.03 4.542 5.188 10.641 6.006 13.292.824.063.509-.104-3.782-.392-4.839.059-7.716-.689-12.207-.354-2.668 5.895 6.735 4.809 10.549 4.846 3.78.11 10.589-.635 8.393-5.996-1.853-4.221-5.179-11.35-6.946-14.752-1.421-2.915.327-5.317-2.114-3.15 1.187.913 6.071-2.621.924-3.825Z"/><path fill="none" fill-rule="evenodd" stroke="#FFDB01" stroke-miterlimit="8" stroke-width="4" d="M713 353c15.968 2.815 48.154.749 64.66 0 16.506-.749 35.79-2.329 57.34 0 21.55 2.329 46.125.211 61 0 .853 22.678 1.697 28.789 0 46-18.056-.868-34.759-1.621-64.66 0-29.901 1.621-38.617-2.687-62.83 0s-32.756 1.405-55.51 0c-2.018-20.321 1.021-30.522 0-46Z"/><text fill="#FFF" font-family="Fira Code,Fira Code_MSFontService,sans-serif" font-size="19" font-weight="400" transform="translate(746.851 382)">&lt;Dropdown&gt;</text><path fill="none" fill-rule="evenodd" stroke="#FFDB01" stroke-miterlimit="8" stroke-width="4" d="M649 589c22.731-3.392 38.752 1.578 74.36 0s36.188-.131 68.64 0c.775 17.071 1.57 28.98 0 46-20.488-1.918-51.103 2.908-67.21 0-16.107-2.908-44.925.377-75.79 0 1.06-15.014-.61-34.179 0-46Z"/><text fill="#FFF" font-family="Fira Code,Fira Code_MSFontService,sans-serif" font-size="19" font-weight="400" transform="translate(662.871 618)">&lt;Dropdown&gt;</text></g><g id="h1"><path fill="#fff" d="M328.746 411.31c1.072-1.193-5.771 4.909 1.133 4.074 4.851-3.619 9.316-7.68 14.432-10.593 3.016-2.809 6.213-4.097 10.143-7.07 4.072-.894-5.161-6.779-1.086-.134.222 1.659 3.894-5.436-2.236-2.073-2.007.476-10.315 5.853-7.441 4.453-2.515 2.13-6.94 4.332-9.494 6.813-2.867 1.899-4.789 4.1-7.173 5.634-1.852-.472 2.047 7.913 5.314.491 1.1-2.31-2.617-3.96-3.592-1.595Z"/><path fill="#fff" d="M333.471 401.031c2.993 2.154 6.274-5.771.531-2.994-.513 1.358-2.394 2.925-4.518 5.651-2.618 3.898-8.812 10.977-4.96 16.63 5.784 2.581 12.875.544 18.152-2.587 1.393-6.071-8.791-.424-8.076-.854-3.447.314-7.505.767-7.744-.058 1.258 1.945-.041-2.124 1.635-4.216 1.329-2.967 3.76-6.101 5.764-8.572 2.817-2.346 4.827-5.592 1.022-6.978 1.961-1.578-7.346 2.543-1.806 3.978Z"/><path fill="none" fill-rule="evenodd" stroke="#FFF" stroke-miterlimit="8" stroke-width="4" d="M186 427c27.771-2.052 38.155-.415 59.713 0 21.559.415 27.861-1.705 52.954 0 25.092 1.705 38.566.835 56.333 0 .854 22.678 1.699 28.789 0 46-13.536 1.318-42.078-.799-59.713 0-17.636.799-33.829-.456-58.024 0s-39.622-2.362-51.263 0c-2.021-20.321 1.022-30.522 0-46Z"/><text fill="#FFF" font-family="Fira Code,Fira Code_MSFontService,sans-serif" font-size="19" font-weight="400" transform="translate(247.578 456)">&lt;H1&gt;
      </text><path fill="none" fill-rule="evenodd" stroke="#FFF" stroke-miterlimit="8" stroke-width="4" d="M844 575c19.495-3.003 49.129 1.649 76.32 0 27.191-1.649 40.284 1.268 67.68 0 27.4-1.268 37.12.691 72 0 1.17 12.548-.71 20.088 0 39s-.86 28.341 0 36c-18.91-2.892-52.03.388-67.68 0-15.648-.388-48.36-.913-67.68 0-19.32.913-47.412-2.807-80.64 0-1.272-16.012.702-21.267 0-35.25s1.511-20 0-39.75Z"/><path fill="none" fill-rule="evenodd" stroke="#FFF" stroke-miterlimit="8" stroke-width="4" d="M873 588c16.503-1.685 50.597 2.573 69 0 1.646 18.426 1.372 24.508 0 46-22.501 2.51-40.618 2.588-69 0 .267-12.72 1.73-24.76 0-46Z"/><text fill="#FFF" font-family="Fira Code,Fira Code_MSFontService,sans-serif" font-size="19" font-weight="400" transform="translate(884.754 617)">&lt;H1&gt;</text></g><g id="p"><path fill="#fff" d="M445.079 408c3.722 2.228 3.003-7.653-.349-1.15.033 1.696-.974 3.529-1.349 6.296-.713 3.969-.397 3.066-.989 6.051 4.407 2.713 3.765-3.161 4.551-4.864.772-3.181 1.062-3.522 1.652-6.629.086-3.796-3.869-4.91-4.991-1.176l.502.97.973.502Z"/><path fill="#fff" d="M434.311 413.718c1.633-.934-2.689-.223.572 3.676 4.615-3.24-.521-.02 1.156-.468-.699-.607.973 2.255 3.514 3.833 5.326 2.439 9.409-3.104 11.933-6.289 3.061-10.491-9.947 6.099-6.772 2.126-.537.955-3.583.768-3.282.647-1.066-.533-1.447-2.446-4.037-4.161-4.642-2.975-6.205 6.647-.659 3.65-1.46 8.036 3.641-10.814-2.425-3.014Z"/><path fill="none" fill-rule="evenodd" stroke="#FFF" stroke-miterlimit="8" stroke-width="4" d="M394 427c24.147-2.311 39.778-.27 59.36 0s30.017 1.072 52.64 0 30.359 2.678 56 0c.852 22.678 1.696 28.789 0 46-14.759-.207-41.1.023-59.36 0-18.26-.023-44.835 1.21-57.68 0-12.845-1.21-25.981-.014-50.96 0-2.017-20.321 1.02-30.522 0-46Z"/><text fill="#FFF" font-family="Fira Code,Fira Code_MSFontService,sans-serif" font-size="19" font-weight="400" transform="translate(461.042 456)">&lt;P&gt;</text><path fill="none" fill-rule="evenodd" stroke="#FFF" stroke-miterlimit="8" stroke-width="4" d="M964 588c16.503-1.685 50.6 2.573 69 0 1.65 18.426 1.37 24.508 0 46-22.5 2.51-40.618 2.588-69 0 .267-12.72 1.73-24.76 0-46Z"/><text fill="#FFF" font-family="Fira Code,Fira Code_MSFontService,sans-serif" font-size="19" font-weight="400" transform="translate(981.07 617)">&lt;P&gt;</text></g><g id="link"><path fill="#fff" d="M530.372 391.268c-.529-1.849-6.332 4.278-.493 4.644 2.187.046 3.903.804 7.233 1.687 5.41 2.157 13.291 4.397 19.167 7.124 8.396 2.967 16.582 5.835 25.264 7.453 2.365.767 7.841 1.949 9.911 3.072 1.13.598 3.434 2.383 5.067 3.069 2.247.14.598 2.819 4.78-.482-1.567-1.96-5.546-4.56-6.066.355 3.348 3.431 2.914-2.462 4.602-1.611 1.132.378-.784-.932-3.206-2.856-6.91-5.583-15.398-5.561-22.551-7.97-9.128-2.554-16.643-5.366-25.524-8.755-5.908-1.987-13.149-5.105-18.149-5.312-.937-1.478-1.085 3.021-.357 3.43.727 1.251 5.829-3.157.322-3.848Z"/><path fill="#fff" d="M587.032 401.786c-2.191-.745-5.597-2.556-8.74-.924-3.29 3.884 6.447 5.457 4.715 5.021 2.292.948 4.795 2.056 6.58 3.357 2.467 1.724 5.391 3.281 6.989 4.907 3.14 1.765 5.081 3.833 4.104 2.968 5.674-1.471.22-4.096-2.611-2.613-3.26.626-9.007-.273-12.977.896-.951 4.606 5.115 2.554 8.171 3.146 3.369.268 6.824-.543 8.41-.651 3.873-2.679.779-4.842-1.652-6.279-.582-.518-3.727-2.959-5.262-3.913-2.855-1.996-8.301-5.278-11.099-5.79-5.214-2.235.912 1.528-5.294-1.123-2.345 5.853 7.221 2.576 5.744 3.759-.885.146 7.252 2.549 2.922-2.761Z"/><path fill="none" fill-rule="evenodd" stroke="#FFF" stroke-miterlimit="8" stroke-width="4" d="M602 427c26.147-1.936 41.091 2.275 59.713 0 18.623-2.275 33.903-1.007 52.954 0 19.051 1.007 31.889-1.569 56.333 0 .85 22.678 1.691 28.789 0 46-20.306-.314-37.572 2.663-59.713 0-22.142-2.663-36.946-.756-58.024 0-21.077.756-32.926.711-51.263 0-2.011-20.321 1.017-30.522 0-46Z"/><text fill="#FFF" font-family="Fira Code,Fira Code_MSFontService,sans-serif" font-size="19" font-weight="400" transform="translate(651.911 456)">&lt;Link&gt;</text><path fill="none" fill-rule="evenodd" stroke="#FFF" stroke-miterlimit="8" stroke-width="4" d="M1083 575c17.25-1.417 33.2-1.521 55.83 0 22.62 1.521 38.95.593 49.5 0 10.56-.593 31.05 1.156 52.67 0 1.17 12.548-.71 20.088 0 39s-.86 28.341 0 36c-15.31.102-31.87-.868-49.51 0-17.64.868-37.74-.816-49.5 0-11.77.816-35.69.731-58.99 0-1.27-16.012.7-21.267 0-35.25s1.51-20 0-39.75Z"/><path fill="none" fill-rule="evenodd" stroke="#FFF" stroke-miterlimit="8" stroke-width="4" d="M1108 589c20.15-1.916 41.63.614 55.12 0 13.49-.614 31.82-1.095 50.88 0 .78 17.071 1.58 28.98 0 46-22.82-2.177-29.32 1.529-49.82 0s-34.97-1.824-56.18 0c1.07-15.014-.61-34.179 0-46Z"/><text fill="#FFF" font-family="Fira Code,Fira Code_MSFontService,sans-serif" font-size="19" font-weight="400" transform="translate(1126.59 618)">&lt;Link&gt;</text></g></g><style>@keyframes appear{0%{opacity:0}to{opacity:1}}@keyframes second-entry-appear{0%,1.25%{opacity:0}7.5%,to{opacity:1}}@keyframes app-appear{0%,12%{opacity:0}18.25%,to{opacity:1}}@keyframes content-appear{0%,25%{opacity:0}31.25%,to{opacity:1}}g#slide44-contents g{opacity:0;animation:appear 500ms ease forwards;animation-play-state:paused}#second-entry{animation-delay:100ms!important}#app{animation-delay:1s!important}#content{animation-delay:2s!important}#suspense{animation-delay:3s!important}#menu{animation-delay:4s!important}#dropdown{animation-delay:5s!important}#h1{animation-delay:6s!important}#p{animation-delay:7s!important}#link{animation-delay:8s!important}</style></svg>