<svg width="178" height="167" viewBox="0 0 178 167" fill="none" xmlns="http://www.w3.org/2000/svg">
<path d="M64.5229 19.0774C72.0237 14.0326 81.3081 12.3955 90.0818 14.5706L129.59 24.3652C139.182 26.7431 147.136 33.419 151.142 42.4524L164.922 73.5255C169.139 83.0331 168.471 93.9967 163.133 102.923L144.148 134.668C139.381 142.638 131.387 148.144 122.241 149.757L80.5396 157.11C71.3939 158.723 61.9986 156.282 54.7934 150.423L26.0956 127.086C18.0263 120.524 13.6495 110.45 14.3597 100.074L16.6809 66.1617C17.3557 56.3028 22.5475 47.3088 30.7474 41.7938L64.5229 19.0774Z" fill="#FFDB01"/>
</svg>
