<?xml version="1.0" encoding="UTF-8" standalone="no"?>
<svg
   xmlns:dc="http://purl.org/dc/elements/1.1/"
   xmlns:cc="http://creativecommons.org/ns#"
   xmlns:rdf="http://www.w3.org/1999/02/22-rdf-syntax-ns#"
   xmlns:svg="http://www.w3.org/2000/svg"
   xmlns="http://www.w3.org/2000/svg"
   id="SVGRoot"
   version="1.1"
   viewBox="0 0 1280 720"
   height="720"
   width="1280">
  <defs
     id="defs815" />
  <metadata
     id="metadata818">
    <rdf:RDF>
      <cc:Work
         rdf:about="">
        <dc:format>image/svg+xml</dc:format>
        <dc:type
           rdf:resource="http://purl.org/dc/dcmitype/StillImage" />
        <dc:title></dc:title>
      </cc:Work>
    </rdf:RDF>
  </metadata>
  <style id="style4"> 
    #text59,
    #text63,
    #text67 {
      animation: 10s cubic-bezier(0.22, 0.61, 0, 0.99) infinite;
      animation-fill-mode: both;
      transform-origin: left center;
    }

    /* Primary digits */
    #text59 {
      animation-name: appear1;
    }

    #text63 {
      animation-name: appear2;
    }

    #text67 {
      animation-name: appear3;
    }

    /* Animations */
    @keyframes appear1 {
      0%, 5% { opacity: 0; transform: scale(1.3); }
      8%, 97% { opacity: 1; transform: scale(1); }
      100% { opacity: 0; transform: scale(0.95); }
    }

    @keyframes appear2 {
      0%, 10% { opacity: 0; transform: scale(1.3); }
      13%, 97% { opacity: 1; transform: scale(1); }
      100% { opacity: 0; transform: scale(0.95); }
    }

    @keyframes appear3 {
      0%, 15% { opacity: 0; transform: scale(1.3); }
      18%, 97% { opacity: 1; transform: scale(1); }
      100% { opacity: 0; transform: scale(0.95); }
    }
  </style>
  <g
     id="layer1">
    <g
       id="text59"
       style="font-style:normal;font-weight:normal;font-size:40px;line-height:1.25;font-family:sans-serif;letter-spacing:0px;word-spacing:0px;fill:#000000;fill-opacity:1;stroke:none"
       aria-label="Scripts">
      <path
         id="path69"
         style="font-style:normal;font-variant:normal;font-weight:bold;font-stretch:normal;font-size:117.33333588px;font-family:Montserrat;-inkscape-font-specification:'Montserrat Bold';fill:#000000"
         d="m 80.439621,170.30596 q -9.738667,0 -18.890667,-2.58133 -9.034667,-2.69867 -14.549334,-6.92267 l 6.453334,-14.31466 q 5.28,3.872 12.554667,6.21866 7.274666,2.34667 14.549333,2.34667 8.096,0 11.968001,-2.34667 3.872,-2.464 3.872,-6.45333 0,-2.93333 -2.346667,-4.81067 -2.229333,-1.99466 -5.866667,-3.168 -3.52,-1.17333 -9.621333,-2.58133 -9.386667,-2.22933 -15.370667,-4.45867 -5.984001,-2.22933 -10.325334,-7.15733 -4.224,-4.928 -4.224,-13.14133 0,-7.15734 3.872,-12.90667 3.872,-5.866667 11.616,-9.269334 7.861334,-3.402667 19.125334,-3.402667 7.861333,0 15.370667,1.877334 7.509332,1.877333 13.141332,5.397333 l -5.86667,14.432004 q -11.381329,-6.45334 -22.762662,-6.45334 -7.978667,0 -11.850667,2.58134 -3.754667,2.58133 -3.754667,6.80533 0,4.224 4.341333,6.336 4.458667,1.99467 13.493334,3.98933 9.386667,2.22934 15.370669,4.45867 5.984,2.22933 10.208,7.04 4.34133,4.81067 4.34133,13.024 0,7.04 -3.98933,12.90667 -3.872,5.74933 -11.733335,9.152 -7.861334,3.40266 -19.125334,3.40266 z" />
      <path
         id="path71"
         style="font-style:normal;font-variant:normal;font-weight:bold;font-stretch:normal;font-size:117.33333588px;font-family:Montserrat;-inkscape-font-specification:'Montserrat Bold';fill:#000000"
         d="m 157.60645,169.83663 q -10.09066,0 -18.18666,-4.10667 -7.97867,-4.224 -12.55467,-11.616 -4.45867,-7.392 -4.45867,-16.77866 0,-9.38667 4.45867,-16.77867 4.576,-7.392 12.55467,-11.49867 8.096,-4.224 18.18666,-4.224 9.97334,0 17.36534,4.224 7.50933,4.10667 10.912,11.85067 l -14.19734,7.62667 q -4.928,-8.68267 -14.19733,-8.68267 -7.15733,0 -11.85067,4.69333 -4.69333,4.69334 -4.69333,12.78934 0,8.096 4.69333,12.78933 4.69334,4.69333 11.85067,4.69333 9.38667,0 14.19733,-8.68266 l 14.19734,7.744 q -3.40267,7.50933 -10.912,11.73333 -7.392,4.224 -17.36534,4.224 z" />
      <path
         id="path73"
         style="font-style:normal;font-variant:normal;font-weight:bold;font-stretch:normal;font-size:117.33333588px;font-family:Montserrat;-inkscape-font-specification:'Montserrat Bold';fill:#000000"
         d="m 214.01995,114.1033 q 3.28534,-4.576 8.8,-6.92267 5.632,-2.34667 12.90667,-2.34667 v 16.896 q -3.05067,-0.23466 -4.10667,-0.23466 -7.86133,0 -12.32,4.45866 -4.45866,4.34134 -4.45866,13.14134 v 29.80266 h -18.304 v -63.12533 h 17.48266 z" />
      <path
         id="path75"
         style="font-style:normal;font-variant:normal;font-weight:bold;font-stretch:normal;font-size:117.33333588px;font-family:Montserrat;-inkscape-font-specification:'Montserrat Bold';fill:#000000"
         d="m 246.72479,105.77263 h 18.304 v 63.12533 h -18.304 z m 9.152,-8.8 q -5.04534,0 -8.21334,-2.933334 -3.168,-2.933333 -3.168,-7.274667 0,-4.341333 3.168,-7.274666 3.168,-2.933334 8.21334,-2.933334 5.04533,0 8.21333,2.816 3.168,2.816 3.168,7.04 0,4.576 -3.168,7.626667 -3.168,2.933334 -8.21333,2.933334 z" />
      <path
         id="path77"
         style="font-style:normal;font-variant:normal;font-weight:bold;font-stretch:normal;font-size:117.33333588px;font-family:Montserrat;-inkscape-font-specification:'Montserrat Bold';fill:#000000"
         d="m 319.32846,104.83396 q 8.8,0 15.95733,4.10667 7.27467,3.98933 11.38134,11.38133 4.10666,7.27467 4.10666,17.01334 0,9.73866 -4.10666,17.13066 -4.10667,7.27467 -11.38134,11.38134 -7.15733,3.98933 -15.95733,3.98933 -12.08533,0 -19.008,-7.62667 v 29.45067 h -18.304 v -85.888 h 17.48267 v 7.27467 q 6.80533,-8.21334 19.82933,-8.21334 z m -3.168,49.984 q 7.04,0 11.49867,-4.69333 4.576,-4.81067 4.576,-12.78933 0,-7.97867 -4.576,-12.672 -4.45867,-4.81067 -11.49867,-4.81067 -7.04,0 -11.616,4.81067 -4.45867,4.69333 -4.45867,12.672 0,7.97866 4.45867,12.78933 4.576,4.69333 11.616,4.69333 z" />
      <path
         id="path79"
         style="font-style:normal;font-variant:normal;font-weight:bold;font-stretch:normal;font-size:117.33333588px;font-family:Montserrat;-inkscape-font-specification:'Montserrat Bold';fill:#000000"
         d="m 403.62695,165.8473 q -2.69866,1.99466 -6.688,3.05066 -3.872,0.93867 -8.21333,0.93867 -11.264,0 -17.48267,-5.74933 -6.10133,-5.74934 -6.10133,-16.896 v -25.93067 h -9.73867 v -14.08 h 9.73867 V 91.809963 h 18.304 v 15.370667 h 15.72267 v 14.08 h -15.72267 v 25.696 q 0,3.98933 1.99467,6.21867 2.112,2.112 5.86666,2.112 4.34134,0 7.392,-2.34667 z" />
      <path
         id="path81"
         style="font-style:normal;font-variant:normal;font-weight:bold;font-stretch:normal;font-size:117.33333588px;font-family:Montserrat;-inkscape-font-specification:'Montserrat Bold';fill:#000000"
         d="m 435.25381,169.83663 q -7.86134,0 -15.37067,-1.87733 -7.50933,-1.99467 -11.968,-4.928 l 6.10133,-13.14134 q 4.224,2.69867 10.208,4.45867 5.984,1.64267 11.73334,1.64267 11.616,0 11.616,-5.74934 0,-2.69866 -3.168,-3.872 -3.168,-1.17333 -9.73867,-1.99466 -7.744,-1.17334 -12.78933,-2.69867 -5.04534,-1.52533 -8.8,-5.39733 -3.63734,-3.872 -3.63734,-11.02934 0,-5.984 3.40267,-10.56 3.52,-4.69333 10.09067,-7.27466 6.688,-2.58134 15.72266,-2.58134 6.688,0 13.25867,1.52534 6.688,1.408 11.02934,3.98933 l -6.10134,13.024 q -8.33067,-4.69333 -18.18667,-4.69333 -5.86666,0 -8.8,1.64266 -2.93333,1.64267 -2.93333,4.224 0,2.93334 3.168,4.10667 3.168,1.17333 10.09067,2.22933 7.744,1.29067 12.672,2.816 4.928,1.408 8.56533,5.28 3.63734,3.872 3.63734,10.79467 0,5.86667 -3.52,10.44267 -3.52001,4.576 -10.32534,7.15733 -6.688,2.464 -15.95733,2.464 z" />
    </g>
    <g
       id="text63"
       style="font-style:normal;font-weight:normal;font-size:40px;line-height:1.25;font-family:sans-serif;letter-spacing:0px;word-spacing:0px;fill:#000000;fill-opacity:1;stroke:none"
       aria-label="block">
      <path
         id="path84"
         style="font-style:normal;font-variant:normal;font-weight:bold;font-stretch:normal;font-size:117.33333588px;font-family:Montserrat;-inkscape-font-specification:'Montserrat Bold';fill:#000000"
         d="m 89.474288,228.83395 q 8.8,0 15.957332,4.10666 7.27467,3.98934 11.38134,11.38134 4.10666,7.27466 4.10666,17.01333 0,9.73867 -4.10666,17.13067 -4.10667,7.27467 -11.38134,11.38133 -7.157332,3.98934 -15.957332,3.98934 -13.024,0 -19.829334,-8.21334 v 7.27467 H 52.162287 v -87.06134 h 18.304 v 30.624 q 6.922667,-7.62666 19.008001,-7.62666 z m -3.168,49.984 q 7.04,0 11.498667,-4.69333 4.575995,-4.81067 4.575995,-12.78934 0,-7.97866 -4.575995,-12.672 -4.458667,-4.81067 -11.498667,-4.81067 -7.04,0 -11.616001,4.81067 -4.458666,4.69334 -4.458666,12.672 0,7.97867 4.458666,12.78934 4.576001,4.69333 11.616001,4.69333 z" />
      <path
         id="path86"
         style="font-style:normal;font-variant:normal;font-weight:bold;font-stretch:normal;font-size:117.33333588px;font-family:Montserrat;-inkscape-font-specification:'Montserrat Bold';fill:#000000"
         d="m 133.05812,205.83661 h 18.304 v 87.06134 h -18.304 z" />
      <path
         id="path88"
         style="font-style:normal;font-variant:normal;font-weight:bold;font-stretch:normal;font-size:117.33333588px;font-family:Montserrat;-inkscape-font-specification:'Montserrat Bold';fill:#000000"
         d="m 198.38712,293.83662 q -9.97333,0 -17.952,-4.10667 -7.86133,-4.224 -12.32,-11.616 -4.45867,-7.392 -4.45867,-16.77867 0,-9.38667 4.45867,-16.77867 4.45867,-7.392 12.32,-11.49866 7.97867,-4.224 17.952,-4.224 9.97333,0 17.83467,4.224 7.86133,4.10666 12.32,11.49866 4.45867,7.392 4.45867,16.77867 0,9.38667 -4.45867,16.77867 -4.45867,7.392 -12.32,11.616 -7.86134,4.10667 -17.83467,4.10667 z m 0,-15.01867 q 7.04,0 11.49867,-4.69333 4.576,-4.81067 4.576,-12.78934 0,-7.97866 -4.576,-12.672 -4.45867,-4.81067 -11.49867,-4.81067 -7.04,0 -11.616,4.81067 -4.576,4.69334 -4.576,12.672 0,7.97867 4.576,12.78934 4.576,4.69333 11.616,4.69333 z" />
      <path
         id="path90"
         style="font-style:normal;font-variant:normal;font-weight:bold;font-stretch:normal;font-size:117.33333588px;font-family:Montserrat;-inkscape-font-specification:'Montserrat Bold';fill:#000000"
         d="m 275.6273,293.83662 q -10.09067,0 -18.18667,-4.10667 -7.97867,-4.224 -12.55467,-11.616 -4.45866,-7.392 -4.45866,-16.77867 0,-9.38667 4.45866,-16.77867 4.576,-7.392 12.55467,-11.49866 8.096,-4.224 18.18667,-4.224 9.97333,0 17.36533,4.224 7.50934,4.10666 10.912,11.85066 l -14.19733,7.62667 q -4.928,-8.68267 -14.19734,-8.68267 -7.15733,0 -11.85066,4.69334 -4.69334,4.69333 -4.69334,12.78933 0,8.096 4.69334,12.78934 4.69333,4.69333 11.85066,4.69333 9.38667,0 14.19734,-8.68267 l 14.19733,7.744 q -3.40266,7.50934 -10.912,11.73334 -7.392,4.224 -17.36533,4.224 z" />
      <path
         id="path92"
         style="font-style:normal;font-variant:normal;font-weight:bold;font-stretch:normal;font-size:117.33333588px;font-family:Montserrat;-inkscape-font-specification:'Montserrat Bold';fill:#000000"
         d="m 341.20379,268.14062 -8.8,8.68266 v 16.07467 h -18.304 v -87.06134 h 18.304 v 49.28001 l 26.752,-25.34401 h 21.824 l -26.28267,26.75201 28.62934,36.37333 h -22.17601 z" />
    </g>
    <g
       id="text67"
       style="font-style:normal;font-weight:normal;font-size:40px;line-height:1.25;font-family:sans-serif;letter-spacing:0px;word-spacing:0px;fill:#000000;fill-opacity:1;stroke:none"
       aria-label="parsing">
      <path
         id="path95"
         style="font-style:normal;font-variant:normal;font-weight:bold;font-stretch:normal;font-size:117.33333588px;font-family:Montserrat;-inkscape-font-specification:'Montserrat Bold';fill:#000000"
         d="m 89.474288,356.83395 q 8.8,0 15.957332,4.10666 7.27467,3.98934 11.38134,11.38134 4.10666,7.27466 4.10666,17.01333 0,9.73867 -4.10666,17.13067 -4.10667,7.27467 -11.38134,11.38133 -7.157332,3.98934 -15.957332,3.98934 -12.085334,0 -19.008001,-7.62667 v 29.45067 h -18.304 v -85.88801 h 17.482667 v 7.27467 q 6.805334,-8.21333 19.829334,-8.21333 z m -3.168,49.984 q 7.04,0 11.498667,-4.69333 4.575995,-4.81067 4.575995,-12.78934 0,-7.97866 -4.575995,-12.672 -4.458667,-4.81067 -11.498667,-4.81067 -7.04,0 -11.616001,4.81067 -4.458666,4.69334 -4.458666,12.672 0,7.97867 4.458666,12.78934 4.576001,4.69333 11.616001,4.69333 z" />
      <path
         id="path97"
         style="font-style:normal;font-variant:normal;font-weight:bold;font-stretch:normal;font-size:117.33333588px;font-family:Montserrat;-inkscape-font-specification:'Montserrat Bold';fill:#000000"
         d="m 157.37362,356.83395 q 14.66667,0 22.528,7.04 7.86133,6.92266 7.86133,21.00267 v 36.02133 h -17.13066 v -7.86133 q -5.16267,8.8 -19.24267,8.8 -7.27467,0 -12.672,-2.464 -5.28,-2.464 -8.096,-6.80534 -2.816,-4.34133 -2.816,-9.856 0,-8.8 6.57067,-13.84533 6.688,-5.04533 20.53333,-5.04533 h 14.54933 q 0,-5.98401 -3.63733,-9.15201 -3.63733,-3.28533 -10.912,-3.28533 -5.04533,0 -9.97333,1.64267 -4.81067,1.52533 -8.21334,4.224 l -6.57066,-12.78934 q 5.16266,-3.63733 12.32,-5.632 7.27466,-1.99466 14.90133,-1.99466 z m -1.408,52.68267 q 4.69333,0 8.33067,-2.112 3.63733,-2.22934 5.16266,-6.45334 v -6.45333 h -12.55466 q -11.264,0 -11.264,7.392 0,3.52 2.69866,5.632 2.816,1.99467 7.62667,1.99467 z" />
      <path
         id="path99"
         style="font-style:normal;font-variant:normal;font-weight:bold;font-stretch:normal;font-size:117.33333588px;font-family:Montserrat;-inkscape-font-specification:'Montserrat Bold';fill:#000000"
         d="m 221.81163,366.10328 q 3.28533,-4.576 8.8,-6.92267 5.632,-2.34666 12.90666,-2.34666 v 16.896 q -3.05066,-0.23467 -4.10666,-0.23467 -7.86134,0 -12.32,4.45867 -4.45867,4.34133 -4.45867,13.14133 v 29.80267 h -18.304 v -63.12534 h 17.48267 z" />
      <path
         id="path101"
         style="font-style:normal;font-variant:normal;font-weight:bold;font-stretch:normal;font-size:117.33333588px;font-family:Montserrat;-inkscape-font-specification:'Montserrat Bold';fill:#000000"
         d="m 275.98296,421.83662 q -7.86133,0 -15.37066,-1.87734 -7.50934,-1.99466 -11.968,-4.928 l 6.10133,-13.14133 q 4.224,2.69867 10.208,4.45867 5.984,1.64266 11.73333,1.64266 11.616,0 11.616,-5.74933 0,-2.69867 -3.168,-3.872 -3.168,-1.17333 -9.73866,-1.99467 -7.744,-1.17333 -12.78934,-2.69866 -5.04533,-1.52534 -8.8,-5.39734 -3.63733,-3.872 -3.63733,-11.02933 0,-5.984 3.40267,-10.56 3.52,-4.69334 10.09066,-7.27467 6.688,-2.58133 15.72267,-2.58133 6.688,0 13.25867,1.52533 6.688,1.408 11.02933,3.98933 l -6.10133,13.024 q -8.33067,-4.69333 -18.18667,-4.69333 -5.86667,0 -8.8,1.64267 -2.93333,1.64266 -2.93333,4.224 0,2.93333 3.168,4.10667 3.168,1.17333 10.09066,2.22933 7.744,1.29067 12.672,2.816 4.928,1.408 8.56534,5.28 3.63733,3.872 3.63733,10.79467 0,5.86666 -3.52,10.44266 -3.52,4.576 -10.32533,7.15734 -6.688,2.464 -15.95734,2.464 z" />
      <path
         id="path103"
         style="font-style:normal;font-variant:normal;font-weight:bold;font-stretch:normal;font-size:117.33333588px;font-family:Montserrat;-inkscape-font-specification:'Montserrat Bold';fill:#000000"
         d="m 317.07897,357.77261 h 18.304 v 63.12534 h -18.304 z m 9.152,-8.8 q -5.04533,0 -8.21333,-2.93333 -3.168,-2.93333 -3.168,-7.27467 0,-4.34133 3.168,-7.27466 3.168,-2.93334 8.21333,-2.93334 5.04534,0 8.21334,2.816 3.168,2.816 3.168,7.04 0,4.576 -3.168,7.62667 -3.168,2.93333 -8.21334,2.93333 z" />
      <path
         id="path105"
         style="font-style:normal;font-variant:normal;font-weight:bold;font-stretch:normal;font-size:117.33333588px;font-family:Montserrat;-inkscape-font-specification:'Montserrat Bold';fill:#000000"
         d="m 390.73863,356.83395 q 11.73333,0 18.89067,7.04 7.27467,7.04 7.27467,20.88533 v 36.13867 h -18.30401 v -33.32267 q 0,-7.50933 -3.28533,-11.14667 -3.28533,-3.75466 -9.504,-3.75466 -6.92267,0 -11.02933,4.34133 -4.10667,4.224 -4.10667,12.672 v 31.21067 h -18.304 v -63.12534 h 17.48267 v 7.392 q 3.63733,-3.98933 9.03466,-6.10133 5.39734,-2.22933 11.85067,-2.22933 z" />
      <path
         id="path107"
         style="font-style:normal;font-variant:normal;font-weight:bold;font-stretch:normal;font-size:117.33333588px;font-family:Montserrat;-inkscape-font-specification:'Montserrat Bold';fill:#000000"
         d="m 499.30313,357.77261 v 52.56534 q 0,17.36533 -9.03466,25.81333 -9.03467,8.448 -26.40001,8.448 -9.152,0 -17.36533,-2.22933 -8.21333,-2.22933 -13.61067,-6.45333 l 7.27467,-13.14134 q 3.98933,3.28534 10.09067,5.16267 6.10133,1.99467 12.20266,1.99467 9.504,0 13.96267,-4.34134 4.576,-4.224 4.576,-12.90666 v -2.69867 q -7.15733,7.86133 -19.94667,7.86133 -8.68266,0 -15.95733,-3.75466 -7.15733,-3.872 -11.38133,-10.79467 -4.224,-6.92267 -4.224,-15.95733 0,-9.03467 4.224,-15.95734 4.224,-6.92267 11.38133,-10.67733 7.27467,-3.872 15.95733,-3.872 13.728,0 20.88534,9.03466 v -8.096 z m -34.61333,45.05601 q 7.27466,0 11.85066,-4.224 4.69334,-4.34134 4.69334,-11.264 0,-6.92267 -4.69334,-11.14667 -4.576,-4.34134 -11.85066,-4.34134 -7.27467,0 -11.968,4.34134 -4.69334,4.224 -4.69334,11.14667 0,6.92266 4.69334,11.264 4.69333,4.224 11.968,4.224 z" />
    </g>
  </g>
</svg>
