<?xml version="1.0" encoding="UTF-8" standalone="no"?>
<!-- Created with Inkscape (http://www.inkscape.org/) -->

<svg
   xmlns:dc="http://purl.org/dc/elements/1.1/"
   xmlns:cc="http://creativecommons.org/ns#"
   xmlns:rdf="http://www.w3.org/1999/02/22-rdf-syntax-ns#"
   xmlns:svg="http://www.w3.org/2000/svg"
   xmlns="http://www.w3.org/2000/svg"
   xmlns:sodipodi="http://sodipodi.sourceforge.net/DTD/sodipodi-0.dtd"
   xmlns:inkscape="http://www.inkscape.org/namespaces/inkscape"
   width="1280"
   height="720"
   viewBox="0 0 1280 720"
   version="1.1"
   id="SVGRoot"
   inkscape:version="0.92.3 (2405546, 2018-03-11)"
   sodipodi:docname="results-animation.svg">
  <defs
     id="defs815" />
  <metadata
     id="metadata818">
    <rdf:RDF>
      <cc:Work
         rdf:about="">
        <dc:format>image/svg+xml</dc:format>
        <dc:type
           rdf:resource="http://purl.org/dc/dcmitype/StillImage" />
        <dc:title></dc:title>
      </cc:Work>
    </rdf:RDF>
  </metadata>
  <style>
    :root {
      background: #fffae0;
    }

    #text1387,
    #text5131,
    #text5127,
    #text5147,
    #text5119,
    #text5139,
    #text5143,
    #text5123,
    #text5135 {
      animation: 10s ease-out infinite;
      animation-fill-mode: both;
      transform-origin: center center;
    }

    /* Primary digits */
    #text1387 {
      animation-name: appear1;
    }

    #text5131 {
      animation-name: appear2;
    }

    #text5127 {
      animation-name: appear3;
    }

    /* Secondary digits */
    #text5147 {
      animation-name: appear4;
    }

    #text5119 {
      animation-name: appear5;
    }

    #text5139 {
      animation-name: appear6;
    }

    #text5143 {
      animation-name: appear7;
    }

    #text5123 {
      animation-name: appear8;
    }

    #text5135 {
      animation-name: appear9;
    }

    /* Animations */
    @keyframes appear1 {
      0%, 5% { opacity: 0; transform: scale(0.95); }
      8%, 97% { opacity: 1; transform: scale(1); }
      100% { opacity: 0; transform: scale(0.95); }
    }

    @keyframes appear2 {
      0%, 10% { opacity: 0; transform: scale(0.95); }
      13%, 97% { opacity: 1; transform: scale(1); }
      100% { opacity: 0; transform: scale(0.95); }
    }

    @keyframes appear3 {
      0%, 15% { opacity: 0; transform: scale(0.95); }
      18%, 97% { opacity: 1; transform: scale(1); }
      100% { opacity: 0; transform: scale(0.95); }
    }

    @keyframes appear4 {
      0%, 20% { opacity: 0; transform: scale(0.95); }
      23%, 97% { opacity: 1; transform: scale(1); }
      100% { opacity: 0; transform: scale(0.95); }
    }

    @keyframes appear5 {
      0%, 21% { opacity: 0; transform: scale(0.95); }
      24%, 97% { opacity: 1; transform: scale(1); }
      100% { opacity: 0; transform: scale(0.95); }
    }

    @keyframes appear6 {
      0%, 22% { opacity: 0; transform: scale(0.95); }
      25%, 97% { opacity: 1; transform: scale(1); }
      100% { opacity: 0; transform: scale(0.95); }
    }

    @keyframes appear7 {
      0%, 23% { opacity: 0; transform: scale(0.95); }
      26%, 97% { opacity: 1; transform: scale(1); }
      100% { opacity: 0; transform: scale(0.95); }
    }

    @keyframes appear8 {
      0%, 24% { opacity: 0; transform: scale(0.95); }
      27%, 97% { opacity: 1; transform: scale(1); }
      100% { opacity: 0; transform: scale(0.95); }
    }

    @keyframes appear9 {
      0%, 25% { opacity: 0; transform: scale(0.95); }
      28%, 97% { opacity: 1; transform: scale(1); }
      100% { opacity: 0; transform: scale(0.95); }
    }
  </style>
  <g
     id="layer1"
     inkscape:groupmode="layer"
     inkscape:label="Layer 1">
    <g
       aria-label="10.5%"
       style="font-style:normal;font-weight:normal;font-size:40px;line-height:1.25;font-family:sans-serif;letter-spacing:0px;word-spacing:0px;fill:#000000;fill-opacity:1;stroke:none"
       id="text1387">
      <path
         d="m 475.53085,306.33333 v 107.33333 h -24.84 v -87.4 h -21.46667 v -19.93333 z"
         style="font-style:normal;font-variant:normal;font-weight:bold;font-stretch:normal;font-size:153.33332825px;font-family:Montserrat;-inkscape-font-specification:'Montserrat Bold'"
         id="path838" />
      <path
         d="m 540.32616,415.50666 q -13.34,0 -23.76667,-6.59334 -10.42667,-6.59333 -16.40667,-19.01333 -5.82666,-12.57333 -5.82666,-29.9 0,-17.32666 5.82666,-29.74666 5.98,-12.57334 16.40667,-19.16667 10.42667,-6.59333 23.76667,-6.59333 13.33999,0 23.76666,6.59333 10.42667,6.59333 16.25333,19.16667 5.98,12.42 5.98,29.74666 0,17.32667 -5.98,29.9 -5.82666,12.42 -16.25333,19.01333 -10.42667,6.59334 -23.76666,6.59334 z m 0,-21.00667 q 9.81333,0 15.33333,-8.43333 5.67333,-8.43334 5.67333,-26.06667 0,-17.63333 -5.67333,-26.06666 -5.52,-8.43334 -15.33333,-8.43334 -9.66,0 -15.33334,8.43334 -5.52,8.43333 -5.52,26.06666 0,17.63333 5.52,26.06667 5.67334,8.43333 15.33334,8.43333 z"
         style="font-style:normal;font-variant:normal;font-weight:bold;font-stretch:normal;font-size:153.33332825px;font-family:Montserrat;-inkscape-font-specification:'Montserrat Bold'"
         id="path840" />
      <path
         d="m 610.55522,414.89332 q -6.28667,0 -10.58,-4.29333 -4.29334,-4.29333 -4.29334,-10.73333 0,-6.59334 4.29334,-10.58 4.29333,-4.14 10.58,-4.14 6.28666,0 10.58,4.14 4.29333,3.98666 4.29333,10.58 0,6.44 -4.29333,10.73333 -4.29334,4.29333 -10.58,4.29333 z"
         style="font-style:normal;font-variant:normal;font-weight:bold;font-stretch:normal;font-size:153.33332825px;font-family:Montserrat;-inkscape-font-specification:'Montserrat Bold'"
         id="path842" />
      <path
         d="m 673.37875,346.65999 q 22.69334,0 33.42667,9.04667 10.88667,9.04666 10.88667,24.22666 0,9.81334 -4.90667,17.94 -4.90667,7.97334 -15.02667,12.88 -9.96666,4.75334 -24.68666,4.75334 -11.34667,0 -22.38667,-2.91334 -10.88667,-3.06666 -18.55333,-8.58666 l 9.81333,-19.01334 q 6.13333,4.6 14.10667,7.20667 7.97333,2.45333 16.40666,2.45333 9.35334,0 14.72,-3.68 5.36667,-3.68 5.36667,-10.27333 0,-6.9 -5.67333,-10.42667 -5.52,-3.52666 -19.32,-3.52666 h -27.44667 l 5.52,-60.41333 h 65.47333 v 19.93333 h -44.77333 l -1.68667,20.39333 z"
         style="font-style:normal;font-variant:normal;font-weight:bold;font-stretch:normal;font-size:153.33332825px;font-family:Montserrat;-inkscape-font-specification:'Montserrat Bold'"
         id="path844" />
      <path
         d="m 751.2625,364.29332 q -11.80666,0 -19.32,-7.97333 -7.36,-8.12666 -7.36,-21.62 0,-13.49333 7.36,-21.46666 7.51334,-8.12667 19.32,-8.12667 11.80667,0 19.16667,8.12667 7.36,7.97333 7.36,21.46666 0,13.49334 -7.36,21.62 -7.36,7.97333 -19.16667,7.97333 z m 63.94,-57.95999 h 18.24667 l -73.29333,107.33333 h -18.24667 z m -63.94,45.38666 q 5.21334,0 8.12667,-4.29333 3.06667,-4.29333 3.06667,-12.72667 0,-8.43333 -3.06667,-12.72666 -2.91333,-4.29334 -8.12667,-4.29334 -5.06,0 -8.12666,4.44667 -3.06667,4.29333 -3.06667,12.57333 0,8.28 3.06667,12.72667 3.06666,4.29333 8.12666,4.29333 z m 72.83333,63.17333 q -7.66666,0 -13.79999,-3.52666 -5.98,-3.68 -9.35334,-10.42667 -3.37333,-6.74667 -3.37333,-15.64 0,-8.89333 3.37333,-15.64 3.37334,-6.74667 9.35334,-10.27333 6.13333,-3.68 13.79999,-3.68 11.80667,0 19.16667,8.12666 7.51333,7.97334 7.51333,21.46667 0,13.49333 -7.51333,21.62 -7.36,7.97333 -19.16667,7.97333 z m 0,-12.57333 q 5.21334,0 8.12667,-4.29333 3.06667,-4.44667 3.06667,-12.72667 0,-8.28 -3.06667,-12.57333 -2.91333,-4.44667 -8.12667,-4.44667 -5.06,0 -8.12666,4.29333 -3.06667,4.29334 -3.06667,12.72667 0,8.43333 3.06667,12.72667 3.06666,4.29333 8.12666,4.29333 z"
         style="font-style:normal;font-variant:normal;font-weight:bold;font-stretch:normal;font-size:153.33332825px;font-family:Montserrat;-inkscape-font-specification:'Montserrat Bold'"
         id="path846" />
    </g>
    <g
       aria-label="12%"
       style="font-style:normal;font-weight:normal;font-size:40px;line-height:1.25;font-family:sans-serif;letter-spacing:0px;word-spacing:0px;fill:#000000;fill-opacity:1;stroke:none"
       id="text5119">
      <path
         d="m 915.83541,131.53332 v 82.13334 h -19.008 v -66.88 h -16.42667 v -15.25334 z"
         style="font-style:normal;font-variant:normal;font-weight:bold;font-stretch:normal;font-size:117.33333588px;font-family:Montserrat;-inkscape-font-specification:'Montserrat Bold'"
         id="path849" />
      <path
         d="m 991.58324,198.17866 v 15.488 h -62.06933 v -12.32 l 31.68,-29.92 q 5.04533,-4.81067 6.80533,-8.21334 1.76,-3.52 1.76,-6.92266 0,-4.928 -3.40267,-7.50934 -3.28533,-2.69866 -9.73866,-2.69866 -5.39734,0 -9.73867,2.112 -4.34133,1.99466 -7.27467,6.10133 l -13.84533,-8.91733 q 4.81067,-7.15734 13.25867,-11.14667 8.448,-4.10667 19.36,-4.10667 9.152,0 15.95733,3.05067 6.92267,2.93333 10.67733,8.448 3.872,5.39733 3.872,12.78933 0,6.688 -2.816,12.55467 -2.816,5.86667 -10.912,13.376 l -18.89066,17.83467 z"
         style="font-style:normal;font-variant:normal;font-weight:bold;font-stretch:normal;font-size:117.33333588px;font-family:Montserrat;-inkscape-font-specification:'Montserrat Bold'"
         id="path851" />
      <path
         d="m 1019.5801,175.88532 q -9.0347,0 -14.784,-6.10133 -5.63202,-6.21867 -5.63202,-16.544 0,-10.32534 5.63202,-16.42667 5.7493,-6.21867 14.784,-6.21867 9.0346,0 14.6666,6.21867 5.632,6.10133 5.632,16.42667 0,10.32533 -5.632,16.544 -5.632,6.10133 -14.6666,6.10133 z m 48.928,-44.352 h 13.9626 l -56.0853,82.13334 h -13.9627 z m -48.928,34.73067 q 3.9893,0 6.2186,-3.28533 2.3467,-3.28534 2.3467,-9.73867 0,-6.45333 -2.3467,-9.73867 -2.2293,-3.28533 -6.2186,-3.28533 -3.872,0 -6.2187,3.40266 -2.3467,3.28534 -2.3467,9.62134 0,6.336 2.3467,9.73867 2.3467,3.28533 6.2187,3.28533 z m 55.7333,48.34133 q -5.8667,0 -10.56,-2.69866 -4.576,-2.816 -7.1573,-7.97867 -2.5814,-5.16267 -2.5814,-11.968 0,-6.80533 2.5814,-11.968 2.5813,-5.16267 7.1573,-7.86133 4.6933,-2.816 10.56,-2.816 9.0347,0 14.6667,6.21866 5.7493,6.10134 5.7493,16.42667 0,10.32533 -5.7493,16.544 -5.632,6.10133 -14.6667,6.10133 z m 0,-9.62133 q 3.9893,0 6.2187,-3.28533 2.3466,-3.40267 2.3466,-9.73867 0,-6.336 -2.3466,-9.62133 -2.2294,-3.40267 -6.2187,-3.40267 -3.872,0 -6.2187,3.28533 -2.3466,3.28534 -2.3466,9.73867 0,6.45333 2.3466,9.73867 2.3467,3.28533 6.2187,3.28533 z"
         style="font-style:normal;font-variant:normal;font-weight:bold;font-stretch:normal;font-size:117.33333588px;font-family:Montserrat;-inkscape-font-specification:'Montserrat Bold'"
         id="path853" />
    </g>
    <g
       aria-label="20%"
       style="font-style:normal;font-weight:normal;font-size:40px;line-height:1.25;font-family:sans-serif;letter-spacing:0px;word-spacing:0px;fill:#000000;fill-opacity:1;stroke:none"
       id="text5123">
      <path
         d="m 614.09215,627.0358 v 15.488 h -62.06933 v -12.32 l 31.68,-29.92 q 5.04533,-4.81066 6.80533,-8.21333 1.76,-3.52 1.76,-6.92267 0,-4.928 -3.40266,-7.50933 -3.28534,-2.69867 -9.73867,-2.69867 -5.39733,0 -9.73867,2.112 -4.34133,1.99467 -7.27467,6.10134 l -13.84533,-8.91734 q 4.81067,-7.15733 13.25867,-11.14666 8.448,-4.10667 19.36,-4.10667 9.152,0 15.95733,3.05067 6.92267,2.93333 10.67734,8.448 3.872,5.39733 3.872,12.78933 0,6.688 -2.816,12.55467 -2.816,5.86666 -10.912,13.376 l -18.89067,17.83466 z"
         style="font-style:normal;font-variant:normal;font-weight:bold;font-stretch:normal;font-size:117.33333588px;font-family:Montserrat;-inkscape-font-specification:'Montserrat Bold'"
         id="path856" />
      <path
         d="m 656.90599,643.9318 q -10.208,0 -18.18667,-5.04533 -7.97866,-5.04533 -12.55466,-14.54933 -4.45867,-9.62134 -4.45867,-22.88 0,-13.25867 4.45867,-22.76267 4.576,-9.62133 12.55466,-14.66667 7.97867,-5.04533 18.18667,-5.04533 10.208,0 18.18667,5.04533 7.97866,5.04534 12.43733,14.66667 4.576,9.504 4.576,22.76267 0,13.25866 -4.576,22.88 -4.45867,9.504 -12.43733,14.54933 -7.97867,5.04533 -18.18667,5.04533 z m 0,-16.07466 q 7.50933,0 11.73333,-6.45334 4.34134,-6.45333 4.34134,-19.94666 0,-13.49334 -4.34134,-19.94667 -4.224,-6.45333 -11.73333,-6.45333 -7.392,0 -11.73333,6.45333 -4.224,6.45333 -4.224,19.94667 0,13.49333 4.224,19.94666 4.34133,6.45334 11.73333,6.45334 z"
         style="font-style:normal;font-variant:normal;font-weight:bold;font-stretch:normal;font-size:117.33333588px;font-family:Montserrat;-inkscape-font-specification:'Montserrat Bold'"
         id="path858" />
      <path
         d="m 720.46399,604.74247 q -9.03467,0 -14.784,-6.10133 -5.632,-6.21867 -5.632,-16.544 0,-10.32534 5.632,-16.42667 5.74933,-6.21867 14.784,-6.21867 9.03467,0 14.66667,6.21867 5.632,6.10133 5.632,16.42667 0,10.32533 -5.632,16.544 -5.632,6.10133 -14.66667,6.10133 z m 48.928,-44.352 h 13.96267 l -56.08534,82.13333 h -13.96266 z m -48.928,34.73067 q 3.98933,0 6.21867,-3.28534 2.34666,-3.28533 2.34666,-9.73866 0,-6.45334 -2.34666,-9.73867 -2.22934,-3.28533 -6.21867,-3.28533 -3.872,0 -6.21867,3.40266 -2.34666,3.28534 -2.34666,9.62134 0,6.336 2.34666,9.73866 2.34667,3.28534 6.21867,3.28534 z m 55.73333,48.34133 q -5.86666,0 -10.56,-2.69867 -4.576,-2.816 -7.15733,-7.97866 -2.58133,-5.16267 -2.58133,-11.968 0,-6.80534 2.58133,-11.968 2.58133,-5.16267 7.15733,-7.86134 4.69334,-2.816 10.56,-2.816 9.03467,0 14.66667,6.21867 5.74934,6.10133 5.74934,16.42667 0,10.32533 -5.74934,16.544 -5.632,6.10133 -14.66667,6.10133 z m 0,-9.62133 q 3.98934,0 6.21867,-3.28534 2.34667,-3.40266 2.34667,-9.73866 0,-6.336 -2.34667,-9.62134 -2.22933,-3.40266 -6.21867,-3.40266 -3.872,0 -6.21866,3.28533 -2.34667,3.28533 -2.34667,9.73867 0,6.45333 2.34667,9.73866 2.34666,3.28534 6.21866,3.28534 z"
         style="font-style:normal;font-variant:normal;font-weight:bold;font-stretch:normal;font-size:117.33333588px;font-family:Montserrat;-inkscape-font-specification:'Montserrat Bold'"
         id="path860" />
    </g>
    <g
       aria-label="25%"
       style="font-style:normal;font-weight:normal;font-size:40px;line-height:1.25;font-family:sans-serif;letter-spacing:0px;word-spacing:0px;fill:#000000;fill-opacity:1;stroke:none"
       id="text5131">
      <path
         d="m 145.81177,171.01525 v 14.08 H 89.385105 v -11.2 l 28.799995,-27.2 q 4.58667,-4.37334 6.18667,-7.46667 1.6,-3.2 1.6,-6.29333 0,-4.48 -3.09333,-6.82667 -2.98667,-2.45333 -8.85334,-2.45333 -4.90666,0 -8.85333,1.92 -3.94667,1.81333 -6.613332,5.54666 l -12.586667,-8.10666 q 4.373334,-6.50667 12.053333,-10.13334 7.679996,-3.73333 17.599996,-3.73333 8.32,0 14.50667,2.77333 6.29333,2.66667 9.70667,7.68 3.52,4.90667 3.52,11.62667 0,6.08 -2.56,11.41333 -2.56,5.33334 -9.92,12.16 l -17.17334,16.21334 z"
         style="font-style:normal;font-variant:normal;font-weight:bold;font-stretch:normal;font-size:106.66666412px;font-family:Montserrat;-inkscape-font-specification:'Montserrat Bold'"
         id="path863" />
      <path
         d="m 178.54177,138.48191 q 15.78666,0 23.25333,6.29334 7.57333,6.29333 7.57333,16.85333 0,6.82667 -3.41333,12.48 -3.41333,5.54667 -10.45333,8.96 -6.93334,3.30667 -17.17334,3.30667 -7.89333,0 -15.57333,-2.02667 -7.57333,-2.13333 -12.90666,-5.97333 l 6.82666,-13.22667 q 4.26667,3.2 9.81334,5.01333 5.54666,1.70667 11.41333,1.70667 6.50666,0 10.24,-2.56 3.73333,-2.56 3.73333,-7.14667 0,-4.8 -3.94667,-7.25333 -3.84,-2.45333 -13.44,-2.45333 H 155.3951 l 3.84,-42.02667 h 45.54667 v 13.86667 H 173.6351 l -1.17333,14.18666 z"
         style="font-style:normal;font-variant:normal;font-weight:bold;font-stretch:normal;font-size:106.66666412px;font-family:Montserrat;-inkscape-font-specification:'Montserrat Bold'"
         id="path865" />
      <path
         d="m 232.72177,150.74858 q -8.21333,0 -13.44,-5.54667 -5.12,-5.65333 -5.12,-15.04 0,-9.38666 5.12,-14.93333 5.22667,-5.65333 13.44,-5.65333 8.21333,0 13.33333,5.65333 5.12,5.54667 5.12,14.93333 0,9.38667 -5.12,15.04 -5.12,5.54667 -13.33333,5.54667 z m 44.48,-40.32 h 12.69333 l -50.98667,74.66667 H 226.2151 Z m -44.48,31.57333 q 3.62666,0 5.65333,-2.98666 2.13333,-2.98667 2.13333,-8.85334 0,-5.86666 -2.13333,-8.85333 -2.02667,-2.98667 -5.65333,-2.98667 -3.52,0 -5.65333,3.09334 -2.13334,2.98666 -2.13334,8.74666 0,5.76 2.13334,8.85334 2.13333,2.98666 5.65333,2.98666 z m 50.66666,43.94667 q -5.33333,0 -9.6,-2.45333 -4.16,-2.56 -6.50666,-7.25334 -2.34667,-4.69333 -2.34667,-10.88 0,-6.18666 2.34667,-10.88 2.34666,-4.69333 6.50666,-7.14666 4.26667,-2.56 9.6,-2.56 8.21334,0 13.33334,5.65333 5.22666,5.54667 5.22666,14.93333 0,9.38667 -5.22666,15.04 -5.12,5.54667 -13.33334,5.54667 z m 0,-8.74667 q 3.62667,0 5.65334,-2.98666 2.13333,-3.09334 2.13333,-8.85334 0,-5.76 -2.13333,-8.74666 -2.02667,-3.09334 -5.65334,-3.09334 -3.52,0 -5.65333,2.98667 -2.13333,2.98667 -2.13333,8.85333 0,5.86667 2.13333,8.85334 2.13333,2.98666 5.65333,2.98666 z"
         style="font-style:normal;font-variant:normal;font-weight:bold;font-stretch:normal;font-size:106.66666412px;font-family:Montserrat;-inkscape-font-specification:'Montserrat Bold'"
         id="path867" />
    </g>
    <g
       aria-label="13%"
       style="font-style:normal;font-weight:normal;font-size:40px;line-height:1.25;font-family:sans-serif;letter-spacing:0px;word-spacing:0px;fill:#000000;fill-opacity:1;stroke:none"
       id="text5135">
      <path
         d="m 89.243395,318.18098 v 67.2 h -15.552 v -54.72 h -13.44 v -12.48 z"
         style="font-style:normal;font-variant:normal;font-weight:bold;font-stretch:normal;font-size:96px;font-family:Montserrat;-inkscape-font-specification:'Montserrat Bold'"
         id="path870" />
      <path
         d="m 132.4029,345.54098 q 8.832,1.44 13.536,6.624 4.704,5.088 4.704,12.672 0,5.856 -3.072,10.848 -3.072,4.896 -9.408,7.872 -6.24,2.976 -15.36,2.976 -7.104,0 -14.016,-1.824 -6.816,-1.92 -11.616005,-5.376 l 6.048005,-11.904 q 3.84,2.88 8.832,4.512 5.088,1.536 10.368,1.536 5.856,0 9.216,-2.208 3.36,-2.304 3.36,-6.432 0,-8.256 -12.576,-8.256 h -7.104 v -10.272 l 13.824,-15.648 h -28.608 v -12.48 h 47.04 v 10.08 z"
         style="font-style:normal;font-variant:normal;font-weight:bold;font-stretch:normal;font-size:96px;font-family:Montserrat;-inkscape-font-specification:'Montserrat Bold'"
         id="path872" />
      <path
         d="m 172.4379,354.46898 q -7.392,0 -12.096,-4.992 -4.608,-5.088 -4.608,-13.536 0,-8.448 4.608,-13.44 4.704,-5.088 12.096,-5.088 7.392,0 12,5.088 4.608,4.992 4.608,13.44 0,8.448 -4.608,13.536 -4.608,4.992 -12,4.992 z m 40.032,-36.288 h 11.424 l -45.888,67.2 h -11.424 z m -40.032,28.416 q 3.264,0 5.088,-2.688 1.92,-2.688 1.92,-7.968 0,-5.28 -1.92,-7.968 -1.824,-2.688 -5.088,-2.688 -3.168,0 -5.088,2.784 -1.92,2.688 -1.92,7.872 0,5.184 1.92,7.968 1.92,2.688 5.088,2.688 z m 45.6,39.552 q -4.8,0 -8.64,-2.208 -3.744,-2.304 -5.856,-6.528 -2.112,-4.224 -2.112,-9.792 0,-5.568 2.112,-9.792 2.112,-4.224 5.856,-6.432 3.84,-2.304 8.64,-2.304 7.392,0 12,5.088 4.704,4.992 4.704,13.44 0,8.448 -4.704,13.536 -4.608,4.992 -12,4.992 z m 0,-7.872 q 3.264,0 5.088,-2.688 1.92,-2.784 1.92,-7.968 0,-5.184 -1.92,-7.872 -1.824,-2.784 -5.088,-2.784 -3.168,0 -5.088,2.688 -1.92,2.688 -1.92,7.968 0,5.28 1.92,7.968 1.92,2.688 5.088,2.688 z"
         style="font-style:normal;font-variant:normal;font-weight:bold;font-stretch:normal;font-size:96px;font-family:Montserrat;-inkscape-font-specification:'Montserrat Bold'"
         id="path874" />
    </g>
    <g
       aria-label="9%"
       style="font-style:normal;font-weight:normal;font-size:40px;line-height:1.25;font-family:sans-serif;letter-spacing:0px;word-spacing:0px;fill:#000000;fill-opacity:1;stroke:none"
       id="text5139">
      <path
         d="m 1056.3851,386.9741 q 10.584,0 16.56,6.48 5.976,6.408 5.976,18.504 0,8.568 -3.24,14.688 -3.168,6.12 -9,9.288 -5.832,3.168 -13.464,3.168 -4.032,0 -7.704,-0.864 -3.672,-0.936 -6.264,-2.592 l 4.32,-8.568 q 3.672,2.52 9.432,2.52 6.408,0 10.152,-3.744 3.744,-3.816 4.032,-10.944 -4.536,4.536 -12.528,4.536 -4.824,0 -8.784,-1.944 -3.96,-1.944 -6.264,-5.472 -2.304,-3.6 -2.304,-8.28 0,-5.04 2.52,-8.856 2.52,-3.816 6.84,-5.832 4.392,-2.088 9.72,-2.088 z m 0.864,23.76 q 3.816,0 6.192,-2.088 2.448,-2.16 2.448,-5.472 0,-3.312 -2.376,-5.4 -2.304,-2.088 -6.408,-2.088 -3.744,0 -6.12,2.016 -2.304,2.016 -2.304,5.472 0,3.456 2.304,5.544 2.376,2.016 6.264,2.016 z"
         style="font-style:normal;font-variant:normal;font-weight:bold;font-stretch:normal;font-size:72px;font-family:Montserrat;-inkscape-font-specification:'Montserrat Bold'"
         id="path877" />
      <path
         d="m 1096.1809,415.0541 q -5.544,0 -9.072,-3.744 -3.456,-3.816 -3.456,-10.152 0,-6.336 3.456,-10.08 3.528,-3.816 9.072,-3.816 5.544,0 9,3.816 3.456,3.744 3.456,10.08 0,6.336 -3.456,10.152 -3.456,3.744 -9,3.744 z m 30.024,-27.216 h 8.568 l -34.416,50.4 h -8.568 z m -30.024,21.312 q 2.448,0 3.816,-2.016 1.44,-2.016 1.44,-5.976 0,-3.96 -1.44,-5.976 -1.368,-2.016 -3.816,-2.016 -2.376,0 -3.816,2.088 -1.44,2.016 -1.44,5.904 0,3.888 1.44,5.976 1.44,2.016 3.816,2.016 z m 34.2,29.664 q -3.6,0 -6.48,-1.656 -2.808,-1.728 -4.392,-4.896 -1.584,-3.168 -1.584,-7.344 0,-4.176 1.584,-7.344 1.584,-3.168 4.392,-4.824 2.88,-1.728 6.48,-1.728 5.544,0 9,3.816 3.528,3.744 3.528,10.08 0,6.336 -3.528,10.152 -3.456,3.744 -9,3.744 z m 0,-5.904 q 2.448,0 3.816,-2.016 1.44,-2.088 1.44,-5.976 0,-3.888 -1.44,-5.904 -1.368,-2.088 -3.816,-2.088 -2.376,0 -3.816,2.016 -1.44,2.016 -1.44,5.976 0,3.96 1.44,5.976 1.44,2.016 3.816,2.016 z"
         style="font-style:normal;font-variant:normal;font-weight:bold;font-stretch:normal;font-size:72px;font-family:Montserrat;-inkscape-font-specification:'Montserrat Bold'"
         id="path879" />
    </g>
    <g
       aria-label="5%"
       style="font-style:normal;font-weight:normal;font-size:40px;line-height:1.25;font-family:sans-serif;letter-spacing:0px;word-spacing:0px;fill:#000000;fill-opacity:1;stroke:none"
       id="text5143">
      <path
         d="m 1033.5599,583.49639 q 13.024,0 19.184,5.192 6.248,5.192 6.248,13.904 0,5.632 -2.816,10.296 -2.816,4.576 -8.624,7.392 -5.72,2.728 -14.168,2.728 -6.512,0 -12.848,-1.672 -6.248,-1.76 -10.648,-4.928 l 5.632,-10.912 q 3.52,2.64 8.096,4.136 4.576,1.408 9.416,1.408 5.368,0 8.448,-2.112 3.08,-2.112 3.08,-5.896 0,-3.96 -3.256,-5.984 -3.168,-2.024 -11.088,-2.024 h -15.752 l 3.168,-34.672 h 37.576 v 11.44 h -25.696 l -0.968,11.704 z"
         style="font-style:normal;font-variant:normal;font-weight:bold;font-stretch:normal;font-size:88px;font-family:Montserrat;-inkscape-font-specification:'Montserrat Bold'"
         id="path882" />
      <path
         d="m 1078.2584,593.61639 q -6.776,0 -11.088,-4.576 -4.224,-4.664 -4.224,-12.408 0,-7.744 4.224,-12.32 4.312,-4.664 11.088,-4.664 6.776,0 11,4.664 4.224,4.576 4.224,12.32 0,7.744 -4.224,12.408 -4.224,4.576 -11,4.576 z m 36.696,-33.264 h 10.472 l -42.064,61.6 h -10.472 z m -36.696,26.048 q 2.992,0 4.664,-2.464 1.76,-2.464 1.76,-7.304 0,-4.84 -1.76,-7.304 -1.672,-2.464 -4.664,-2.464 -2.904,0 -4.664,2.552 -1.76,2.464 -1.76,7.216 0,4.752 1.76,7.304 1.76,2.464 4.664,2.464 z m 41.8,36.256 q -4.4,0 -7.92,-2.024 -3.432,-2.112 -5.368,-5.984 -1.936,-3.872 -1.936,-8.976 0,-5.104 1.936,-8.976 1.936,-3.872 5.368,-5.896 3.52,-2.112 7.92,-2.112 6.776,0 11,4.664 4.312,4.576 4.312,12.32 0,7.744 -4.312,12.408 -4.224,4.576 -11,4.576 z m 0,-7.216 q 2.992,0 4.664,-2.464 1.76,-2.552 1.76,-7.304 0,-4.752 -1.76,-7.216 -1.672,-2.552 -4.664,-2.552 -2.904,0 -4.664,2.464 -1.76,2.464 -1.76,7.304 0,4.84 1.76,7.304 1.76,2.464 4.664,2.464 z"
         style="font-style:normal;font-variant:normal;font-weight:bold;font-stretch:normal;font-size:88px;font-family:Montserrat;-inkscape-font-specification:'Montserrat Bold'"
         id="path884" />
    </g>
    <g
       aria-label="10%"
       style="font-style:normal;font-weight:normal;font-size:40px;line-height:1.25;font-family:sans-serif;letter-spacing:0px;word-spacing:0px;fill:#000000;fill-opacity:1;stroke:none"
       id="text5147">
      <path
         d="m 544.68452,175.8381 v 50.4 h -11.664 v -41.04 h -10.08 v -9.36 z"
         style="font-style:normal;font-variant:normal;font-weight:bold;font-stretch:normal;font-size:72px;font-family:Montserrat;-inkscape-font-specification:'Montserrat Bold'"
         id="path887" />
      <path
         d="m 575.11015,227.1021 q -6.264,0 -11.16,-3.096 -4.896,-3.096 -7.704,-8.928 -2.736,-5.904 -2.736,-14.04 0,-8.136 2.736,-13.968 2.808,-5.904 7.704,-9 4.896,-3.096 11.16,-3.096 6.264,0 11.16,3.096 4.896,3.096 7.632,9 2.808,5.832 2.808,13.968 0,8.136 -2.808,14.04 -2.736,5.832 -7.632,8.928 -4.896,3.096 -11.16,3.096 z m 0,-9.864 q 4.608,0 7.2,-3.96 2.664,-3.96 2.664,-12.24 0,-8.28 -2.664,-12.24 -2.592,-3.96 -7.2,-3.96 -4.536,0 -7.2,3.96 -2.592,3.96 -2.592,12.24 0,8.28 2.592,12.24 2.664,3.96 7.2,3.96 z"
         style="font-style:normal;font-variant:normal;font-weight:bold;font-stretch:normal;font-size:72px;font-family:Montserrat;-inkscape-font-specification:'Montserrat Bold'"
         id="path889" />
      <path
         d="m 614.11165,203.0541 q -5.544,0 -9.072,-3.744 -3.456,-3.816 -3.456,-10.152 0,-6.336 3.456,-10.08 3.528,-3.816 9.072,-3.816 5.544,0 9,3.816 3.456,3.744 3.456,10.08 0,6.336 -3.456,10.152 -3.456,3.744 -9,3.744 z m 30.024,-27.216 h 8.568 l -34.416,50.4 h -8.568 z m -30.024,21.312 q 2.448,0 3.816,-2.016 1.44,-2.016 1.44,-5.976 0,-3.96 -1.44,-5.976 -1.368,-2.016 -3.816,-2.016 -2.376,0 -3.816,2.088 -1.44,2.016 -1.44,5.904 0,3.888 1.44,5.976 1.44,2.016 3.816,2.016 z m 34.2,29.664 q -3.6,0 -6.48,-1.656 -2.808,-1.728 -4.392,-4.896 -1.584,-3.168 -1.584,-7.344 0,-4.176 1.584,-7.344 1.584,-3.168 4.392,-4.824 2.88,-1.728 6.48,-1.728 5.544,0 9,3.816 3.528,3.744 3.528,10.08 0,6.336 -3.528,10.152 -3.456,3.744 -9,3.744 z m 0,-5.904 q 2.448,0 3.816,-2.016 1.44,-2.088 1.44,-5.976 0,-3.888 -1.44,-5.904 -1.368,-2.088 -3.816,-2.088 -2.376,0 -3.816,2.016 -1.44,2.016 -1.44,5.976 0,3.96 1.44,5.976 1.44,2.016 3.816,2.016 z"
         style="font-style:normal;font-variant:normal;font-weight:bold;font-stretch:normal;font-size:72px;font-family:Montserrat;-inkscape-font-specification:'Montserrat Bold'"
         id="path891" />
    </g>
    <g
       aria-label="16%"
       style="font-style:normal;font-weight:normal;font-size:40px;line-height:1.25;font-family:sans-serif;letter-spacing:0px;word-spacing:0px;fill:#000000;fill-opacity:1;stroke:none"
       id="text5127">
      <path
         d="m 246.67197,518.75239 v 67.2 h -15.552 v -54.72 h -13.44 v -12.48 z"
         style="font-style:normal;font-variant:normal;font-weight:bold;font-stretch:normal;font-size:96px;font-family:Montserrat;-inkscape-font-specification:'Montserrat Bold'"
         id="path894" />
      <path
         d="m 290.79147,543.80839 q 6.432,0 11.712,2.592 5.28,2.592 8.352,7.392 3.072,4.704 3.072,10.944 0,6.72 -3.36,11.808 -3.36,5.088 -9.216,7.872 -5.76,2.688 -12.864,2.688 -14.112,0 -22.08,-8.64 -7.968,-8.64 -7.968,-24.672 0,-11.424 4.32,-19.584 4.32,-8.16 12,-12.384 7.776,-4.224 17.952,-4.224 5.376,0 10.272,1.248 4.992,1.152 8.448,3.36 l -5.76,11.424 q -4.992,-3.36 -12.576,-3.36 -8.544,0 -13.536,4.992 -4.992,4.992 -5.376,14.496 5.952,-5.952 16.608,-5.952 z m -3.168,31.68 q 4.992,0 8.064,-2.688 3.168,-2.688 3.168,-7.296 0,-4.608 -3.168,-7.296 -3.072,-2.784 -8.256,-2.784 -5.088,0 -8.352,2.88 -3.264,2.784 -3.264,7.2 0,4.416 3.168,7.2 3.168,2.784 8.64,2.784 z"
         style="font-style:normal;font-variant:normal;font-weight:bold;font-stretch:normal;font-size:96px;font-family:Montserrat;-inkscape-font-specification:'Montserrat Bold'"
         id="path896" />
      <path
         d="m 333.24147,555.04039 q -7.392,0 -12.096,-4.992 -4.608,-5.088 -4.608,-13.536 0,-8.448 4.608,-13.44 4.704,-5.088 12.096,-5.088 7.392,0 12,5.088 4.608,4.992 4.608,13.44 0,8.448 -4.608,13.536 -4.608,4.992 -12,4.992 z m 40.032,-36.288 h 11.424 l -45.888,67.2 h -11.424 z m -40.032,28.416 q 3.264,0 5.088,-2.688 1.92,-2.688 1.92,-7.968 0,-5.28 -1.92,-7.968 -1.824,-2.688 -5.088,-2.688 -3.168,0 -5.088,2.784 -1.92,2.688 -1.92,7.872 0,5.184 1.92,7.968 1.92,2.688 5.088,2.688 z m 45.6,39.552 q -4.8,0 -8.64,-2.208 -3.744,-2.304 -5.856,-6.528 -2.112,-4.224 -2.112,-9.792 0,-5.568 2.112,-9.792 2.112,-4.224 5.856,-6.432 3.84,-2.304 8.64,-2.304 7.392,0 12,5.088 4.704,4.992 4.704,13.44 0,8.448 -4.704,13.536 -4.608,4.992 -12,4.992 z m 0,-7.872 q 3.264,0 5.088,-2.688 1.92,-2.784 1.92,-7.968 0,-5.184 -1.92,-7.872 -1.824,-2.784 -5.088,-2.784 -3.168,0 -5.088,2.688 -1.92,2.688 -1.92,7.968 0,5.28 1.92,7.968 1.92,2.688 5.088,2.688 z"
         style="font-style:normal;font-variant:normal;font-weight:bold;font-stretch:normal;font-size:96px;font-family:Montserrat;-inkscape-font-specification:'Montserrat Bold'"
         id="path898" />
    </g>
  </g>
</svg>
