<svg width="1246" height="148" viewBox="0 0 1246 148" fill="none" xmlns="http://www.w3.org/2000/svg">
<rect width="1245" height="148" fill="white"/>
<g clip-path="url(#clip0)">
<path d="M142.215 13H13.9887C13.4547 13 12.9197 13 12.3866 13.0031C11.936 13.0063 11.4864 13.0113 11.0368 13.0236C10.0563 13.0501 9.0674 13.108 8.09915 13.282C7.11543 13.459 6.20004 13.7478 5.30701 14.2025C4.42908 14.6489 3.62532 15.2329 2.92878 15.9297C2.23194 16.6266 1.64797 17.429 1.2016 18.3079C0.746827 19.2009 0.457864 20.1166 0.282051 21.1011C0.107098 22.0696 0.0488614 23.0583 0.0224376 24.0378C0.0103581 24.4874 0.00517718 24.9369 0.00224225 25.3864C-0.000871985 25.9207 0.000166092 26.4545 0.000166092 26.9897V99.0113C0.000166092 99.5465 -0.000871985 100.079 0.00224225 100.615C0.00517718 101.064 0.0103581 101.514 0.0224376 101.963C0.0488614 102.942 0.107098 103.931 0.282051 104.899C0.457864 105.884 0.746827 106.799 1.2016 107.692C1.64797 108.571 2.23194 109.375 2.92878 110.07C3.62532 110.768 4.42908 111.352 5.30701 111.798C6.20004 112.253 7.11543 112.542 8.09915 112.719C9.0674 112.892 10.0563 112.951 11.0368 112.978C11.4864 112.988 11.936 112.994 12.3866 112.996C12.9197 113 13.4547 113 13.9887 113H142.215C142.748 113 143.283 113 143.816 112.996C144.265 112.994 144.715 112.988 145.167 112.978C146.145 112.951 147.134 112.892 148.104 112.719C149.087 112.542 150.002 112.253 150.896 111.798C151.774 111.352 152.576 110.768 153.274 110.07C153.97 109.375 154.553 108.571 155.001 107.692C155.457 106.799 155.745 105.884 155.92 104.899C156.096 103.931 156.152 102.942 156.179 101.963C156.191 101.514 156.197 101.064 156.199 100.615C156.203 100.079 156.203 99.5465 156.203 99.0113V26.9897C156.203 26.4545 156.203 25.9207 156.199 25.3864C156.197 24.9369 156.191 24.4874 156.179 24.0378C156.152 23.0583 156.096 22.0696 155.92 21.1011C155.746 20.1166 155.457 19.2009 155.001 18.3079C154.553 17.429 153.97 16.6266 153.274 15.9297C152.576 15.2329 151.774 14.6489 150.896 14.2025C150.002 13.7478 149.087 13.459 148.104 13.282C147.134 13.108 146.145 13.0501 145.167 13.0236C144.715 13.0113 144.265 13.0063 143.816 13.0031C143.283 13 142.748 13 142.215 13Z" fill="black"/>
<path d="M142.215 16.3331L143.792 16.3361C144.22 16.3392 144.647 16.3438 145.077 16.3555C145.824 16.3757 146.698 16.4162 147.513 16.5623C148.222 16.6899 148.816 16.8839 149.386 17.1742C149.949 17.4602 150.465 17.835 150.915 18.2847C151.367 18.7374 151.742 19.254 152.032 19.8231C152.321 20.3889 152.514 20.9802 152.641 21.6939C152.786 22.5 152.827 23.3767 152.847 24.1287C152.859 24.5532 152.864 24.9777 152.866 25.4123C152.87 25.9378 152.87 26.4631 152.87 26.9897V99.0113C152.87 99.5379 152.87 100.062 152.866 100.599C152.864 101.023 152.859 101.448 152.847 101.873C152.827 102.624 152.786 103.5 152.639 104.316C152.514 105.02 152.321 105.611 152.031 106.18C151.742 106.747 151.367 107.263 150.917 107.713C150.464 108.166 149.95 108.54 149.38 108.829C148.814 109.118 148.221 109.311 147.52 109.438C146.688 109.586 145.777 109.627 145.091 109.645C144.66 109.655 144.23 109.661 143.79 109.663C143.266 109.667 142.739 109.667 142.215 109.667H13.9887C13.9818 109.667 13.975 109.667 13.9679 109.667C13.4494 109.667 12.9299 109.667 12.402 109.663C11.9716 109.661 11.5421 109.655 11.1269 109.646C10.4251 109.627 9.51359 109.586 8.68888 109.439C7.9814 109.311 7.38827 109.118 6.81487 108.825C6.25064 108.539 5.73697 108.165 5.28389 107.712C4.83431 107.263 4.4607 106.748 4.17183 106.18C3.88268 105.612 3.68922 105.019 3.56202 104.306C3.41498 103.492 3.37459 102.62 3.3544 101.874C3.34288 101.447 3.33806 101.02 3.33533 100.595L3.33325 99.3422L3.33335 99.0113V26.9897L3.33325 26.6588L3.33523 25.4083C3.33806 24.9813 3.34288 24.5543 3.3544 24.1277C3.37459 23.3811 3.41498 22.508 3.56323 21.6872C3.68931 20.9814 3.88268 20.3881 4.17334 19.8173C4.45994 19.2531 4.83422 18.738 5.28617 18.2861C5.73632 17.8358 6.25167 17.4614 6.81949 17.1727C7.38676 16.8838 7.98101 16.6899 8.68851 16.5625C9.50368 16.4161 10.3786 16.3757 11.1279 16.3554C11.555 16.3438 11.9821 16.3392 12.4061 16.3362L13.9887 16.3331H142.215" fill="white"/>
<path d="M42.6425 46.6342C43.98 44.9613 44.8876 42.7151 44.6482 40.4198C42.6903 40.5172 40.3012 41.7115 38.9179 43.3856C37.676 44.8193 36.5767 47.1595 36.8633 49.3586C39.0611 49.5493 41.2568 48.2601 42.6425 46.6342Z" fill="black"/>
<path d="M44.6232 49.788C41.4315 49.5979 38.7178 51.5995 37.1936 51.5995C35.6685 51.5995 33.3344 49.8838 30.81 49.9301C27.5242 49.9783 24.4754 51.8361 22.808 54.7909C19.3785 60.7019 21.9029 69.47 25.238 74.2842C26.8576 76.6659 28.8094 79.2883 31.3813 79.1941C33.8113 79.0988 34.7637 77.6207 37.7175 77.6207C40.6691 77.6207 41.527 79.1941 44.0993 79.1465C46.7669 79.0988 48.4345 76.7636 50.0541 74.3795C51.912 71.6645 52.6726 69.0429 52.7205 68.899C52.6726 68.8513 47.5767 66.8964 47.5295 61.0345C47.4813 56.1263 51.5303 53.7916 51.7209 53.6468C49.4344 50.2651 45.8618 49.8838 44.6232 49.788Z" fill="black"/>
<path d="M72.4142 43.1455C79.3514 43.1455 84.182 47.9274 84.182 54.8894C84.182 61.8762 79.252 66.6829 72.2403 66.6829H64.5595V78.8975H59.0102V43.1455H72.4142V43.1455ZM64.5595 62.0248H70.927C75.7586 62.0248 78.5084 59.4236 78.5084 54.9142C78.5084 50.4052 75.7586 47.8284 70.9519 47.8284H64.5595V62.0248V62.0248Z" fill="black"/>
<path d="M85.6319 71.4897C85.6319 66.9305 89.1254 64.131 95.3199 63.784L102.455 63.363V61.3563C102.455 58.4574 100.497 56.7231 97.2276 56.7231C94.1299 56.7231 92.1973 58.2094 91.727 60.5386H86.6728C86.97 55.8309 90.9834 52.3623 97.4255 52.3623C103.743 52.3623 107.781 55.7071 107.781 60.9348V78.8975H102.653V74.6113H102.529C101.018 77.5102 97.7227 79.3434 94.3038 79.3434C89.1999 79.3434 85.6319 76.1721 85.6319 71.4897ZM102.455 69.136V67.0796L96.0377 67.4758C92.8415 67.699 91.0331 69.1112 91.0331 71.341C91.0331 73.6201 92.916 75.1069 95.7901 75.1069C99.5311 75.1069 102.455 72.53 102.455 69.136Z" fill="black"/>
<path d="M112.624 88.486V84.1501C113.019 84.249 113.911 84.249 114.357 84.249C116.835 84.249 118.173 83.2086 118.99 80.5329C118.99 80.4832 119.461 78.9472 119.461 78.9224L110.047 52.833H115.844L122.435 74.0416H122.533L129.124 52.833H134.773L125.011 80.26C122.782 86.5783 120.205 88.6098 114.804 88.6098C114.357 88.6098 113.019 88.5601 112.624 88.486Z" fill="black"/>
</g>
<path d="M253.806 100.418V95.435C253.835 95.0159 253.774 94.5955 253.628 94.2016C253.482 93.8078 253.253 93.4497 252.958 93.1511C252.662 92.8525 252.306 92.6202 251.914 92.4699C251.522 92.3195 251.102 92.2545 250.683 92.2791C250.134 92.2431 249.585 92.3551 249.095 92.6035C248.604 92.8518 248.189 93.2274 247.892 93.6909C247.622 93.2413 247.236 92.8728 246.774 92.6243C246.312 92.3758 245.792 92.2566 245.268 92.2791C244.811 92.256 244.356 92.3527 243.949 92.5595C243.541 92.7664 243.194 93.0762 242.943 93.4584V92.4784H241.215V100.418H242.959V96.0495C242.922 95.778 242.945 95.5017 243.028 95.2403C243.11 94.9788 243.249 94.7388 243.434 94.5372C243.62 94.3357 243.848 94.1777 244.102 94.0744C244.355 93.9712 244.629 93.9253 244.903 93.9401C246.049 93.9401 246.63 94.6875 246.63 96.0329V100.451H248.374V96.0495C248.338 95.7783 248.363 95.5026 248.446 95.2418C248.528 94.981 248.667 94.7416 248.853 94.5404C249.038 94.3392 249.265 94.1812 249.518 94.0774C249.771 93.9737 250.044 93.9268 250.317 93.9401C251.497 93.9401 252.061 94.6875 252.061 96.0329V100.451L253.806 100.418ZM279.609 92.4784H276.769V90.07H275.025V92.4784H273.447V94.0564H275.058V97.7105C275.058 99.5542 275.772 100.65 277.815 100.65C278.578 100.653 279.327 100.44 279.974 100.036L279.476 98.5576C279.013 98.834 278.487 98.9883 277.948 99.0061C277.118 99.0061 276.802 98.4746 276.802 97.6773V94.0564H279.626L279.609 92.4784ZM294.342 92.2791C293.921 92.2667 293.504 92.3682 293.136 92.5728C292.767 92.7774 292.461 93.0776 292.249 93.4418V92.4784H290.538V100.418H292.266V95.9665C292.266 94.6543 292.831 93.9235 293.927 93.9235C294.296 93.9184 294.663 93.9861 295.006 94.1228L295.538 92.4618C295.143 92.3207 294.728 92.2477 294.309 92.2459L294.342 92.2791ZM272.068 93.1096C271.09 92.5282 269.966 92.24 268.829 92.2791C266.819 92.2791 265.507 93.2425 265.507 94.8204C265.507 96.116 266.471 96.9133 268.248 97.1624L269.078 97.2787C270.025 97.4116 270.474 97.6607 270.474 98.1092C270.474 98.7237 269.842 99.0726 268.663 99.0726C267.714 99.1 266.784 98.8075 266.022 98.2421L265.192 99.5875C266.198 100.29 267.403 100.651 268.63 100.617C270.922 100.617 272.251 99.5376 272.251 98.0261C272.251 96.5146 271.204 95.9001 269.477 95.6509L268.646 95.5346C267.899 95.435 267.301 95.2855 267.301 94.754C267.301 94.2225 267.866 93.8238 268.813 93.8238C269.688 93.834 270.545 94.0685 271.304 94.5048L272.068 93.1096ZM318.335 92.2791C317.914 92.2667 317.497 92.3682 317.129 92.5728C316.76 92.7774 316.454 93.0776 316.242 93.4418V92.4784H314.531V100.418H316.259V95.9665C316.259 94.6543 316.824 93.9235 317.92 93.9235C318.289 93.9184 318.656 93.9861 318.999 94.1228L319.531 92.4618C319.136 92.3207 318.721 92.2477 318.302 92.2459L318.335 92.2791ZM296.078 96.4316C296.057 96.9895 296.153 97.5456 296.36 98.0642C296.567 98.5829 296.879 99.0527 297.278 99.4435C297.677 99.8344 298.153 100.138 298.675 100.334C299.198 100.531 299.756 100.616 300.313 100.584C301.35 100.637 302.37 100.299 303.17 99.6373L302.34 98.2421C301.743 98.6974 301.014 98.9479 300.263 98.9563C299.625 98.9046 299.029 98.6145 298.595 98.1436C298.161 97.6727 297.919 97.0556 297.919 96.415C297.919 95.7744 298.161 95.1572 298.595 94.6863C299.029 94.2154 299.625 93.9253 300.263 93.8736C301.014 93.882 301.743 94.1325 302.34 94.5879L303.17 93.1926C302.37 92.5309 301.35 92.1931 300.313 92.2459C299.756 92.2143 299.198 92.2994 298.675 92.4958C298.153 92.6922 297.677 92.9955 297.278 93.3864C296.879 93.7772 296.567 94.247 296.36 94.7657C296.153 95.2843 296.057 95.8404 296.078 96.3984V96.4316ZM312.256 96.4316V92.4784H310.528V93.4418C310.235 93.0643 309.856 92.762 309.423 92.5599C308.99 92.3577 308.515 92.2615 308.037 92.2791C306.936 92.2791 305.879 92.7166 305.101 93.4953C304.322 94.2741 303.884 95.3303 303.884 96.4316C303.884 97.5329 304.322 98.5891 305.101 99.3678C305.879 100.147 306.936 100.584 308.037 100.584C308.515 100.602 308.99 100.505 309.423 100.303C309.856 100.101 310.235 99.7988 310.528 99.4214V100.385H312.256V96.4316ZM305.828 96.4316C305.855 95.9642 306.019 95.5151 306.298 95.1396C306.578 94.7641 306.961 94.4785 307.401 94.318C307.841 94.1576 308.318 94.1292 308.774 94.2365C309.229 94.3438 309.644 94.582 309.966 94.9218C310.288 95.2616 310.503 95.6882 310.586 96.149C310.669 96.6098 310.615 97.0847 310.431 97.5152C310.247 97.9458 309.942 98.3132 309.552 98.5722C309.162 98.8312 308.704 98.9705 308.236 98.9729C307.907 98.9771 307.581 98.9131 307.278 98.7851C306.975 98.6571 306.702 98.4678 306.476 98.2291C306.25 97.9904 306.075 97.7075 305.964 97.3982C305.852 97.0888 305.806 96.7597 305.828 96.4316V96.4316ZM284.982 92.2791C283.881 92.2945 282.831 92.7468 282.063 93.5364C281.295 94.3261 280.873 95.3884 280.888 96.4897C280.903 97.591 281.356 98.6411 282.145 99.4089C282.935 100.177 283.997 100.599 285.099 100.584C286.293 100.645 287.469 100.261 288.396 99.5044L287.565 98.2254C286.909 98.7514 286.097 99.0436 285.256 99.0559C284.685 99.1051 284.118 98.9295 283.674 98.5666C283.231 98.2036 282.946 97.682 282.881 97.1126H288.778C288.778 96.8967 288.778 96.6807 288.778 96.4482C288.778 93.9567 287.233 92.2957 285.007 92.2957L284.982 92.2791ZM284.982 93.8238C285.241 93.8183 285.498 93.8638 285.739 93.9576C285.98 94.0515 286.2 94.1919 286.386 94.3708C286.573 94.5497 286.723 94.7637 286.827 95.0004C286.93 95.2372 286.987 95.4921 286.992 95.7506H282.84C282.87 95.2174 283.107 94.7173 283.502 94.3572C283.896 93.997 284.415 93.8056 284.949 93.8238H284.982ZM328.259 96.4482V89.2893H326.598V93.4418C326.305 93.0643 325.926 92.762 325.493 92.5599C325.06 92.3577 324.585 92.2615 324.107 92.2791C323.006 92.2791 321.949 92.7166 321.171 93.4953C320.392 94.2741 319.955 95.3303 319.955 96.4316C319.955 97.5329 320.392 98.5891 321.171 99.3678C321.949 100.147 323.006 100.584 324.107 100.584C324.585 100.602 325.06 100.505 325.493 100.303C325.926 100.101 326.305 99.7988 326.598 99.4214V100.385H328.259V96.4482ZM331.141 99.2636C331.249 99.2622 331.356 99.282 331.457 99.3217C331.552 99.3606 331.64 99.4169 331.714 99.4878C331.787 99.5594 331.846 99.6439 331.889 99.737C331.931 99.8339 331.952 99.9385 331.952 100.044C331.952 100.15 331.931 100.255 331.889 100.352C331.846 100.445 331.787 100.529 331.714 100.601C331.64 100.672 331.552 100.728 331.457 100.767C331.357 100.811 331.25 100.833 331.141 100.833C330.984 100.832 330.83 100.786 330.698 100.701C330.565 100.616 330.46 100.494 330.394 100.352C330.352 100.254 330.331 100.15 330.331 100.044C330.331 99.9386 330.352 99.8341 330.394 99.737C330.436 99.6439 330.495 99.5594 330.568 99.4878C330.643 99.4169 330.73 99.3606 330.826 99.3217C330.934 99.2787 331.05 99.2589 331.166 99.2636H331.141ZM331.141 100.667C331.224 100.668 331.306 100.651 331.382 100.617C331.454 100.585 331.518 100.54 331.573 100.484C331.677 100.371 331.735 100.223 331.735 100.069C331.735 99.9154 331.677 99.7672 331.573 99.6539C331.519 99.5978 331.454 99.5527 331.382 99.521C331.306 99.4879 331.224 99.4709 331.141 99.4712C331.058 99.4716 330.977 99.4886 330.9 99.521C330.826 99.5516 330.758 99.5968 330.701 99.6539C330.597 99.7672 330.54 99.9154 330.54 100.069C330.54 100.223 330.597 100.371 330.701 100.484C330.758 100.541 330.826 100.586 330.9 100.617C330.984 100.653 331.075 100.67 331.166 100.667H331.141ZM331.191 99.6788C331.269 99.6751 331.345 99.6986 331.407 99.7453C331.432 99.7663 331.453 99.7931 331.466 99.8234C331.479 99.8538 331.484 99.8867 331.482 99.9197C331.483 99.9472 331.478 99.9748 331.468 100.001C331.458 100.026 331.443 100.05 331.424 100.069C331.376 100.113 331.314 100.139 331.249 100.144L331.49 100.418H331.299L331.075 100.144H331V100.418H330.842V99.6871L331.191 99.6788ZM331.008 99.82V100.019H331.191C331.224 100.029 331.258 100.029 331.291 100.019C331.297 100.008 331.3 99.9949 331.3 99.9819C331.3 99.969 331.297 99.9562 331.291 99.9446C331.297 99.933 331.3 99.9202 331.3 99.9072C331.3 99.8942 331.297 99.8814 331.291 99.8698C331.258 99.8601 331.224 99.8601 331.191 99.8698L331.008 99.82ZM321.873 96.4482C321.9 95.9808 322.064 95.5318 322.344 95.1562C322.623 94.7807 323.006 94.4951 323.446 94.3347C323.886 94.1742 324.363 94.1459 324.819 94.2531C325.275 94.3604 325.689 94.5986 326.011 94.9384C326.333 95.2782 326.549 95.7048 326.631 96.1656C326.714 96.6264 326.66 97.1013 326.476 97.5318C326.292 97.9624 325.987 98.3298 325.597 98.5888C325.207 98.8478 324.75 98.9871 324.281 98.9895C323.953 98.9937 323.626 98.9297 323.324 98.8017C323.021 98.6737 322.747 98.4844 322.521 98.2457C322.295 98.007 322.121 97.7241 322.009 97.4148C321.897 97.1054 321.851 96.7763 321.873 96.4482V96.4482ZM263.547 96.4482V92.4784H261.82V93.4418C261.526 93.0643 261.148 92.762 260.714 92.5599C260.281 92.3577 259.806 92.2615 259.328 92.2791C258.227 92.2791 257.171 92.7166 256.392 93.4953C255.613 94.2741 255.176 95.3303 255.176 96.4316C255.176 97.5329 255.613 98.5891 256.392 99.3678C257.171 100.147 258.227 100.584 259.328 100.584C259.806 100.602 260.281 100.505 260.714 100.303C261.148 100.101 261.526 99.7988 261.82 99.4214V100.385H263.547V96.4482ZM257.119 96.4482C257.147 95.9808 257.31 95.5318 257.59 95.1562C257.869 94.7807 258.253 94.4951 258.693 94.3347C259.132 94.1742 259.609 94.1459 260.065 94.2531C260.521 94.3604 260.935 94.5986 261.257 94.9384C261.579 95.2782 261.795 95.7048 261.878 96.1656C261.96 96.6264 261.906 97.1013 261.723 97.5318C261.539 97.9624 261.233 98.3298 260.843 98.5888C260.453 98.8478 259.996 98.9871 259.528 98.9895C259.197 98.996 258.869 98.9338 258.565 98.8068C258.26 98.6798 257.984 98.4909 257.756 98.2519C257.528 98.013 257.353 97.7293 257.24 97.4188C257.127 97.1082 257.081 96.7777 257.103 96.4482H257.119Z" fill="#231F20"/>
<path d="M297.656 31.9768H271.495V78.9912H297.656V31.9768Z" fill="black"/>
<path d="M273.156 55.4888C273.151 50.9603 274.177 46.4901 276.155 42.4167C278.134 38.3433 281.013 34.7734 284.575 31.9775C280.165 28.5112 274.868 26.3557 269.29 25.7574C263.712 25.159 258.079 26.142 253.033 28.594C247.988 31.0459 243.734 34.8679 240.758 39.6231C237.782 44.3783 236.203 49.8749 236.203 55.4847C236.203 61.0944 237.782 66.591 240.758 71.3462C243.734 76.1014 247.988 79.9234 253.033 82.3753C258.079 84.8273 263.712 85.8103 269.29 85.212C274.868 84.6136 280.165 82.4581 284.575 78.9918C281.014 76.1967 278.136 72.6282 276.157 68.5563C274.179 64.4844 273.152 60.0159 273.156 55.4888V55.4888Z" fill="black" stroke="white" stroke-width="3"/>
<path d="M332.952 55.4881C332.952 61.0983 331.373 66.5952 328.396 71.3506C325.42 76.106 321.165 79.9279 316.119 82.3795C311.073 84.8311 305.439 85.8134 299.861 85.2143C294.283 84.6151 288.986 82.4585 284.575 78.9911C288.135 76.1936 291.013 72.6241 292.992 68.5519C294.971 64.4798 295.999 60.0115 295.999 55.484C295.999 50.9565 294.971 46.4881 292.992 42.416C291.013 38.3439 288.135 34.7744 284.575 31.9768C288.986 28.5094 294.283 26.3528 299.861 25.7537C305.439 25.1545 311.073 26.1368 316.119 28.5884C321.165 31.04 325.42 34.862 328.396 39.6173C331.373 44.3727 332.952 49.8697 332.952 55.4798V55.4881Z" fill="black" stroke="white" stroke-width="3"/>
<path d="M330.095 74.0082V73.0448H330.485V72.8455H329.497V73.0448H329.92V74.0082H330.095ZM332.013 74.0082V72.8455H331.714L331.366 73.676L331.017 72.8455H330.751V74.0082H330.967V73.1361L331.291 73.8919H331.515L331.839 73.1361V74.0165L332.013 74.0082Z" fill="black"/>
<path d="M506.859 122.055H506.676V122.547H506.584V122.055H506.4V121.963H506.868L506.859 122.055ZM507.578 122.547H507.486V122.071L507.319 122.488H507.219L507.052 122.071V122.547H506.96V121.963H507.102L507.269 122.38L507.436 121.963H507.578V122.547ZM419.565 122.547H418.287V107.952H419.565V122.547ZM429.283 107.952C430.401 107.935 431.514 108.107 432.575 108.46C433.504 108.767 434.358 109.264 435.082 109.92C435.772 110.562 436.311 111.348 436.661 112.222C437.399 114.173 437.399 116.325 436.661 118.277C436.311 119.151 435.772 119.937 435.082 120.578C434.358 121.234 433.504 121.732 432.575 122.038C431.514 122.391 430.401 122.563 429.283 122.547H423.944V107.952H429.283ZM425.222 109.161V121.337H429.283C430.242 121.354 431.198 121.208 432.107 120.904C432.872 120.644 433.572 120.227 434.163 119.678C434.724 119.142 435.155 118.486 435.425 117.759C435.991 116.139 435.991 114.376 435.425 112.756C435.155 112.027 434.723 111.368 434.163 110.829C433.574 110.278 432.873 109.86 432.107 109.603C431.199 109.305 430.247 109.161 429.291 109.178L425.222 109.161ZM452.797 107.785C453.41 107.783 454.021 107.853 454.618 107.993C455.197 108.126 455.759 108.327 456.289 108.594C456.79 108.848 457.256 109.164 457.677 109.536C458.088 109.901 458.445 110.322 458.738 110.787L457.677 111.496C457.426 111.114 457.125 110.766 456.782 110.462C456.438 110.155 456.056 109.891 455.646 109.678C455.222 109.46 454.773 109.295 454.309 109.186C453.825 109.069 453.328 109.011 452.83 109.011C451.998 109.004 451.173 109.157 450.399 109.461C449.667 109.747 449.002 110.178 448.443 110.729C447.881 111.291 447.438 111.961 447.14 112.697C446.505 114.334 446.505 116.148 447.14 117.784C447.438 118.521 447.881 119.19 448.443 119.753C449.002 120.303 449.667 120.735 450.399 121.02C451.173 121.325 451.998 121.478 452.83 121.471C453.325 121.472 453.819 121.416 454.301 121.304C455.23 121.1 456.093 120.664 456.808 120.036C457.152 119.731 457.453 119.381 457.702 118.994L458.746 119.753C458.442 120.207 458.08 120.619 457.668 120.979C457.249 121.343 456.786 121.654 456.289 121.904C455.775 122.167 455.231 122.365 454.668 122.497C453.079 122.858 451.417 122.736 449.897 122.146C449.012 121.797 448.205 121.275 447.524 120.612C446.846 119.939 446.312 119.136 445.953 118.252C445.195 116.313 445.195 114.16 445.953 112.222C446.312 111.337 446.846 110.534 447.524 109.862C448.205 109.198 449.012 108.676 449.897 108.327C450.831 107.962 451.827 107.778 452.83 107.785H452.797ZM463.041 114.457C463.228 114.148 463.459 113.867 463.726 113.623C463.977 113.393 464.258 113.2 464.562 113.047C464.868 112.899 465.19 112.787 465.523 112.714C465.852 112.642 466.188 112.606 466.525 112.605C467.094 112.6 467.66 112.693 468.197 112.881C468.683 113.05 469.129 113.317 469.509 113.665C469.875 114.012 470.16 114.437 470.344 114.907C470.553 115.438 470.655 116.005 470.645 116.575V122.588H469.45V116.942C469.456 116.489 469.386 116.038 469.241 115.608C469.114 115.229 468.902 114.884 468.623 114.599C468.342 114.317 468.003 114.1 467.628 113.965C467.2 113.813 466.747 113.739 466.291 113.748C465.852 113.745 465.415 113.824 465.005 113.981C464.615 114.131 464.26 114.358 463.96 114.649C463.659 114.943 463.421 115.295 463.258 115.683C463.083 116.1 462.995 116.548 462.999 117.001V122.588H461.813V107.576H462.999L463.041 114.457ZM478.449 112.605C479.076 112.599 479.696 112.724 480.271 112.972C480.822 113.212 481.317 113.565 481.725 114.006C482.146 114.468 482.475 115.006 482.694 115.591C482.938 116.236 483.062 116.92 483.062 117.609C483.062 117.701 483.062 117.784 483.062 117.868C483.062 117.951 483.062 118.026 483.062 118.101H474.823C474.855 118.627 474.985 119.142 475.207 119.619C475.408 120.049 475.692 120.434 476.043 120.753C476.386 121.062 476.786 121.3 477.221 121.454C477.674 121.616 478.152 121.698 478.633 121.696C479.269 121.707 479.899 121.579 480.48 121.321C481.026 121.067 481.524 120.72 481.95 120.295L482.586 121.129C482.297 121.423 481.977 121.686 481.633 121.913C481.321 122.115 480.987 122.283 480.639 122.413C480.306 122.536 479.962 122.622 479.611 122.672C479.262 122.721 478.91 122.746 478.558 122.747C477.88 122.755 477.207 122.63 476.578 122.38C475.991 122.145 475.459 121.793 475.015 121.346C474.57 120.89 474.223 120.347 473.996 119.753C473.745 119.098 473.62 118.402 473.628 117.701C473.62 117.006 473.745 116.315 473.996 115.666C474.215 115.061 474.553 114.505 474.99 114.032C475.428 113.58 475.954 113.222 476.536 112.981C477.151 112.716 477.813 112.58 478.483 112.58L478.449 112.605ZM478.449 113.656C477.98 113.652 477.514 113.74 477.079 113.915C476.672 114.079 476.301 114.32 475.984 114.624C475.665 114.933 475.405 115.298 475.216 115.699C475.011 116.134 474.881 116.599 474.831 117.076H481.859C481.824 116.595 481.708 116.124 481.516 115.683C481.34 115.281 481.091 114.917 480.781 114.607C480.474 114.303 480.11 114.062 479.71 113.899C479.31 113.736 478.882 113.653 478.449 113.656V113.656ZM490.348 112.605C491.044 112.599 491.735 112.732 492.379 112.997C492.99 113.25 493.536 113.637 493.975 114.132L493.206 114.966C492.835 114.592 492.399 114.289 491.919 114.073C491.416 113.856 490.872 113.748 490.323 113.756C489.809 113.754 489.3 113.856 488.827 114.057C488.374 114.251 487.965 114.535 487.624 114.891C487.264 115.247 486.98 115.673 486.789 116.142C486.405 117.16 486.405 118.283 486.789 119.302C486.966 119.763 487.235 120.183 487.58 120.537C487.925 120.891 488.338 121.172 488.794 121.362C489.267 121.564 489.776 121.666 490.29 121.663C490.845 121.669 491.395 121.555 491.902 121.329C492.386 121.113 492.827 120.814 493.206 120.445L493.95 121.279C493.509 121.771 492.963 122.158 492.354 122.413C491.713 122.678 491.025 122.811 490.331 122.805C489.636 122.813 488.945 122.683 488.301 122.421C487.704 122.179 487.163 121.819 486.711 121.361C486.258 120.904 485.904 120.36 485.669 119.761C485.175 118.466 485.175 117.036 485.669 115.741C485.902 115.141 486.256 114.595 486.709 114.136C487.162 113.677 487.703 113.315 488.301 113.072C488.948 112.769 489.65 112.601 490.365 112.58L490.348 112.605ZM497.977 116.9H499.573L503.751 112.73H505.255L500.576 117.359L505.339 122.538H503.826L499.648 117.943H498.052V122.538H496.799V107.526H497.985L497.977 116.9ZM430.654 100.454V95.4502C430.683 95.0294 430.622 94.6071 430.475 94.2117C430.328 93.8162 430.098 93.4565 429.8 93.1567C429.503 92.8568 429.145 92.6236 428.751 92.4726C428.356 92.3216 427.934 92.2563 427.512 92.2811C426.959 92.2449 426.408 92.3574 425.914 92.6068C425.42 92.8562 425.002 93.2333 424.704 93.6988C424.432 93.2473 424.044 92.8773 423.579 92.6277C423.114 92.3782 422.591 92.2584 422.064 92.2811C421.604 92.2579 421.146 92.3549 420.736 92.5627C420.326 92.7704 419.977 93.0815 419.724 93.4653V92.4812H417.986V100.454H419.741V96.034C419.703 95.7614 419.727 95.4839 419.809 95.2213C419.892 94.9588 420.032 94.7177 420.219 94.5153C420.405 94.3129 420.635 94.1542 420.89 94.0506C421.145 93.9469 421.421 93.9008 421.696 93.9157C422.849 93.9157 423.434 94.6662 423.434 96.0173V100.454H425.189V96.034C425.153 95.7616 425.177 95.4847 425.261 95.2228C425.344 94.961 425.484 94.7205 425.67 94.5185C425.857 94.3165 426.085 94.1578 426.34 94.0536C426.595 93.9494 426.869 93.9023 427.144 93.9157C428.331 93.9157 428.899 94.6662 428.899 96.0173V100.454H430.654ZM456.607 92.4562H453.766V90.0376H452.011V92.4562H450.39V94.0157H452.011V97.6519C452.011 99.5034 452.73 100.604 454.785 100.604C455.553 100.607 456.306 100.393 456.958 99.9871L456.457 98.5026C456.002 98.8009 455.478 98.9788 454.936 99.0197C454.1 99.0197 453.783 98.4859 453.783 97.6853V94.0157H456.607V92.4562ZM471.43 92.256C471.007 92.2436 470.587 92.3455 470.217 92.551C469.846 92.7565 469.538 93.0579 469.325 93.4236V92.4562H467.603V100.429H469.341V95.9589C469.341 94.6412 469.91 93.9073 471.013 93.9073C471.384 93.9022 471.753 93.9702 472.099 94.1075L472.634 92.4395C472.237 92.2978 471.819 92.2245 471.397 92.2227L471.43 92.256ZM449.02 93.09C448.036 92.5062 446.905 92.2167 445.761 92.256C443.739 92.256 442.419 93.2235 442.419 94.808C442.419 96.1091 443.388 96.9097 445.176 97.1599L446.012 97.2766C446.964 97.4101 447.415 97.6603 447.415 98.1106C447.415 98.7278 446.78 99.0781 445.594 99.0781C444.639 99.1056 443.704 98.8119 442.937 98.2441L442.101 99.5951C443.114 100.301 444.326 100.663 445.56 100.629C447.867 100.629 449.204 99.5451 449.204 98.0272C449.204 96.5094 448.151 95.8922 446.413 95.642L445.577 95.5253C444.825 95.4252 444.224 95.2751 444.224 94.7413C444.224 94.2076 444.792 93.8072 445.744 93.8072C446.625 93.8175 447.488 94.0529 448.251 94.4911L449.02 93.09ZM495.571 92.256C495.147 92.2436 494.728 92.3455 494.357 92.551C493.986 92.7565 493.678 93.0579 493.465 93.4236V92.4562H491.744V100.429H493.482V95.9589C493.482 94.6412 494.05 93.9073 495.153 93.9073C495.525 93.9022 495.894 93.9702 496.239 94.1075L496.774 92.4395C496.377 92.2978 495.959 92.2245 495.537 92.2227L495.571 92.256ZM473.177 96.426C473.156 96.9863 473.253 97.5447 473.461 98.0655C473.669 98.5863 473.983 99.0581 474.385 99.4506C474.786 99.8431 475.264 100.148 475.79 100.345C476.316 100.542 476.877 100.628 477.438 100.596C478.482 100.649 479.507 100.31 480.313 99.6452L479.477 98.2441C478.876 98.7014 478.144 98.9529 477.388 98.9613C476.746 98.9094 476.146 98.6181 475.709 98.1452C475.272 97.6723 475.03 97.0526 475.03 96.4093C475.03 95.766 475.272 95.1463 475.709 94.6734C476.146 94.2005 476.746 93.9092 477.388 93.8573C478.144 93.8657 478.876 94.1172 479.477 94.5745L480.313 93.1734C479.507 92.5089 478.482 92.1697 477.438 92.2227C476.877 92.1909 476.316 92.2764 475.79 92.4736C475.264 92.6709 474.786 92.9755 474.385 93.368C473.983 93.7605 473.669 94.2322 473.461 94.7531C473.253 95.2739 473.156 95.8323 473.177 96.3926V96.426ZM489.454 96.426V92.4395H487.716V93.4069C487.421 93.0279 487.04 92.7243 486.604 92.5213C486.168 92.3183 485.69 92.2216 485.209 92.2393C484.101 92.2393 483.039 92.6787 482.255 93.4607C481.471 94.2427 481.031 95.3034 481.031 96.4093C481.031 97.5152 481.471 98.5759 482.255 99.3579C483.039 100.14 484.101 100.579 485.209 100.579C485.69 100.597 486.168 100.5 486.604 100.297C487.04 100.094 487.421 99.7907 487.716 99.4117V100.379H489.454V96.426ZM482.987 96.426C483.014 95.9567 483.179 95.5057 483.46 95.1286C483.741 94.7515 484.127 94.4647 484.57 94.3035C485.012 94.1424 485.492 94.114 485.951 94.2217C486.409 94.3294 486.826 94.5686 487.15 94.9098C487.474 95.2511 487.691 95.6794 487.774 96.1422C487.857 96.6049 487.803 97.0818 487.618 97.5142C487.433 97.9466 487.126 98.3155 486.733 98.5756C486.341 98.8357 485.881 98.9756 485.41 98.978C485.079 98.9822 484.751 98.918 484.446 98.7894C484.141 98.6609 483.866 98.4708 483.639 98.2311C483.411 97.9914 483.236 97.7073 483.124 97.3966C483.011 97.086 482.965 96.7555 482.987 96.426V96.426ZM462.013 92.256C460.905 92.2715 459.849 92.7257 459.076 93.5187C458.304 94.3116 457.878 95.3784 457.894 96.4843C457.909 97.5903 458.364 98.6448 459.159 99.4159C459.953 100.187 461.022 100.611 462.13 100.596C463.323 100.638 464.489 100.24 465.406 99.4784L464.57 98.194C463.91 98.7222 463.093 99.0157 462.247 99.028C461.673 99.0773 461.102 98.901 460.655 98.5366C460.209 98.1721 459.923 97.6483 459.857 97.0765H465.798C465.798 96.8597 465.798 96.6428 465.798 96.4093C465.798 93.9073 464.244 92.2393 462.005 92.2393L462.013 92.256ZM462.013 93.8072C462.273 93.8017 462.532 93.8474 462.774 93.9416C463.017 94.0359 463.238 94.1769 463.426 94.3565C463.614 94.5362 463.764 94.7511 463.869 94.9888C463.973 95.2265 464.03 95.4825 464.035 95.7421H459.857C459.888 95.2067 460.127 94.7045 460.523 94.3428C460.92 93.9812 461.443 93.789 461.98 93.8072H462.013ZM505.606 96.4427V89.2537H503.868V93.4236C503.573 93.0446 503.192 92.741 502.756 92.538C502.32 92.335 501.842 92.2383 501.361 92.256C500.253 92.256 499.191 92.6954 498.407 93.4774C497.623 94.2594 497.183 95.32 497.183 96.426C497.183 97.5319 497.623 98.5926 498.407 99.3746C499.191 100.157 500.253 100.596 501.361 100.596C501.842 100.614 502.32 100.517 502.756 100.314C503.192 100.111 503.573 99.8074 503.868 99.4283V100.396H505.606V96.4427ZM499.139 96.4427C499.166 95.9733 499.331 95.5224 499.612 95.1452C499.893 94.7681 500.279 94.4814 500.722 94.3202C501.164 94.1591 501.644 94.1306 502.103 94.2384C502.561 94.3461 502.978 94.5853 503.302 94.9265C503.626 95.2677 503.843 95.6961 503.926 96.1588C504.009 96.6216 503.955 97.0985 503.77 97.5309C503.585 97.9632 503.278 98.3322 502.885 98.5923C502.493 98.8523 502.033 98.9922 501.562 98.9947C501.231 98.9988 500.903 98.9346 500.598 98.8061C500.293 98.6776 500.018 98.4875 499.791 98.2478C499.563 98.0081 499.388 97.724 499.276 97.4133C499.163 97.1026 499.117 96.7722 499.139 96.4427V96.4427ZM440.455 96.4427V92.4562H438.717V93.4236C438.422 93.0446 438.041 92.741 437.605 92.538C437.169 92.335 436.691 92.2383 436.21 92.256C435.102 92.256 434.039 92.6954 433.256 93.4774C432.472 94.2594 432.032 95.32 432.032 96.426C432.032 97.5319 432.472 98.5926 433.256 99.3746C434.039 100.157 435.102 100.596 436.21 100.596C436.691 100.614 437.169 100.517 437.605 100.314C438.041 100.111 438.422 99.8074 438.717 99.4283V100.396H440.455V96.4427ZM433.988 96.4427C434.015 95.9733 434.18 95.5224 434.461 95.1452C434.742 94.7681 435.128 94.4814 435.57 94.3202C436.013 94.1591 436.493 94.1306 436.952 94.2384C437.41 94.3461 437.827 94.5853 438.151 94.9265C438.475 95.2677 438.692 95.6961 438.775 96.1588C438.858 96.6216 438.804 97.0985 438.619 97.5309C438.434 97.9632 438.127 98.3322 437.734 98.5923C437.342 98.8523 436.882 98.9922 436.411 98.9947C436.08 98.9988 435.752 98.9346 435.447 98.8061C435.142 98.6776 434.867 98.4875 434.64 98.2478C434.412 98.0081 434.237 97.724 434.124 97.4133C434.012 97.1026 433.966 96.7722 433.988 96.4427V96.4427ZM508.497 99.2699C508.606 99.2685 508.714 99.2884 508.815 99.3283C508.911 99.3673 508.999 99.4239 509.074 99.4951C509.147 99.567 509.207 99.6518 509.249 99.7453C509.292 99.8426 509.313 99.9477 509.313 100.054C509.313 100.16 509.292 100.265 509.249 100.362C509.207 100.456 509.147 100.541 509.074 100.613C508.999 100.684 508.911 100.74 508.815 100.779C508.715 100.823 508.607 100.846 508.497 100.846C508.339 100.845 508.184 100.799 508.051 100.713C507.918 100.628 507.812 100.506 507.745 100.362C507.703 100.265 507.682 100.16 507.682 100.054C507.682 99.9477 507.703 99.8428 507.745 99.7453C507.788 99.6518 507.847 99.567 507.921 99.4951C507.996 99.4239 508.084 99.3673 508.18 99.3283C508.281 99.2884 508.389 99.2685 508.497 99.2699V99.2699ZM508.497 100.679C508.581 100.68 508.663 100.663 508.74 100.629C508.811 100.597 508.877 100.552 508.932 100.496C509.036 100.382 509.094 100.233 509.094 100.079C509.094 99.9245 509.036 99.7757 508.932 99.6618C508.877 99.6056 508.812 99.5603 508.74 99.5284C508.663 99.4951 508.581 99.4781 508.497 99.4784C508.414 99.4788 508.332 99.4958 508.255 99.5284C508.18 99.5591 508.112 99.6045 508.054 99.6618C507.95 99.7757 507.892 99.9245 507.892 100.079C507.892 100.233 507.95 100.382 508.054 100.496C508.112 100.553 508.18 100.598 508.255 100.629C508.331 100.665 508.413 100.685 508.497 100.688V100.679ZM508.547 99.6869C508.625 99.6831 508.702 99.7067 508.765 99.7536C508.79 99.7747 508.81 99.8016 508.823 99.8321C508.837 99.8626 508.842 99.8957 508.84 99.9287C508.841 99.9564 508.836 99.9841 508.826 100.01C508.816 100.036 508.801 100.059 508.781 100.079C508.733 100.123 508.671 100.149 508.606 100.154L508.848 100.429H508.656L508.43 100.154H508.355V100.429H508.196V99.6952L508.547 99.6869ZM508.364 99.8287V100.029H508.547C508.58 100.039 508.615 100.039 508.648 100.029C508.654 100.017 508.657 100.004 508.657 99.9913C508.657 99.9783 508.654 99.9654 508.648 99.9538C508.654 99.9421 508.657 99.9293 508.657 99.9162C508.657 99.9032 508.654 99.8903 508.648 99.8787C508.615 99.869 508.58 99.869 508.547 99.8787L508.364 99.8287Z" fill="black"/>
<path d="M474.781 31.7H448.46V78.9122H474.781V31.7Z" fill="black"/>
<path d="M507.419 73.9166V72.9492H507.812V72.749H506.818V72.9492H507.21V73.9166H507.419ZM509.349 73.9166V72.749H509.049L508.698 73.583L508.347 72.749H508.038V73.9166H508.255V73.0409L508.581 73.7999H508.806L509.132 73.0409V73.925L509.349 73.9166Z" fill="black"/>
<path d="M450.131 55.3103C450.126 50.7628 451.158 46.2738 453.149 42.1832C455.139 38.0926 458.036 34.5078 461.621 31.7C457.183 28.2192 451.853 26.0546 446.241 25.4537C440.629 24.8529 434.961 25.84 429.885 28.3023C424.808 30.7646 420.528 34.6026 417.534 39.3779C414.54 44.1531 412.952 49.6728 412.952 55.3061C412.952 60.9395 414.54 66.4592 417.534 71.2344C420.528 76.0097 424.808 79.8477 429.885 82.31C434.961 84.7723 440.629 85.7594 446.241 85.1585C451.853 84.5577 457.183 82.3932 461.621 78.9123C458.038 76.1054 455.141 72.5219 453.151 68.4328C451.16 64.3438 450.128 59.8564 450.131 55.3103V55.3103Z" fill="black" stroke="white" stroke-width="3"/>
<path d="M510.294 55.3102C510.294 60.944 508.705 66.4641 505.71 71.2395C502.716 76.0149 498.435 79.8528 493.358 82.3148C488.281 84.7767 482.612 85.7632 477 85.1615C471.387 84.5598 466.058 82.3942 461.621 78.9122C465.202 76.1028 468.098 72.5183 470.089 68.4291C472.08 64.3398 473.114 59.8526 473.114 55.3061C473.114 50.7595 472.08 46.2724 470.089 42.1831C468.098 38.0939 465.202 34.5093 461.621 31.7C466.058 28.218 471.387 26.0524 477 25.4507C482.612 24.849 488.281 25.8355 493.358 28.2974C498.435 30.7593 502.716 34.5973 505.71 39.3727C508.705 44.1481 510.294 49.6681 510.294 55.3019V55.3102Z" fill="black" stroke="white" stroke-width="3"/>
<path d="M649.082 38.8817L628.81 87.2473H615.584L605.613 48.6452C605.003 46.2652 604.48 45.3979 602.638 44.3943C599.634 42.7599 594.667 41.233 590.294 40.2796L590.595 38.8746H611.885C614.595 38.8746 617.039 40.681 617.656 43.8065L622.925 71.7993L635.943 38.8817H649.082ZM700.903 71.4552C700.953 58.6882 683.247 57.9857 683.369 52.2868C683.405 50.552 685.061 48.7097 688.674 48.2366C690.466 48 695.405 47.8208 701.011 50.4014L703.204 40.1434C700.193 39.0466 696.322 38 691.498 38C679.132 38 670.43 44.5735 670.351 53.9928C670.272 60.9534 676.566 64.8387 681.305 67.1541C686.179 69.5269 687.813 71.0466 687.792 73.1613C687.763 76.4086 683.907 77.8351 680.308 77.8925C674.014 77.9928 670.365 76.1936 667.455 74.8387L665.19 85.4337C668.115 86.7742 673.505 87.9427 679.104 88C692.265 88 700.86 81.5054 700.903 71.4552ZM733.555 87.2473H745.125L735.025 38.8817H724.344C721.943 38.8817 719.921 40.2796 719.018 42.4301L700.251 87.2473H713.391L716 80.0215H732.05L733.555 87.2473ZM719.598 70.1075L726.186 51.9427L729.978 70.1075H719.598ZM666.96 38.8817L656.616 87.2473H644.107L654.459 38.8817H666.96Z" fill="black"/>
<g clip-path="url(#clip1)">
<path d="M925.125 13H825.125V113H925.125V13Z" fill="white"/>
<path d="M925.125 63H825.125V113H925.125V63Z" fill="black"/>
<path d="M864.661 26.9798L855.247 49.4344H849.105L844.474 31.5152C844.191 30.4142 843.949 30.0101 843.095 29.5405C841.696 28.7829 839.393 28.0708 837.363 27.6314L837.499 26.9798H847.383C848.64 26.9798 849.777 27.8182 850.065 29.2677L852.509 42.2627L858.555 26.9798H864.661V26.9798ZM888.716 42.1061C888.741 36.1819 880.524 35.8536 880.58 33.2021C880.6 32.399 881.363 31.5405 883.044 31.3233C883.878 31.2172 886.171 31.1314 888.772 32.3283L889.792 27.5657C888.393 27.0607 886.595 26.5758 884.358 26.5758C878.615 26.5758 874.575 29.6263 874.544 34C874.509 37.2324 877.428 39.0354 879.63 40.1112C881.898 41.2122 882.656 41.9192 882.646 42.899C882.63 44.4041 880.837 45.0707 879.171 45.096C876.247 45.1415 874.555 44.3081 873.206 43.6768L872.151 48.6011C873.509 49.2223 876.014 49.7627 878.61 49.793C884.706 49.7879 888.701 46.7728 888.716 42.1061ZM903.883 49.4344H909.257L904.565 26.9798H899.61C898.494 26.9798 897.555 27.6263 897.135 28.6263L888.418 49.4344H894.519L895.731 46.0809H903.186L903.883 49.4344ZM897.398 41.4798L900.459 33.0455L902.216 41.4798H897.398ZM872.959 26.9798L868.156 49.4344H862.348L867.151 26.9798H872.959Z" fill="black"/>
<path d="M848.423 90.6919C849.08 91.0807 850.105 91.4141 851.166 91.4141C852.479 91.4141 853.216 90.7929 853.216 89.8686C853.216 89.01 852.646 88.505 851.216 87.9848C849.332 87.3282 848.135 86.3181 848.135 84.702C848.135 82.8333 849.681 81.4393 852.156 81.4393C853.383 81.4393 854.277 81.707 854.863 81.9949L854.373 83.6767C853.954 83.4595 853.161 83.1363 852.1 83.1363C850.787 83.1363 850.231 83.8282 850.231 84.4999C850.231 85.3737 850.888 85.7777 852.403 86.3484C854.373 87.106 855.312 88.0959 855.312 89.7121C855.312 91.5454 853.933 93.111 851.024 93.111C849.812 93.111 848.57 92.7727 847.943 92.404L848.423 90.6919Z" fill="white"/>
<path d="M863.363 87.914H859.09V91.2474H863.868V92.9443H857.019V81.606H863.615V83.3029H859.09V86.2322H863.363V87.914V87.914Z" fill="white"/>
<path d="M873.64 92.6111C873.151 92.8484 872.075 93.1161 870.696 93.1161C867.095 93.1161 864.908 90.8636 864.908 87.4141C864.908 83.6818 867.514 81.4393 870.979 81.4393C872.342 81.4393 873.302 81.707 873.721 81.9292L873.282 83.5757C872.741 83.3383 871.989 83.1363 871.06 83.1363C868.757 83.1363 867.09 84.5858 867.09 87.308C867.09 89.7979 868.534 91.3787 871.044 91.3787C871.868 91.3787 872.741 91.2121 873.297 90.9747L873.64 92.6111Z" fill="white"/>
<path d="M877.297 81.606V88.2171C877.297 90.4393 878.221 91.4646 879.62 91.4646C881.115 91.4646 882.009 90.4393 882.009 88.2171V81.606H884.08V88.0807C884.08 91.5807 882.282 93.1262 879.555 93.1262C876.928 93.1262 875.231 91.6616 875.231 88.0959V81.601H877.297V81.606Z" fill="white"/>
<path d="M886.282 81.7777C887.07 81.6262 888.216 81.5251 889.413 81.5251C891.044 81.5251 892.14 81.7928 892.913 82.4342C893.534 82.9544 893.888 83.7474 893.888 84.7221C893.888 86.1868 892.898 87.1767 891.817 87.5504V87.6009C892.64 87.9039 893.13 88.6969 893.398 89.7878C893.767 91.2019 894.07 92.5151 894.292 92.9494H892.171C892.004 92.611 891.716 91.6868 891.413 90.2726C891.075 88.7928 890.555 88.3231 889.378 88.2878H888.332V92.9494H886.282V81.7777V81.7777ZM888.332 86.7726H889.56C890.959 86.7726 891.812 86.0302 891.812 84.9039C891.812 83.6767 890.954 83.0858 889.61 83.0858C888.954 83.0858 888.534 83.1363 888.332 83.1868V86.7726V86.7726Z" fill="white"/>
<path d="M902.029 87.914H897.757V91.2474H902.534V92.9443H895.686V81.606H902.282V83.3029H897.757V86.2322H902.029V87.914Z" fill="white"/>
</g>
<g clip-path="url(#clip2)">
<path d="M1032.23 21C1037.97 21 1039.78 25.1206 1041.29 29.2347C1041.93 30.9818 1056.86 71.865 1057.31 73.0921C1057.43 73.4344 1057.35 73.9963 1056.82 74.1997C1056.29 74.4 1048.53 77.4161 1048.1 77.5776C1047.67 77.7423 1047.19 77.5033 1047.04 77.0738C1046.88 76.6508 1043.66 67.7379 1043.3 66.7433H1021.17C1020.82 67.7379 1017.56 76.6702 1017.42 77.0738C1017.27 77.484 1016.81 77.7617 1016.35 77.5776C1015.89 77.3968 1008.1 74.3806 1007.64 74.1997C1007.19 74.0254 1006.99 73.5184 1007.14 73.0921C1007.69 71.5614 1022.4 31.3338 1023.14 29.2347C1024.6 25.182 1026.47 21 1032.23 21ZM1005.96 94.1537C1005.5 94.1537 1005.13 94.5412 1005.13 95.0127V104.568C1005.13 105.04 1005.5 105.421 1005.96 105.421H1058.47C1058.95 105.421 1059.32 105.04 1059.32 104.568V95.0127C1059.32 94.5412 1058.95 94.1537 1058.47 94.1537H1005.96ZM1032.18 34.35L1024.7 56.8099H1039.78L1032.27 34.35H1032.18V34.35ZM1144.41 71.1771C1143.3 71.5485 1142.58 71.6389 1141.71 71.6389C1139.92 71.6389 1138.93 70.9317 1138.93 69.0974C1138.93 67.1857 1140.19 66.5463 1142.67 66.5463C1143.27 66.5463 1143.86 66.6335 1144.14 66.7303V68.0996C1144.14 69.5754 1144.22 70.5442 1144.41 71.1771V71.1771ZM1150.76 73.3666C1149.44 71.3612 1149.1 70.1792 1149.1 67.6507V62.5161C1149.1 59.7518 1148.77 58.7539 1148.05 57.7464C1147.03 56.319 1145.33 55.699 1142.22 55.699C1140.01 55.699 1137.87 55.938 1135.8 56.4676L1136.55 60.1167C1137.95 59.9197 1139.42 59.7518 1140.45 59.7518C1143.76 59.7518 1144.14 60.2297 1144.14 62.7131V63.6399C1143.4 63.4429 1142.58 63.3008 1141.62 63.3008C1136.64 63.3008 1134 65.7389 1134 69.7756C1134 73.5603 1136.82 75.6239 1140.24 75.6239C1141.52 75.6239 1142.86 75.3881 1143.92 74.9554C1144.56 74.6777 1144.84 74.513 1145.66 73.9769C1146.16 74.7003 1147.16 75.4398 1147.56 75.5787L1150.76 73.3666V73.3666ZM1200.05 71.1771C1198.95 71.5485 1198.23 71.6389 1197.36 71.6389C1195.56 71.6389 1194.56 70.9317 1194.56 69.0974C1194.56 67.1857 1195.84 66.5463 1198.32 66.5463C1198.92 66.5463 1199.52 66.6335 1199.79 66.7303V68.0996C1199.79 69.5754 1199.87 70.5442 1200.05 71.1771V71.1771ZM1206.42 73.3666C1205.09 71.3612 1204.75 70.1792 1204.75 67.6507V62.5161C1204.75 59.7518 1204.42 58.7539 1203.68 57.7464C1202.68 56.319 1200.98 55.699 1197.85 55.699C1195.65 55.699 1193.5 55.938 1191.42 56.4676L1192.16 60.1167C1193.57 59.9197 1195.04 59.7518 1196.11 59.7518C1199.4 59.7518 1199.79 60.2297 1199.79 62.7131V63.6399C1199.05 63.4429 1198.23 63.3008 1197.25 63.3008C1192.26 63.3008 1189.62 65.7389 1189.62 69.7756C1189.62 73.5603 1192.44 75.6239 1195.88 75.6239C1197.18 75.6239 1198.5 75.3881 1199.55 74.9554C1200.2 74.6777 1200.47 74.513 1201.3 73.9769C1201.8 74.7003 1202.8 75.4398 1203.21 75.5787L1206.42 73.3666V73.3666ZM1245.22 75.1944C1245.22 75.1944 1242.48 69.3719 1241.81 68.0479C1241.06 66.556 1240.36 65.5258 1238.83 65.1544V65.0705C1239.86 64.8735 1240.68 64.2502 1241.58 62.3449C1242.43 60.4881 1242.68 60.0876 1243.18 59.6452C1243.67 59.206 1244.34 59.3643 1244.34 59.3643L1244.59 55.9315C1243.88 55.8346 1243.09 55.8314 1242.27 55.8766C1240.91 55.9573 1240.21 56.3481 1239.54 57.0198C1239.02 57.5332 1238.67 58.3018 1238.23 59.1834C1237.76 60.1458 1237.39 60.9208 1236.91 61.8993C1236.43 62.9036 1236.2 63.3557 1234.91 63.3557H1234.06V48.1489H1229.08V75.1944H1234.06V67.4182L1234.75 67.4053C1236.18 67.4053 1236.43 67.7637 1237.18 69.2718C1238.07 71.0705 1239.76 75.1944 1239.76 75.1944H1245.22V75.1944ZM1104.66 75.1944H1110.42L1101.71 48.601C1100.79 48.2942 1099.66 48.1036 1098.45 48.1036C1097.13 48.1036 1096.66 48.278 1095.62 48.601L1086.41 75.1944H1091.93C1091.93 75.1944 1092.68 72.8628 1093.56 69.9726H1103.1C1103.96 72.8596 1104.66 75.1944 1104.66 75.1944ZM1094.96 65.5129C1094.96 65.5129 1096.55 60.1748 1096.8 59.3449C1097.44 57.1942 1098.4 53.7775 1098.4 53.7775H1098.56C1098.56 53.7775 1099.45 57.3169 1100.03 59.3061C1100.25 60.0973 1101.77 65.5129 1101.77 65.5129H1094.96ZM1159.26 62.4709C1157.5 62.4709 1156.07 63.9079 1156.07 65.6679C1156.07 67.4408 1157.5 68.8681 1159.26 68.8681C1161.03 68.8681 1162.45 67.4408 1162.45 65.6679C1162.45 63.9079 1161.03 62.4709 1159.26 62.4709ZM1117.26 48.1489H1112.25V75.1911H1117.26V48.1489V48.1489ZM1216.64 59.9972C1219.4 60.0553 1219.75 60.6269 1219.75 62.9456V75.1944H1224.7V62.5161C1224.7 59.7518 1224.38 58.7539 1223.64 57.7464C1222.63 56.319 1220.63 55.699 1217.25 55.699C1213.9 55.699 1211.77 56.0542 1209.03 56.8712V75.1944H1214.04V60.2297C1215.35 60.0392 1215.58 59.9972 1216.64 59.9972V59.9972ZM1129.63 47.6677C1126.5 47.6677 1124.8 48.2877 1123.8 49.7118C1123.06 50.7226 1122.74 51.7431 1122.74 54.5138V56.8712H1120.25V60.9143H1122.74V75.1944H1127.7L1127.68 60.9143H1132.63V56.8712H1127.68L1127.7 54.7044C1127.7 52.2243 1128.08 51.7431 1131.39 51.7431C1131.75 51.7431 1132.15 51.7625 1132.58 51.7948L1133.36 47.9099C1132.14 47.7484 1130.88 47.6677 1129.63 47.6677V47.6677ZM1169.43 47.9196C1171.13 47.8195 1174.93 47.6774 1177.32 47.6774C1177.75 47.6774 1178.21 47.6806 1178.66 47.7032C1183.35 47.7032 1186.04 51.1198 1186.04 55.1306C1186.04 57.8594 1184.79 59.6711 1181.86 60.7496C1185.31 61.5118 1187.11 64.2018 1187.11 67.4925C1187.11 69.908 1186.43 71.8262 1185.18 73.1341C1183.56 74.7294 1181.11 75.6239 1177.84 75.6239C1174.93 75.6239 1171.28 75.5335 1169.43 75.4237V47.9196V47.9196ZM1177.32 52.3502C1176.49 52.3502 1175.47 52.3663 1174.45 52.4019V58.896H1177.32C1178.46 58.896 1179.37 58.5795 1180 57.9692C1180.59 57.3944 1180.9 56.5806 1180.9 55.615C1180.9 53.5386 1179.78 52.3631 1177.69 52.3502H1177.32V52.3502ZM1177.42 70.9607H1177.64C1180.24 70.9607 1181.84 69.5754 1181.86 66.7852C1181.83 65.7841 1181.45 64.8606 1180.76 64.1921C1180.01 63.4364 1178.94 63.0425 1177.69 63.0425H1174.45V70.9317C1175.37 70.9511 1176.38 70.9543 1177.42 70.9607" fill="black"/>
</g>
<defs>
<clipPath id="clip0">
<rect width="156.203" height="100" fill="white" transform="translate(0 13)"/>
</clipPath>
<clipPath id="clip1">
<rect width="100" height="100" fill="white" transform="translate(825.125 13)"/>
</clipPath>
<clipPath id="clip2">
<rect width="240.09" height="84.4198" fill="white" transform="translate(1005.13 21)"/>
</clipPath>
</defs>
</svg>
